<mxfile host="Electron" modified="2025-07-06T09:45:22.800Z" agent="Mozilla/5.0 (Windows NT 10.0; Win64; x64) AppleWebKit/537.36 (KHTML, like Gecko) draw.io/22.1.2 Chrome/114.0.5735.289 Electron/25.9.4 Safari/537.36" etag="37-RZETtMdJHnUVagjdM" version="22.1.2" type="device" pages="2">
  <diagram id="50pMIm3MBYP17UyezTi5" name="SPOF">
    <mxGraphModel dx="2836" dy="1640" grid="1" gridSize="10" guides="1" tooltips="1" connect="1" arrows="1" fold="1" page="1" pageScale="1" pageWidth="850" pageHeight="1100" math="0" shadow="0">
      <root>
        <mxCell id="0" />
        <mxCell id="1" parent="0" />
        <mxCell id="5aWrAIKVMlBQY42iL_i9-6" style="edgeStyle=orthogonalEdgeStyle;rounded=0;orthogonalLoop=1;jettySize=auto;html=1;strokeWidth=2;" edge="1" parent="1" source="oMMCGzu5jU7tzmJ9BOZd-1" target="5aWrAIKVMlBQY42iL_i9-3">
          <mxGeometry relative="1" as="geometry" />
        </mxCell>
        <mxCell id="oMMCGzu5jU7tzmJ9BOZd-1" value="" style="shape=image;verticalLabelPosition=bottom;labelBackgroundColor=default;verticalAlign=top;aspect=fixed;imageAspect=0;image=data:image/png,iVBORw0KGgoAAAANSUhEUgAAAgAAAAIACAYAAAD0eNT6AAAABHNCSVQICAgIfAhkiAAAAAlwSFlzAAAOxAAADsQBlSsOGwAAABl0RVh0U29mdHdhcmUAd3d3Lmlua3NjYXBlLm9yZ5vuPBoAABgQSURBVHic7d1brGX3fdDx/9rnzIzt+pI4N0gcJ01rEpQ2wY4vaWRo3IfSEMVVHyZIvCCEhBU5lmURqCr1YSQeeIAXIiKgL4gHJAiISFSKUCTiNI1cI8sRKUKgRCUXmUaknhmfc2afvfZa6///8+BLPZ7L2Xufvfd/rb0+nyfPTfrpLJ/Z373nt/4rBAAAAAAAAAAAAAAAAAAAAAAAAAAAAAAAAAAAAAAAAAAAAAAAAAAAAAAAAAAAAAAAAAAAAAAAAAAAAAAAAAAAAAAAAAAAAAAAAAAAAAAAAAAAAAAAAAAAAAAAAAAAAAAAAAAAAK6vWuQ3ffazn317VVV/YzKZ/HrO+QMhhPeEEN696J8HKKVt2/0rV67cXnoO2JSqqtqqqo4nk8nFqqr+y6233vpPvv71r//4xD93s1/83Oc+95Gqqv5Rzvk3Qwhn1jYtwBbknMPh4WGIMZYeBbZqf3//pb29vb/7zW9+8xs3+j3XDYDz58/fWtf1Pw0h/L0Qwv6mBgTYpLquw/HxcekxoJizZ8/+cc75V7/1rW+98tZfuyYAHn/88ffmnL8WQnh4K9MBbEBKKRwcHIScc+lRoKi9vb3ZLbfc8tg3vvGN//bmn78qAD7zmc/cc+bMmT/KOd+z3fEA1uvKlSuhaZrSY0AvTCaTuL+//8izzz774hs/9/p/nD9//tb9/f3/5MUfGLq2bb34w5uklPa6rvv2pz/96Xe+/nNvBMBsNvvnIYSHikwGsEb+3R+ulVK6Lef87dd/vBdCCI8//vjHQgj/MritDxi42Wzm3T/cQM75XR/60If+949+9KP/OXntJ/5xeNOnAQBDlFIKdV2XHgN6K+cccs7/LIQQqte2/l8K3v0DA3d0dBTati09BvRaVVXh1ltvvX8SQvjN4MUfGLimabz4wwJyziGl9PcnOee/XnoYgNPIOYfZbFZ6DBiMrut+bRJC+PnSgwCcRl3XjvuFJeSc3z4JIfzF0oMArCrG6N0/LCmldG4SQnhH6UEAVuWef1jJZBLc/gcMlMU/WE3O2Ys/MEw5Z+/+4RQEADBIs9kspJRKjwGDJQCAwYkxhvl8XnoMGDQBAAzO8fFxyDmXHgMGTQAAg2LxD9ZDAACDYfEP1kcAAINh8Q/WRwAAg9B1nUf9whoJAGAQHPcL6yUAgN6bz+cW/2DNBADQaxb/YDMEANBr7vmHzRAAQG858Q82RwAAvZRzDtPptPQYsLMEANBLTdOErutKjwE7SwAAvZNSsvgHGyYAgN6ZzWYW/2DDBADQK13XhaZpSo8BO08AAL0ynU69+4ctEABAb9R1HWKMpceAURAAQC+klJz3D1skAIBecOIfbJcAAIqz+AfbJwCA4pz4B9snAICiLP5BGQIAKMbiH5QjAIBiLP5BOQIAKKJtW4t/UJAAALYu5+xhP1CYAAC2zuIflCcAgK2y+Af9IACArfLRP/SDAAC2xuIf9IcAALYi5+zEP+gRAQBsRV3XIaVUegzgNQIA2LgYo8U/6BkBAGycF3/oHwEAbFTTNBb/oIcEALAxOWfv/qGnBACwMbPZzIl/0FMCANiIlFKo67r0GMANCABgI9zzD/0mAIC1a5omtG1begzgJgQAsFYe9QvDIACAtZrNZk78gwEQAMDaxBjDfD4vPQawAAEArM10Og0559JjAAsQAMBazOfz0HVd6TGABQkA4NSc+AfDIwCAUzs+Prb4BwMjAIBTsfgHwyQAgJXlnJ34BwMlAICVWfyD4RIAwEos/sGwCQBgJcfHx+75hwETAMDSuq4LTdOUHgM4BQEALOX1h/149w/DJgCApVj8g90gAICFpZQs/sGOEADAwnz0D7tDAAALsfgHu0UAAAtx4h/sFgEAnKiu6xBjLD0GsEYCALipnHOo67r0GMCaCQDgpqbTqUf9wg4SAMANWfyD3SUAgOvyqF/YbQIAuC6Lf7DbBABwjZSSxT/YcQIAuMZ0OnXiH+w4AQBcpW3b0LZt6TGADRMAwFUs/sE4CADgDbPZzD3/MBICAAghWPyDsREAQAjB4h+MjQAAQtM0Fv9gZAQAjFzOORwfH5ceA9gyAQAjV9e1xT8YIQEAI5ZSCrPZrPQYQAECAEbMPf8wXgIARsriH4ybAIARsvgHCAAYISf+AQIARibGGObzeekxgMIEAIzM8fGxE/8AAQBjMp/PLf4BIQQBAKORc3bPP/AGAQAjYfEPeDMBACPQdZ1H/QJXEQAwAu75B95KAMCOm8/noeu60mMAPSMAYIc58Q+4EQEAO8w9/8CNCADYUU78A25GAMAOyjl71C9wUwIAdpDFP+AkAgB2TErJPf/AiQQA7Bgn/gGLEACwQ9q2tfgHLEQAwA5xzz+wKAEAO6Ku6xBjLD0GMBACAHZASsmjfoGlCADYAU78A5YlAGDguq4LTdOUHgMYGAEAA2fxD1iFAIABm81mTvwDViIAYKCc+AechgCAgbL4B5yGAIABatvW4h9wKgIABibnbPEPODUBAAMzn8+d+AecmgCAAUkpefcPrIUAgAGZTqelRwB2hACAgWjbNrRtW3oMYEcIABiAnLN3/8BaCQAYgLquQ0qp9BjADhEA0HMxRo/6BdZOAEDP2foHNkEAQI81TWPxD9gIAQA9lXP20T+wMQIAeqquayf+ARsjAKCHUkre/QMbJQCgh9zzD2yaAICesfgHbIMAgB7xqF9gWwQA9MhsNnPiH7AVAgB6IsYY5vN56TGAkRAA0BPT6TTknEuPAYyEAIAemM/noeu60mMAIyIAoDD3/AMlCAAozOIfUIIAgIIs/gGlCAAoJOfsxD+gGAEAhTRNY/EPKEYAQAFO/ANKEwBQwPHxsXv+gaIEAGxZ13WhaZrSYwAjJwBgy7z7B/pAAMAW1XVt8Q/oBQEAW+LEP6BPBABsiY/+gT4RALAFFv+AvhEAsAVO/AP6RgDAhtV1HWKMpccAuIoAgA3KOYe6rkuPAXANAQAbNJ1OPeoX6CUBABvStq3FP6C3BABsgIf9AH0nAGADLP4BfScAYM2c+AcMgQCANXPPPzAEAgDWqG3b0LZt6TEATiQAYI28+weGQgDAmsxmM/f8A4MhAGANYowW/4BBEQCwBu75B4ZGAMApWfwDhkgAwCnknC3+AYMkAOAU6rq2+AcMkgCAFTnxDxgyAQAr8tE/MGQCAFbQNI3FP2DQBAAsyaN+gV0gAGBJTvwDdoEAgCXEGMN8Pi89BsCpCQBYwvHxccg5lx4D4NQEACzI4h+wSwQALMDiH7BrBAAswOIfsGsEAJyg67pQ13XpMQDWSgDACXz0D+wiAQA3MZ/PQ9d1pccAWDsBADdg8Q/YZQIAbsA9/8AuEwBwHV3XhaZpSo8BsDECAN7i9Y/+vfsHdpkAgLdomsbiH7DzBAC8SUopzGaz0mMAbJwAgDdx4h8wFgIAXtN1nUf9AqMhAOA10+m09AgAWyMAIIRQ13WIMZYeA2BrBACjl3P2sB9gdAQAozedTi3+AaMjABi1tm2d+AeMkgBg1NzzD4yVAGC0ZrOZE/+A0RIAjFJKyeIfMGoCgFHysB9g7AQAo2PxD0AAMDKvP+oXYOwEAKPixD+AVwkARsOjfgH+nABgNDzsB+DPCQBGoW3b0LZt6TEAekMAsPNyzt79A7yFAGDnzWYzD/sBeAsBwE6LMTrxD+A6BAA7zT3/ANcnANhZTdNY/AO4AQHATnLiH8DNCQB2Ul3XFv8AbkIAsHMs/gGcTACwczzqF+BkAoCdYvEPYDECgJ1h8Q9gcQKAneHEP4DFCQB2QowxzOfz0mMADIYAYCdMp1OLfwBLEAAM3nw+D13XlR4DYFAEAIOWcw6z2az0GACDIwAYNIt/AKsRAAyWE/8AVicAGKScc5hOp6XHABgsAcAgNU1j8Q/gFAQAg5NScuIfwCkJAAZnNpu55x/glAQAg9J1XWiapvQYAIMnABgUj/oFWA8BwGDUdW3xD2BNBACDkFJy4h/AGgkABsHiH8B6CQB6r+s6j/oFWDMBQO858Q9g/QQAvVbXdYgxlh4DYOcIAHrLo34BNkcA0FvT6dTiH8CGCAB6qW1bJ/4BbJAAoHdyzh72A7BhAoDesfgHsHkCgF5x4h/AdggAesVH/wDbIQDoDYt/ANsjAOgNJ/4BbI8AoBdms1lIKZUeA2A0BADFxRgt/gFsmQCgOC/+ANsnACjK4h9AGQKAYpz4B1COAKCY2WzmxD+AQgQARaSUQl3XpccAGC0BQBHu+QcoSwCwdU3ThLZtS48BMGoCgK2y+AfQDwKArXLiH0A/CAC2JsYY5vN56TEACAKALZpOpyHnXHoMAIIAYEuapgld15UeA4DXCAA2zuIfQP8IADbO4h9A/wgANqrrOif+AfSQAGBjfPQP0F8CgI2x+AfQXwKAjfDuH6DfBAAbcXx87J5/gB4TAKxd13WhaZrSYwBwEwKAtXr9o3/v/gH6TQCwVhb/AIZBALA2KSWLfwADIQBYm9ls5qN/gIGovva1rz03n8/vaprmzrZt7+q67vYQQlV6MIZlb28vnD17tvQYACxo//3vf/+vlB6C4fvpT39q8x9gQPwTAKd2eHjoxR9gYAQApxJjDAcHB6XHAGBJAoBTuXz5skf9AgyQAGBldV2H6XRaegwAViAAWEnOOVy6dKn0GACsSACwkqOjo9C2bekxAFiRAGBpFv8Ahk8AsLRLly5Z/AMYOAHAUuq6dt4/wA4QACzM4h/A7hAALOzw8NDiH8COEAAspOu6cHh4WHoMANZEALAQJ/4B7BYBwIlms5nFP4AdIwC4KYt/ALtJAHBTBwcHoeu60mMAsGYCgBtq29biH8COEgDc0OXLl0POufQYAGyAAOC6jo+Pw2w2Kz0GABsiALhGzjlcvny59BgAbJAA4BoW/wB2nwDgKk3TWPwDGAEBwFUs/gGMgwDgDdPpNNR1XXoMALZAABBCsPgHMDYCgBBCCK+88kqIMZYeA4AtEQCEtm3D0dFR6TEA2CIBQLh48aLFP4CREQAjd+XKlTCfz0uPAcCWCYARSymFV155pfQYABQgAEbs8uXLFv8ARkoAjFTTNOHKlSulxwCgkEkIwVvAkck5h4sXL5YeA4CCJiGEPys9BNs1nU5D0zSlxwCgkKqqwiSE8KelB2F7UkpO/AMYuaqq8iSE8CelB2F7Ll++HFJKpccAoKCu6+pJVVVfLz0I29E0TZhOp6XHAKCw6XT6/KTrut8PIXSlh2HznPgHQAghTKfT365CCOGFF174d1VV/c3SA7E5R0dH4dKlS6XHAKCwlNL0/Pnzt09e+8HvhBCshe8oJ/4BEMKr2/8vv/zyEyG8dhDQI4888sMQwpeLTsXGWPwDIIQQ6rr+0y984Qv/NoQ3nQR4dHT0OyGEbxabio2Yz+dO/AMghBDay5cvf/j1H7wRAI899lgXY/x8COF/FRmLtXPiHwAhhDCZTPJLL730K08++eQb7wivehbAI488crGu60dyzr+//fFYt6Ojo9C2bekxACir+dnPfvbxp59++sU3/+Q1DwN69NFHj374wx/+Vs75d0MIPjseqBhjODg4KD0GAIVUVRXquv7Bj3/847c98cQT/+OaX7/ZH37++effc+bMmd/NOf+tEMLdG5uStXv55Zcd+gMwQpPJJMzn85cPDg5+64knnvjOjX7fTQPgdc8+++z+nXfe+ddyzr8eQrg3hHBPCOHdIYQz6xmXdZrNZrdfvHjxXaXnGIuc80LfR6xXVVVOtYIQQs45tm0777ruYDqd/uemaf7Bm/+t/0b8xQWn9MUvfvG/TqfTXys9x5jcdttt3/rKV77yWOk5YMiu2QEAlhNjvKf0DGOTUnpf6Rlg6AQAnFJK6Z2lZxibnLOvOZySAIBTSindUXqGsYkx3l56Bhg6AQCnM4kxWobdshjjmQsXLuyXngOGTADAKTz99NO/5BHL25dzDoeHh79ceg4YMgEAp1BV1YOlZxgxX3s4BQEApxBj9C60kKZpfO3hFAQAnM59pQcYsV8sPQAMmQCAU4gx3lt6hrFKKfnawykIADiFlNK7S88wVr72cDoCAE4hpXRX6RnGKqV0Z+kZYMgEAJxC13XnSs8wVl3XnS09AwyZAIAVPfnkkx/wJMBycs7VU0899Qul54ChEgCwonPnzj1ceoax29vbcw1gRQIAVtR13cdLzzB2Xdd9rPQMMFQCAFYUY/xw6RkIrgGsSADA6j5YeoCxSyl9oPQMMFQCAFYUY/wLpWcYu5yzawArEgCwopTS20vPMHYxxreVngGGSgDAilJKt5aeYexijLeUngGGSgDACp555pm7Y4y+fwpLKU2+9KUvORIYVuAvMFiN+8/746HSA8AQCQBYQYzx/tIz8Kr5fO5awAoEAKwg5/yXS8/AGz5SegAYIgEAK0gp/XzpGXiVawGrEQCwgpzze0vPwKtSSq4FrEAAwApijO8oPQOvSindXXoGGCIBACtIKf1c6Rl4VYzRtYAVCABY0lNPPXWu67r90nPwqhjj3oULF24rPQcMjQCAJe3t7T1QegaudnBw8InSM8DQCABYUs7Zi03PxBhFGSxJAMCScs4fLT0DV3NNYHkCAJaUUvrF0jNwtZzzL5SeAYZGAMCSUkr3lJ6Bq8UYXRNYkgCAJaWU3lV6Bq6WUnpn6RlgaAQALCnGeEfpGbhaSsk1gSUJAFjOJMZ4tvQQXK3rujPB32ewFN8wsISnnnrqIznn0mNwHU8//fQvlZ4BhkQAwBKqqnqo9AxcX1VVD5aeAYZEAMAScs6/XHoGri/G6NrAEgQALOcvlR6AG7qv9AAwJAIAlpBSurf0DFxfjNG1gSUIAFhCjPE9pWfg+lJK7y49AwyJAIAlpJTuKj0D1+fawHIEACwhxnhL6Rm4vhjjudIzwJAIAFjQM888876UUlV6Dq4vpVQ9+eSTHyg9BwyFAIAF5ZwfKT0DN3fu3LmHS88AQyEAYEE554+XnoGb67rONYIFCQBYUErpI6Vn4OZijB8uPQMMhQCABaWUPlh6Bk70wdIDwFDslx4AhuKWW26JZ86cKT0GN7G3txdLzwBDIQBgQXfccYdPzPrPNYIF+WaBxbnFrP9cI1iQAIAFfPnLXz4XQnAMcP+968KFC7eVHgKGQADAAg4ODu4NITgEqP+qvb2995ceAoZAAMACYow+Wh4I1woWIwBgAVVVeVEZCNcKFiMAYAE5Zy8qA+FawWIEACzGi8pwuFawAAEAi/GiMhyuFSxAAMBivKgMh2sFCxAAcIKvfvWreyGE95Weg4W978KFC045hRMIADjB97///feGEDwEYDj29vf3BRucQADACbqu85HywLhmcDIBACdwX/nwuGZwMgEAJ7u39AAszTWDEwgAOIGDZYbHNYOTCQA4mReT4XHN4AQCAE7mxWR4XDM4gQCAk/n35OHx+GY4gW8QivnOd75zx5133tnrA1u+973vveMnP/nJD0rPwfLuueeeD99///1/VnqOmzk8POweffTRo9JzME4CgK3JOVff/e53z6eU/k5VVX81hPBzpWeCHpjmnP9wMpn86wceeOA/VFWVSw/EOAgAtuL5559/z/7+/n8MITxaehbosT/suu78Jz/5yf9XehB2nwBg45577rm7z549+3wI4b7Ss8AA/KBpmk9+6lOfulR6EHabJUA27uzZs/8qePGHRd139uzZf1F6CHafTwDYqBdeeOH+qqpeDP5fg2XklNIDDz/88H8vPQi7yycAbFRVVZ8PXvxhWdVkMvl86SHYbQKAjco5/5XSM8AQVVXle4eNEgBsVFVVbys9AwxRzvnu0jOw2wQAG5Vz7vVBLNBXOeeflZ6B3SYA2KjJZPJ86RlgiKqqeq70DOw2AcBG5Zz/fQihLT0HDEybc/5q6SHYbQKAjXrwwQf/JITgnmZYQs75Kw899ND/KT0Hu00AsHF33XXXP6yq6g9KzwFDUFXVH9x2222/XXoOdp8AYOPuu++++eHh4W/knH8vhJBKzwM9lXLOv3d4ePgbH/3oR5vSw7D7HNDCVr344osfyzn/7RDCr4YQ3htCuKXwSFBSnXP+v1VVfbuqqn/ziU984o9LDwQAAAAAAAAAAAAAAAAAAAAAAAAAAAAAAAAAAAAAAAAAAAAAAAAAAAAAAAAAAAAAAAAAAAAAAAAAAAAAAAAAAAAAAAAAAAAAAAAAAAAAAAAAAAAAAAAAAAAAAAAAAAAAAAAAAAD8f4b7+8zLFh+kAAAAAElFTkSuQmCC;" parent="1" vertex="1">
          <mxGeometry x="110" y="50" width="170" height="170" as="geometry" />
        </mxCell>
        <mxCell id="oMMCGzu5jU7tzmJ9BOZd-3" value="" style="shape=image;verticalLabelPosition=bottom;labelBackgroundColor=default;verticalAlign=top;aspect=fixed;imageAspect=0;image=data:image/png,iVBORw0KGgoAAAANSUhEUgAAAgAAAAIACAYAAAD0eNT6AAAABHNCSVQICAgIfAhkiAAAAAlwSFlzAAAOxAAADsQBlSsOGwAAABl0RVh0U29mdHdhcmUAd3d3Lmlua3NjYXBlLm9yZ5vuPBoAABgQSURBVHic7d1brGX3fdDx/9rnzIzt+pI4N0gcJ01rEpQ2wY4vaWRo3IfSEMVVHyZIvCCEhBU5lmURqCr1YSQeeIAXIiKgL4gHJAiISFSKUCTiNI1cI8sRKUKgRCUXmUaknhmfc2afvfZa6///8+BLPZ7L2Xufvfd/rb0+nyfPTfrpLJ/Z373nt/4rBAAAAAAAAAAAAAAAAAAAAAAAAAAAAAAAAAAAAAAAAAAAAAAAAAAAAAAAAAAAAAAAAAAAAAAAAAAAAAAAAAAAAAAAAAAAAAAAAAAAAAAAAAAAAAAAAAAAAAAAAAAAAAAAAAAAAK6vWuQ3ffazn317VVV/YzKZ/HrO+QMhhPeEEN696J8HKKVt2/0rV67cXnoO2JSqqtqqqo4nk8nFqqr+y6233vpPvv71r//4xD93s1/83Oc+95Gqqv5Rzvk3Qwhn1jYtwBbknMPh4WGIMZYeBbZqf3//pb29vb/7zW9+8xs3+j3XDYDz58/fWtf1Pw0h/L0Qwv6mBgTYpLquw/HxcekxoJizZ8/+cc75V7/1rW+98tZfuyYAHn/88ffmnL8WQnh4K9MBbEBKKRwcHIScc+lRoKi9vb3ZLbfc8tg3vvGN//bmn78qAD7zmc/cc+bMmT/KOd+z3fEA1uvKlSuhaZrSY0AvTCaTuL+//8izzz774hs/9/p/nD9//tb9/f3/5MUfGLq2bb34w5uklPa6rvv2pz/96Xe+/nNvBMBsNvvnIYSHikwGsEb+3R+ulVK6Lef87dd/vBdCCI8//vjHQgj/MritDxi42Wzm3T/cQM75XR/60If+949+9KP/OXntJ/5xeNOnAQBDlFIKdV2XHgN6K+cccs7/LIQQqte2/l8K3v0DA3d0dBTati09BvRaVVXh1ltvvX8SQvjN4MUfGLimabz4wwJyziGl9PcnOee/XnoYgNPIOYfZbFZ6DBiMrut+bRJC+PnSgwCcRl3XjvuFJeSc3z4JIfzF0oMArCrG6N0/LCmldG4SQnhH6UEAVuWef1jJZBLc/gcMlMU/WE3O2Ys/MEw5Z+/+4RQEADBIs9kspJRKjwGDJQCAwYkxhvl8XnoMGDQBAAzO8fFxyDmXHgMGTQAAg2LxD9ZDAACDYfEP1kcAAINh8Q/WRwAAg9B1nUf9whoJAGAQHPcL6yUAgN6bz+cW/2DNBADQaxb/YDMEANBr7vmHzRAAQG858Q82RwAAvZRzDtPptPQYsLMEANBLTdOErutKjwE7SwAAvZNSsvgHGyYAgN6ZzWYW/2DDBADQK13XhaZpSo8BO08AAL0ynU69+4ctEABAb9R1HWKMpceAURAAQC+klJz3D1skAIBecOIfbJcAAIqz+AfbJwCA4pz4B9snAICiLP5BGQIAKMbiH5QjAIBiLP5BOQIAKKJtW4t/UJAAALYu5+xhP1CYAAC2zuIflCcAgK2y+Af9IACArfLRP/SDAAC2xuIf9IcAALYi5+zEP+gRAQBsRV3XIaVUegzgNQIA2LgYo8U/6BkBAGycF3/oHwEAbFTTNBb/oIcEALAxOWfv/qGnBACwMbPZzIl/0FMCANiIlFKo67r0GMANCABgI9zzD/0mAIC1a5omtG1begzgJgQAsFYe9QvDIACAtZrNZk78gwEQAMDaxBjDfD4vPQawAAEArM10Og0559JjAAsQAMBazOfz0HVd6TGABQkA4NSc+AfDIwCAUzs+Prb4BwMjAIBTsfgHwyQAgJXlnJ34BwMlAICVWfyD4RIAwEos/sGwCQBgJcfHx+75hwETAMDSuq4LTdOUHgM4BQEALOX1h/149w/DJgCApVj8g90gAICFpZQs/sGOEADAwnz0D7tDAAALsfgHu0UAAAtx4h/sFgEAnKiu6xBjLD0GsEYCALipnHOo67r0GMCaCQDgpqbTqUf9wg4SAMANWfyD3SUAgOvyqF/YbQIAuC6Lf7DbBABwjZSSxT/YcQIAuMZ0OnXiH+w4AQBcpW3b0LZt6TGADRMAwFUs/sE4CADgDbPZzD3/MBICAAghWPyDsREAQAjB4h+MjQAAQtM0Fv9gZAQAjFzOORwfH5ceA9gyAQAjV9e1xT8YIQEAI5ZSCrPZrPQYQAECAEbMPf8wXgIARsriH4ybAIARsvgHCAAYISf+AQIARibGGObzeekxgMIEAIzM8fGxE/8AAQBjMp/PLf4BIQQBAKORc3bPP/AGAQAjYfEPeDMBACPQdZ1H/QJXEQAwAu75B95KAMCOm8/noeu60mMAPSMAYIc58Q+4EQEAO8w9/8CNCADYUU78A25GAMAOyjl71C9wUwIAdpDFP+AkAgB2TErJPf/AiQQA7Bgn/gGLEACwQ9q2tfgHLEQAwA5xzz+wKAEAO6Ku6xBjLD0GMBACAHZASsmjfoGlCADYAU78A5YlAGDguq4LTdOUHgMYGAEAA2fxD1iFAIABm81mTvwDViIAYKCc+AechgCAgbL4B5yGAIABatvW4h9wKgIABibnbPEPODUBAAMzn8+d+AecmgCAAUkpefcPrIUAgAGZTqelRwB2hACAgWjbNrRtW3oMYEcIABiAnLN3/8BaCQAYgLquQ0qp9BjADhEA0HMxRo/6BdZOAEDP2foHNkEAQI81TWPxD9gIAQA9lXP20T+wMQIAeqquayf+ARsjAKCHUkre/QMbJQCgh9zzD2yaAICesfgHbIMAgB7xqF9gWwQA9MhsNnPiH7AVAgB6IsYY5vN56TGAkRAA0BPT6TTknEuPAYyEAIAemM/noeu60mMAIyIAoDD3/AMlCAAozOIfUIIAgIIs/gGlCAAoJOfsxD+gGAEAhTRNY/EPKEYAQAFO/ANKEwBQwPHxsXv+gaIEAGxZ13WhaZrSYwAjJwBgy7z7B/pAAMAW1XVt8Q/oBQEAW+LEP6BPBABsiY/+gT4RALAFFv+AvhEAsAVO/AP6RgDAhtV1HWKMpccAuIoAgA3KOYe6rkuPAXANAQAbNJ1OPeoX6CUBABvStq3FP6C3BABsgIf9AH0nAGADLP4BfScAYM2c+AcMgQCANXPPPzAEAgDWqG3b0LZt6TEATiQAYI28+weGQgDAmsxmM/f8A4MhAGANYowW/4BBEQCwBu75B4ZGAMApWfwDhkgAwCnknC3+AYMkAOAU6rq2+AcMkgCAFTnxDxgyAQAr8tE/MGQCAFbQNI3FP2DQBAAsyaN+gV0gAGBJTvwDdoEAgCXEGMN8Pi89BsCpCQBYwvHxccg5lx4D4NQEACzI4h+wSwQALMDiH7BrBAAswOIfsGsEAJyg67pQ13XpMQDWSgDACXz0D+wiAQA3MZ/PQ9d1pccAWDsBADdg8Q/YZQIAbsA9/8AuEwBwHV3XhaZpSo8BsDECAN7i9Y/+vfsHdpkAgLdomsbiH7DzBAC8SUopzGaz0mMAbJwAgDdx4h8wFgIAXtN1nUf9AqMhAOA10+m09AgAWyMAIIRQ13WIMZYeA2BrBACjl3P2sB9gdAQAozedTi3+AaMjABi1tm2d+AeMkgBg1NzzD4yVAGC0ZrOZE/+A0RIAjFJKyeIfMGoCgFHysB9g7AQAo2PxD0AAMDKvP+oXYOwEAKPixD+AVwkARsOjfgH+nABgNDzsB+DPCQBGoW3b0LZt6TEAekMAsPNyzt79A7yFAGDnzWYzD/sBeAsBwE6LMTrxD+A6BAA7zT3/ANcnANhZTdNY/AO4AQHATnLiH8DNCQB2Ul3XFv8AbkIAsHMs/gGcTACwczzqF+BkAoCdYvEPYDECgJ1h8Q9gcQKAneHEP4DFCQB2QowxzOfz0mMADIYAYCdMp1OLfwBLEAAM3nw+D13XlR4DYFAEAIOWcw6z2az0GACDIwAYNIt/AKsRAAyWE/8AVicAGKScc5hOp6XHABgsAcAgNU1j8Q/gFAQAg5NScuIfwCkJAAZnNpu55x/glAQAg9J1XWiapvQYAIMnABgUj/oFWA8BwGDUdW3xD2BNBACDkFJy4h/AGgkABsHiH8B6CQB6r+s6j/oFWDMBQO858Q9g/QQAvVbXdYgxlh4DYOcIAHrLo34BNkcA0FvT6dTiH8CGCAB6qW1bJ/4BbJAAoHdyzh72A7BhAoDesfgHsHkCgF5x4h/AdggAesVH/wDbIQDoDYt/ANsjAOgNJ/4BbI8AoBdms1lIKZUeA2A0BADFxRgt/gFsmQCgOC/+ANsnACjK4h9AGQKAYpz4B1COAKCY2WzmxD+AQgQARaSUQl3XpccAGC0BQBHu+QcoSwCwdU3ThLZtS48BMGoCgK2y+AfQDwKArXLiH0A/CAC2JsYY5vN56TEACAKALZpOpyHnXHoMAIIAYEuapgld15UeA4DXCAA2zuIfQP8IADbO4h9A/wgANqrrOif+AfSQAGBjfPQP0F8CgI2x+AfQXwKAjfDuH6DfBAAbcXx87J5/gB4TAKxd13WhaZrSYwBwEwKAtXr9o3/v/gH6TQCwVhb/AIZBALA2KSWLfwADIQBYm9ls5qN/gIGovva1rz03n8/vaprmzrZt7+q67vYQQlV6MIZlb28vnD17tvQYACxo//3vf/+vlB6C4fvpT39q8x9gQPwTAKd2eHjoxR9gYAQApxJjDAcHB6XHAGBJAoBTuXz5skf9AgyQAGBldV2H6XRaegwAViAAWEnOOVy6dKn0GACsSACwkqOjo9C2bekxAFiRAGBpFv8Ahk8AsLRLly5Z/AMYOAHAUuq6dt4/wA4QACzM4h/A7hAALOzw8NDiH8COEAAspOu6cHh4WHoMANZEALAQJ/4B7BYBwIlms5nFP4AdIwC4KYt/ALtJAHBTBwcHoeu60mMAsGYCgBtq29biH8COEgDc0OXLl0POufQYAGyAAOC6jo+Pw2w2Kz0GABsiALhGzjlcvny59BgAbJAA4BoW/wB2nwDgKk3TWPwDGAEBwFUs/gGMgwDgDdPpNNR1XXoMALZAABBCsPgHMDYCgBBCCK+88kqIMZYeA4AtEQCEtm3D0dFR6TEA2CIBQLh48aLFP4CREQAjd+XKlTCfz0uPAcCWCYARSymFV155pfQYABQgAEbs8uXLFv8ARkoAjFTTNOHKlSulxwCgkEkIwVvAkck5h4sXL5YeA4CCJiGEPys9BNs1nU5D0zSlxwCgkKqqwiSE8KelB2F7UkpO/AMYuaqq8iSE8CelB2F7Ll++HFJKpccAoKCu6+pJVVVfLz0I29E0TZhOp6XHAKCw6XT6/KTrut8PIXSlh2HznPgHQAghTKfT365CCOGFF174d1VV/c3SA7E5R0dH4dKlS6XHAKCwlNL0/Pnzt09e+8HvhBCshe8oJ/4BEMKr2/8vv/zyEyG8dhDQI4888sMQwpeLTsXGWPwDIIQQ6rr+0y984Qv/NoQ3nQR4dHT0OyGEbxabio2Yz+dO/AMghBDay5cvf/j1H7wRAI899lgXY/x8COF/FRmLtXPiHwAhhDCZTPJLL730K08++eQb7wivehbAI488crGu60dyzr+//fFYt6Ojo9C2bekxACir+dnPfvbxp59++sU3/+Q1DwN69NFHj374wx/+Vs75d0MIPjseqBhjODg4KD0GAIVUVRXquv7Bj3/847c98cQT/+OaX7/ZH37++effc+bMmd/NOf+tEMLdG5uStXv55Zcd+gMwQpPJJMzn85cPDg5+64knnvjOjX7fTQPgdc8+++z+nXfe+ddyzr8eQrg3hHBPCOHdIYQz6xmXdZrNZrdfvHjxXaXnGIuc80LfR6xXVVVOtYIQQs45tm0777ruYDqd/uemaf7Bm/+t/0b8xQWn9MUvfvG/TqfTXys9x5jcdttt3/rKV77yWOk5YMiu2QEAlhNjvKf0DGOTUnpf6Rlg6AQAnFJK6Z2lZxibnLOvOZySAIBTSindUXqGsYkx3l56Bhg6AQCnM4kxWobdshjjmQsXLuyXngOGTADAKTz99NO/5BHL25dzDoeHh79ceg4YMgEAp1BV1YOlZxgxX3s4BQEApxBj9C60kKZpfO3hFAQAnM59pQcYsV8sPQAMmQCAU4gx3lt6hrFKKfnawykIADiFlNK7S88wVr72cDoCAE4hpXRX6RnGKqV0Z+kZYMgEAJxC13XnSs8wVl3XnS09AwyZAIAVPfnkkx/wJMBycs7VU0899Qul54ChEgCwonPnzj1ceoax29vbcw1gRQIAVtR13cdLzzB2Xdd9rPQMMFQCAFYUY/xw6RkIrgGsSADA6j5YeoCxSyl9oPQMMFQCAFYUY/wLpWcYu5yzawArEgCwopTS20vPMHYxxreVngGGSgDAilJKt5aeYexijLeUngGGSgDACp555pm7Y4y+fwpLKU2+9KUvORIYVuAvMFiN+8/746HSA8AQCQBYQYzx/tIz8Kr5fO5awAoEAKwg5/yXS8/AGz5SegAYIgEAK0gp/XzpGXiVawGrEQCwgpzze0vPwKtSSq4FrEAAwApijO8oPQOvSindXXoGGCIBACtIKf1c6Rl4VYzRtYAVCABY0lNPPXWu67r90nPwqhjj3oULF24rPQcMjQCAJe3t7T1QegaudnBw8InSM8DQCABYUs7Zi03PxBhFGSxJAMCScs4fLT0DV3NNYHkCAJaUUvrF0jNwtZzzL5SeAYZGAMCSUkr3lJ6Bq8UYXRNYkgCAJaWU3lV6Bq6WUnpn6RlgaAQALCnGeEfpGbhaSsk1gSUJAFjOJMZ4tvQQXK3rujPB32ewFN8wsISnnnrqIznn0mNwHU8//fQvlZ4BhkQAwBKqqnqo9AxcX1VVD5aeAYZEAMAScs6/XHoGri/G6NrAEgQALOcvlR6AG7qv9AAwJAIAlpBSurf0DFxfjNG1gSUIAFhCjPE9pWfg+lJK7y49AwyJAIAlpJTuKj0D1+fawHIEACwhxnhL6Rm4vhjjudIzwJAIAFjQM888876UUlV6Dq4vpVQ9+eSTHyg9BwyFAIAF5ZwfKT0DN3fu3LmHS88AQyEAYEE554+XnoGb67rONYIFCQBYUErpI6Vn4OZijB8uPQMMhQCABaWUPlh6Bk70wdIDwFDslx4AhuKWW26JZ86cKT0GN7G3txdLzwBDIQBgQXfccYdPzPrPNYIF+WaBxbnFrP9cI1iQAIAFfPnLXz4XQnAMcP+968KFC7eVHgKGQADAAg4ODu4NITgEqP+qvb2995ceAoZAAMACYow+Wh4I1woWIwBgAVVVeVEZCNcKFiMAYAE5Zy8qA+FawWIEACzGi8pwuFawAAEAi/GiMhyuFSxAAMBivKgMh2sFCxAAcIKvfvWreyGE95Weg4W978KFC045hRMIADjB97///feGEDwEYDj29vf3BRucQADACbqu85HywLhmcDIBACdwX/nwuGZwMgEAJ7u39AAszTWDEwgAOIGDZYbHNYOTCQA4mReT4XHN4AQCAE7mxWR4XDM4gQCAk/n35OHx+GY4gW8QivnOd75zx5133tnrA1u+973vveMnP/nJD0rPwfLuueeeD99///1/VnqOmzk8POweffTRo9JzME4CgK3JOVff/e53z6eU/k5VVX81hPBzpWeCHpjmnP9wMpn86wceeOA/VFWVSw/EOAgAtuL5559/z/7+/n8MITxaehbosT/suu78Jz/5yf9XehB2nwBg45577rm7z549+3wI4b7Ss8AA/KBpmk9+6lOfulR6EHabJUA27uzZs/8qePGHRd139uzZf1F6CHafTwDYqBdeeOH+qqpeDP5fg2XklNIDDz/88H8vPQi7yycAbFRVVZ8PXvxhWdVkMvl86SHYbQKAjco5/5XSM8AQVVXle4eNEgBsVFVVbys9AwxRzvnu0jOw2wQAG5Vz7vVBLNBXOeeflZ6B3SYA2KjJZPJ86RlgiKqqeq70DOw2AcBG5Zz/fQihLT0HDEybc/5q6SHYbQKAjXrwwQf/JITgnmZYQs75Kw899ND/KT0Hu00AsHF33XXXP6yq6g9KzwFDUFXVH9x2222/XXoOdp8AYOPuu++++eHh4W/knH8vhJBKzwM9lXLOv3d4ePgbH/3oR5vSw7D7HNDCVr344osfyzn/7RDCr4YQ3htCuKXwSFBSnXP+v1VVfbuqqn/ziU984o9LDwQAAAAAAAAAAAAAAAAAAAAAAAAAAAAAAAAAAAAAAAAAAAAAAAAAAAAAAAAAAAAAAAAAAAAAAAAAAAAAAAAAAAAAAAAAAAAAAAAAAAAAAAAAAAAAAAAAAAAAAAAAAAAAAAAAAAD8f4b7+8zLFh+kAAAAAElFTkSuQmCC;" parent="1" vertex="1">
          <mxGeometry x="120" y="340" width="170" height="170" as="geometry" />
        </mxCell>
        <mxCell id="5aWrAIKVMlBQY42iL_i9-8" style="edgeStyle=orthogonalEdgeStyle;rounded=0;orthogonalLoop=1;jettySize=auto;html=1;entryX=0.5;entryY=1;entryDx=0;entryDy=0;strokeWidth=2;" edge="1" parent="1" source="oMMCGzu5jU7tzmJ9BOZd-4" target="5aWrAIKVMlBQY42iL_i9-3">
          <mxGeometry relative="1" as="geometry" />
        </mxCell>
        <mxCell id="oMMCGzu5jU7tzmJ9BOZd-4" value="" style="shape=image;verticalLabelPosition=bottom;labelBackgroundColor=default;verticalAlign=top;aspect=fixed;imageAspect=0;image=data:image/png,iVBORw0KGgoAAAANSUhEUgAAAgAAAAIACAYAAAD0eNT6AAAABHNCSVQICAgIfAhkiAAAAAlwSFlzAAAOxAAADsQBlSsOGwAAABl0RVh0U29mdHdhcmUAd3d3Lmlua3NjYXBlLm9yZ5vuPBoAABgQSURBVHic7d1brGX3fdDx/9rnzIzt+pI4N0gcJ01rEpQ2wY4vaWRo3IfSEMVVHyZIvCCEhBU5lmURqCr1YSQeeIAXIiKgL4gHJAiISFSKUCTiNI1cI8sRKUKgRCUXmUaknhmfc2afvfZa6///8+BLPZ7L2Xufvfd/rb0+nyfPTfrpLJ/Z373nt/4rBAAAAAAAAAAAAAAAAAAAAAAAAAAAAAAAAAAAAAAAAAAAAAAAAAAAAAAAAAAAAAAAAAAAAAAAAAAAAAAAAAAAAAAAAAAAAAAAAAAAAAAAAAAAAAAAAAAAAAAAAAAAAAAAAAAAAK6vWuQ3ffazn317VVV/YzKZ/HrO+QMhhPeEEN696J8HKKVt2/0rV67cXnoO2JSqqtqqqo4nk8nFqqr+y6233vpPvv71r//4xD93s1/83Oc+95Gqqv5Rzvk3Qwhn1jYtwBbknMPh4WGIMZYeBbZqf3//pb29vb/7zW9+8xs3+j3XDYDz58/fWtf1Pw0h/L0Qwv6mBgTYpLquw/HxcekxoJizZ8/+cc75V7/1rW+98tZfuyYAHn/88ffmnL8WQnh4K9MBbEBKKRwcHIScc+lRoKi9vb3ZLbfc8tg3vvGN//bmn78qAD7zmc/cc+bMmT/KOd+z3fEA1uvKlSuhaZrSY0AvTCaTuL+//8izzz774hs/9/p/nD9//tb9/f3/5MUfGLq2bb34w5uklPa6rvv2pz/96Xe+/nNvBMBsNvvnIYSHikwGsEb+3R+ulVK6Lef87dd/vBdCCI8//vjHQgj/MritDxi42Wzm3T/cQM75XR/60If+949+9KP/OXntJ/5xeNOnAQBDlFIKdV2XHgN6K+cccs7/LIQQqte2/l8K3v0DA3d0dBTati09BvRaVVXh1ltvvX8SQvjN4MUfGLimabz4wwJyziGl9PcnOee/XnoYgNPIOYfZbFZ6DBiMrut+bRJC+PnSgwCcRl3XjvuFJeSc3z4JIfzF0oMArCrG6N0/LCmldG4SQnhH6UEAVuWef1jJZBLc/gcMlMU/WE3O2Ys/MEw5Z+/+4RQEADBIs9kspJRKjwGDJQCAwYkxhvl8XnoMGDQBAAzO8fFxyDmXHgMGTQAAg2LxD9ZDAACDYfEP1kcAAINh8Q/WRwAAg9B1nUf9whoJAGAQHPcL6yUAgN6bz+cW/2DNBADQaxb/YDMEANBr7vmHzRAAQG858Q82RwAAvZRzDtPptPQYsLMEANBLTdOErutKjwE7SwAAvZNSsvgHGyYAgN6ZzWYW/2DDBADQK13XhaZpSo8BO08AAL0ynU69+4ctEABAb9R1HWKMpceAURAAQC+klJz3D1skAIBecOIfbJcAAIqz+AfbJwCA4pz4B9snAICiLP5BGQIAKMbiH5QjAIBiLP5BOQIAKKJtW4t/UJAAALYu5+xhP1CYAAC2zuIflCcAgK2y+Af9IACArfLRP/SDAAC2xuIf9IcAALYi5+zEP+gRAQBsRV3XIaVUegzgNQIA2LgYo8U/6BkBAGycF3/oHwEAbFTTNBb/oIcEALAxOWfv/qGnBACwMbPZzIl/0FMCANiIlFKo67r0GMANCABgI9zzD/0mAIC1a5omtG1begzgJgQAsFYe9QvDIACAtZrNZk78gwEQAMDaxBjDfD4vPQawAAEArM10Og0559JjAAsQAMBazOfz0HVd6TGABQkA4NSc+AfDIwCAUzs+Prb4BwMjAIBTsfgHwyQAgJXlnJ34BwMlAICVWfyD4RIAwEos/sGwCQBgJcfHx+75hwETAMDSuq4LTdOUHgM4BQEALOX1h/149w/DJgCApVj8g90gAICFpZQs/sGOEADAwnz0D7tDAAALsfgHu0UAAAtx4h/sFgEAnKiu6xBjLD0GsEYCALipnHOo67r0GMCaCQDgpqbTqUf9wg4SAMANWfyD3SUAgOvyqF/YbQIAuC6Lf7DbBABwjZSSxT/YcQIAuMZ0OnXiH+w4AQBcpW3b0LZt6TGADRMAwFUs/sE4CADgDbPZzD3/MBICAAghWPyDsREAQAjB4h+MjQAAQtM0Fv9gZAQAjFzOORwfH5ceA9gyAQAjV9e1xT8YIQEAI5ZSCrPZrPQYQAECAEbMPf8wXgIARsriH4ybAIARsvgHCAAYISf+AQIARibGGObzeekxgMIEAIzM8fGxE/8AAQBjMp/PLf4BIQQBAKORc3bPP/AGAQAjYfEPeDMBACPQdZ1H/QJXEQAwAu75B95KAMCOm8/noeu60mMAPSMAYIc58Q+4EQEAO8w9/8CNCADYUU78A25GAMAOyjl71C9wUwIAdpDFP+AkAgB2TErJPf/AiQQA7Bgn/gGLEACwQ9q2tfgHLEQAwA5xzz+wKAEAO6Ku6xBjLD0GMBACAHZASsmjfoGlCADYAU78A5YlAGDguq4LTdOUHgMYGAEAA2fxD1iFAIABm81mTvwDViIAYKCc+AechgCAgbL4B5yGAIABatvW4h9wKgIABibnbPEPODUBAAMzn8+d+AecmgCAAUkpefcPrIUAgAGZTqelRwB2hACAgWjbNrRtW3oMYEcIABiAnLN3/8BaCQAYgLquQ0qp9BjADhEA0HMxRo/6BdZOAEDP2foHNkEAQI81TWPxD9gIAQA9lXP20T+wMQIAeqquayf+ARsjAKCHUkre/QMbJQCgh9zzD2yaAICesfgHbIMAgB7xqF9gWwQA9MhsNnPiH7AVAgB6IsYY5vN56TGAkRAA0BPT6TTknEuPAYyEAIAemM/noeu60mMAIyIAoDD3/AMlCAAozOIfUIIAgIIs/gGlCAAoJOfsxD+gGAEAhTRNY/EPKEYAQAFO/ANKEwBQwPHxsXv+gaIEAGxZ13WhaZrSYwAjJwBgy7z7B/pAAMAW1XVt8Q/oBQEAW+LEP6BPBABsiY/+gT4RALAFFv+AvhEAsAVO/AP6RgDAhtV1HWKMpccAuIoAgA3KOYe6rkuPAXANAQAbNJ1OPeoX6CUBABvStq3FP6C3BABsgIf9AH0nAGADLP4BfScAYM2c+AcMgQCANXPPPzAEAgDWqG3b0LZt6TEATiQAYI28+weGQgDAmsxmM/f8A4MhAGANYowW/4BBEQCwBu75B4ZGAMApWfwDhkgAwCnknC3+AYMkAOAU6rq2+AcMkgCAFTnxDxgyAQAr8tE/MGQCAFbQNI3FP2DQBAAsyaN+gV0gAGBJTvwDdoEAgCXEGMN8Pi89BsCpCQBYwvHxccg5lx4D4NQEACzI4h+wSwQALMDiH7BrBAAswOIfsGsEAJyg67pQ13XpMQDWSgDACXz0D+wiAQA3MZ/PQ9d1pccAWDsBADdg8Q/YZQIAbsA9/8AuEwBwHV3XhaZpSo8BsDECAN7i9Y/+vfsHdpkAgLdomsbiH7DzBAC8SUopzGaz0mMAbJwAgDdx4h8wFgIAXtN1nUf9AqMhAOA10+m09AgAWyMAIIRQ13WIMZYeA2BrBACjl3P2sB9gdAQAozedTi3+AaMjABi1tm2d+AeMkgBg1NzzD4yVAGC0ZrOZE/+A0RIAjFJKyeIfMGoCgFHysB9g7AQAo2PxD0AAMDKvP+oXYOwEAKPixD+AVwkARsOjfgH+nABgNDzsB+DPCQBGoW3b0LZt6TEAekMAsPNyzt79A7yFAGDnzWYzD/sBeAsBwE6LMTrxD+A6BAA7zT3/ANcnANhZTdNY/AO4AQHATnLiH8DNCQB2Ul3XFv8AbkIAsHMs/gGcTACwczzqF+BkAoCdYvEPYDECgJ1h8Q9gcQKAneHEP4DFCQB2QowxzOfz0mMADIYAYCdMp1OLfwBLEAAM3nw+D13XlR4DYFAEAIOWcw6z2az0GACDIwAYNIt/AKsRAAyWE/8AVicAGKScc5hOp6XHABgsAcAgNU1j8Q/gFAQAg5NScuIfwCkJAAZnNpu55x/glAQAg9J1XWiapvQYAIMnABgUj/oFWA8BwGDUdW3xD2BNBACDkFJy4h/AGgkABsHiH8B6CQB6r+s6j/oFWDMBQO858Q9g/QQAvVbXdYgxlh4DYOcIAHrLo34BNkcA0FvT6dTiH8CGCAB6qW1bJ/4BbJAAoHdyzh72A7BhAoDesfgHsHkCgF5x4h/AdggAesVH/wDbIQDoDYt/ANsjAOgNJ/4BbI8AoBdms1lIKZUeA2A0BADFxRgt/gFsmQCgOC/+ANsnACjK4h9AGQKAYpz4B1COAKCY2WzmxD+AQgQARaSUQl3XpccAGC0BQBHu+QcoSwCwdU3ThLZtS48BMGoCgK2y+AfQDwKArXLiH0A/CAC2JsYY5vN56TEACAKALZpOpyHnXHoMAIIAYEuapgld15UeA4DXCAA2zuIfQP8IADbO4h9A/wgANqrrOif+AfSQAGBjfPQP0F8CgI2x+AfQXwKAjfDuH6DfBAAbcXx87J5/gB4TAKxd13WhaZrSYwBwEwKAtXr9o3/v/gH6TQCwVhb/AIZBALA2KSWLfwADIQBYm9ls5qN/gIGovva1rz03n8/vaprmzrZt7+q67vYQQlV6MIZlb28vnD17tvQYACxo//3vf/+vlB6C4fvpT39q8x9gQPwTAKd2eHjoxR9gYAQApxJjDAcHB6XHAGBJAoBTuXz5skf9AgyQAGBldV2H6XRaegwAViAAWEnOOVy6dKn0GACsSACwkqOjo9C2bekxAFiRAGBpFv8Ahk8AsLRLly5Z/AMYOAHAUuq6dt4/wA4QACzM4h/A7hAALOzw8NDiH8COEAAspOu6cHh4WHoMANZEALAQJ/4B7BYBwIlms5nFP4AdIwC4KYt/ALtJAHBTBwcHoeu60mMAsGYCgBtq29biH8COEgDc0OXLl0POufQYAGyAAOC6jo+Pw2w2Kz0GABsiALhGzjlcvny59BgAbJAA4BoW/wB2nwDgKk3TWPwDGAEBwFUs/gGMgwDgDdPpNNR1XXoMALZAABBCsPgHMDYCgBBCCK+88kqIMZYeA4AtEQCEtm3D0dFR6TEA2CIBQLh48aLFP4CREQAjd+XKlTCfz0uPAcCWCYARSymFV155pfQYABQgAEbs8uXLFv8ARkoAjFTTNOHKlSulxwCgkEkIwVvAkck5h4sXL5YeA4CCJiGEPys9BNs1nU5D0zSlxwCgkKqqwiSE8KelB2F7UkpO/AMYuaqq8iSE8CelB2F7Ll++HFJKpccAoKCu6+pJVVVfLz0I29E0TZhOp6XHAKCw6XT6/KTrut8PIXSlh2HznPgHQAghTKfT365CCOGFF174d1VV/c3SA7E5R0dH4dKlS6XHAKCwlNL0/Pnzt09e+8HvhBCshe8oJ/4BEMKr2/8vv/zyEyG8dhDQI4888sMQwpeLTsXGWPwDIIQQ6rr+0y984Qv/NoQ3nQR4dHT0OyGEbxabio2Yz+dO/AMghBDay5cvf/j1H7wRAI899lgXY/x8COF/FRmLtXPiHwAhhDCZTPJLL730K08++eQb7wivehbAI488crGu60dyzr+//fFYt6Ojo9C2bekxACir+dnPfvbxp59++sU3/+Q1DwN69NFHj374wx/+Vs75d0MIPjseqBhjODg4KD0GAIVUVRXquv7Bj3/847c98cQT/+OaX7/ZH37++effc+bMmd/NOf+tEMLdG5uStXv55Zcd+gMwQpPJJMzn85cPDg5+64knnvjOjX7fTQPgdc8+++z+nXfe+ddyzr8eQrg3hHBPCOHdIYQz6xmXdZrNZrdfvHjxXaXnGIuc80LfR6xXVVVOtYIQQs45tm0777ruYDqd/uemaf7Bm/+t/0b8xQWn9MUvfvG/TqfTXys9x5jcdttt3/rKV77yWOk5YMiu2QEAlhNjvKf0DGOTUnpf6Rlg6AQAnFJK6Z2lZxibnLOvOZySAIBTSindUXqGsYkx3l56Bhg6AQCnM4kxWobdshjjmQsXLuyXngOGTADAKTz99NO/5BHL25dzDoeHh79ceg4YMgEAp1BV1YOlZxgxX3s4BQEApxBj9C60kKZpfO3hFAQAnM59pQcYsV8sPQAMmQCAU4gx3lt6hrFKKfnawykIADiFlNK7S88wVr72cDoCAE4hpXRX6RnGKqV0Z+kZYMgEAJxC13XnSs8wVl3XnS09AwyZAIAVPfnkkx/wJMBycs7VU0899Qul54ChEgCwonPnzj1ceoax29vbcw1gRQIAVtR13cdLzzB2Xdd9rPQMMFQCAFYUY/xw6RkIrgGsSADA6j5YeoCxSyl9oPQMMFQCAFYUY/wLpWcYu5yzawArEgCwopTS20vPMHYxxreVngGGSgDAilJKt5aeYexijLeUngGGSgDACp555pm7Y4y+fwpLKU2+9KUvORIYVuAvMFiN+8/746HSA8AQCQBYQYzx/tIz8Kr5fO5awAoEAKwg5/yXS8/AGz5SegAYIgEAK0gp/XzpGXiVawGrEQCwgpzze0vPwKtSSq4FrEAAwApijO8oPQOvSindXXoGGCIBACtIKf1c6Rl4VYzRtYAVCABY0lNPPXWu67r90nPwqhjj3oULF24rPQcMjQCAJe3t7T1QegaudnBw8InSM8DQCABYUs7Zi03PxBhFGSxJAMCScs4fLT0DV3NNYHkCAJaUUvrF0jNwtZzzL5SeAYZGAMCSUkr3lJ6Bq8UYXRNYkgCAJaWU3lV6Bq6WUnpn6RlgaAQALCnGeEfpGbhaSsk1gSUJAFjOJMZ4tvQQXK3rujPB32ewFN8wsISnnnrqIznn0mNwHU8//fQvlZ4BhkQAwBKqqnqo9AxcX1VVD5aeAYZEAMAScs6/XHoGri/G6NrAEgQALOcvlR6AG7qv9AAwJAIAlpBSurf0DFxfjNG1gSUIAFhCjPE9pWfg+lJK7y49AwyJAIAlpJTuKj0D1+fawHIEACwhxnhL6Rm4vhjjudIzwJAIAFjQM888876UUlV6Dq4vpVQ9+eSTHyg9BwyFAIAF5ZwfKT0DN3fu3LmHS88AQyEAYEE554+XnoGb67rONYIFCQBYUErpI6Vn4OZijB8uPQMMhQCABaWUPlh6Bk70wdIDwFDslx4AhuKWW26JZ86cKT0GN7G3txdLzwBDIQBgQXfccYdPzPrPNYIF+WaBxbnFrP9cI1iQAIAFfPnLXz4XQnAMcP+968KFC7eVHgKGQADAAg4ODu4NITgEqP+qvb2995ceAoZAAMACYow+Wh4I1woWIwBgAVVVeVEZCNcKFiMAYAE5Zy8qA+FawWIEACzGi8pwuFawAAEAi/GiMhyuFSxAAMBivKgMh2sFCxAAcIKvfvWreyGE95Weg4W978KFC045hRMIADjB97///feGEDwEYDj29vf3BRucQADACbqu85HywLhmcDIBACdwX/nwuGZwMgEAJ7u39AAszTWDEwgAOIGDZYbHNYOTCQA4mReT4XHN4AQCAE7mxWR4XDM4gQCAk/n35OHx+GY4gW8QivnOd75zx5133tnrA1u+973vveMnP/nJD0rPwfLuueeeD99///1/VnqOmzk8POweffTRo9JzME4CgK3JOVff/e53z6eU/k5VVX81hPBzpWeCHpjmnP9wMpn86wceeOA/VFWVSw/EOAgAtuL5559/z/7+/n8MITxaehbosT/suu78Jz/5yf9XehB2nwBg45577rm7z549+3wI4b7Ss8AA/KBpmk9+6lOfulR6EHabJUA27uzZs/8qePGHRd139uzZf1F6CHafTwDYqBdeeOH+qqpeDP5fg2XklNIDDz/88H8vPQi7yycAbFRVVZ8PXvxhWdVkMvl86SHYbQKAjco5/5XSM8AQVVXle4eNEgBsVFVVbys9AwxRzvnu0jOw2wQAG5Vz7vVBLNBXOeeflZ6B3SYA2KjJZPJ86RlgiKqqeq70DOw2AcBG5Zz/fQihLT0HDEybc/5q6SHYbQKAjXrwwQf/JITgnmZYQs75Kw899ND/KT0Hu00AsHF33XXXP6yq6g9KzwFDUFXVH9x2222/XXoOdp8AYOPuu++++eHh4W/knH8vhJBKzwM9lXLOv3d4ePgbH/3oR5vSw7D7HNDCVr344osfyzn/7RDCr4YQ3htCuKXwSFBSnXP+v1VVfbuqqn/ziU984o9LDwQAAAAAAAAAAAAAAAAAAAAAAAAAAAAAAAAAAAAAAAAAAAAAAAAAAAAAAAAAAAAAAAAAAAAAAAAAAAAAAAAAAAAAAAAAAAAAAAAAAAAAAAAAAAAAAAAAAAAAAAAAAAAAAAAAAAD8f4b7+8zLFh+kAAAAAElFTkSuQmCC;" parent="1" vertex="1">
          <mxGeometry x="120" y="630" width="170" height="170" as="geometry" />
        </mxCell>
        <mxCell id="5aWrAIKVMlBQY42iL_i9-1" value="" style="shape=image;verticalLabelPosition=bottom;labelBackgroundColor=default;verticalAlign=top;aspect=fixed;imageAspect=0;image=data:image/png,iVBORw0KGgoAAAANSUhEUgAAAgAAAAIACAYAAAD0eNT6AAAABHNCSVQICAgIfAhkiAAAAAlwSFlzAAALEwAACxMBAJqcGAAAABl0RVh0U29mdHdhcmUAd3d3Lmlua3NjYXBlLm9yZ5vuPBoAAAulSURBVHic7dlBi53lHYfh58w5ycwwYoIxWhVBCrWbLluK2IX72mW7KMW93Wh3DXRRt7VQaEEEG4uLfoDipmtX3UVEW2iCFgwKiUoXykzinHn7CUohIXmS3tf1BX7/xcx77nPe1cGFi8sAko4vvTPG8AiAop3ZBwAAd58AAIAgAQAAQQIAAIIEAAAECQAACBIAABAkAAAgSAAAQJAAAIAgAQAAQQIAAIIEAAAECQAACBIAABAkAAAgSAAAQJAAAIAgAQAAQQIAAIIEAAAECQAACBIAABAkAAAgSAAAQJAAAIAgAQAAQQIAAIIEAAAECQAACBIAABAkAAAgSAAAQJAAAIAgAQAAQQIAAIIEAAAECQAACBIAABAkAAAgSAAAQJAAAIAgAQAAQQIAAIIEAAAECQAACBIAABAkAAAgaDP7gNtx8vAyjl48mra//nBn7P55d9r+j5/6YPzue3+dtv/7f3x//Ob9H0zbhzvltV++OA7292afwT3uwh/eGp989sXsM27ZfR0AY2eMZX/e/LK7mjc+xtjd2Y6zp+cF0P7meNo23EkH+3vjAQHA/7Czc3//iH5/Xw8A3BIBAABBAgAAggQAAAQJAAAIEgAAECQAACBIAABAkAAAgCABAABBAgAAggQAAAQJAAAIEgAAECQAACBIAABAkAAAgCABAABBAgAAggQAAAQJAAAIEgAAECQAACBIAABAkAAAgCABAABBAgAAggQAAAStDi5cXGYfcctWYyx7E88/WY3VjXnzp3e242Bzc9r+0XYzDrenpu1z+44vvTPGuH8fAXfKwd7u2NlZzT6De9yXhzfGsty//z+b2QfclmWM1WH3n/TmyXrcvLk/+wz4v/PV0cSyh7vEKwAACBIAABAkAAAgSAAAQJAAAIAgAQAAQQIAAIIEAAAECQAACBIAABAkAAAgSAAAQJAAAIAgAQAAQQIAAIIEAAAECQAACBIAABAkAAAgSAAAQJAAAIAgAQAAQQIAAIIEAAAECQAACBIAABAkAAAgSAAAQJAAAIAgAQAAQQIAAIIEAAAECQAACBIAABAkAAAgSAAAQJAAAIAgAQAAQQIAAIIEAAAECQAACBIAABAkAAAgSAAAQJAAAIAgAQAAQQIAAII26/XO07PGl+ufPvz1tY//Mpbl3BiLGIG7bPuvv88+AXqWsR0744vVufM/Wp/5xvVZZ6xmDY8xxv7zLzxxcjyuzrwByo4vvzv7BMjarsaT48p70z4DfesGgCABAABBAgAAggQAAAQJAAAIEgAAECQAACBIAABAkAAAgCABAABBAgAAggQAAAQJAAAIEgAAECQAACBIAABAkAAAgCABAABBAgAAggQAAAQJAAAIEgAAECQAACBIAABAkAAAgCABAABBAgAAggQAAAQJAAAIEgAAECQAACBIAABAkAAAgCABAABBAgAAggQAAAQJAAAIEgAAECQAACBIAABAkAAAgCABAABBAgAAggQAAAQJAAAIEgAAECQAACBIAABAkAAAgCABAABBAgAAggQAAAQJAAAIEgAAECQAACBIAABAkAAAgCABAABBAgAAggQAAAQJAAAI2jz46z8+NGv85KPLZ5fPr8+aB9br2RdA15mzZ8YPf/rVrPnN9sbq81nj4/Gnx/rxp6fNQ91yvB1jLLPPgKTNGO+P7bx9rwAAIEgAAECQAACAIAEAAEECAACCBAAABAkAAAgSAAAQJAAAIEgAAECQAACAIAEAAEECAACCBAAABAkAAAgSAAAQJAAAIEgAAECQAACAIAEAAEECAACCBAAABAkAAAgSAAAQJAAAIEgAAECQAACAIAEAAEECAACCBAAABAkAAAgSAAAQJAAAIEgAAECQAACAIAEAAEECAACCBAAABAkAAAgSAAAQJAAAIEgAAECQAACAIAEAAEECAACCBAAABAkAAAgSAAAQtJl9wO04eWQZhy8fTdtfX1mPvTdPT9v/2TffG68/8/a0/Vc/eHa88u5z0/bhTnnrlV+MB/b3Zp/BPe6l374xrl77bPYZt8wvAAAQJAAAIEgAAECQAACAIAEAAEECAACCBAAABAkAAAgSAAAQJAAAIEgAAECQAACAIAEAAEECAACCBAAABAkAAAgSAAAQJAAAIEgAAECQAACAIAEAAEECAACCBAAABAkAAAgSAAAQJAAAIEgAAECQAACAIAEAAEGrgwsXl9lHAHMcX3pnjOERAEV+AQCAIAEAAEECAACCBAAABAkAAAgSAAAQJAAAIEgAAECQAACAIAEAAEECAACCBAAABAkAAAgSAAAQJAAAIEgAAECQAACAIAEAAEECAACCBAAABAkAAAgSAAAQJAAAIEgAAECQAACAIAEAAEECAACCBAAABAkAAAgSAAAQJAAAIEgAAECQAACAIAEAAEECAACCBAAABAkAAAgSAAAQJAAAIEgAAECQAACAIAEAAEECAACCBAAABAkAAAgSAAAQJAAAIEgAAEDQZr27nJs1fvLR5ceOP7/+/qx9qDv+8L3ZJ0DW9szZ74xHHvtk1v5q1vAYY+w//8ITJ8fj6swboOz48ruzT4Cs7Wo8Oa68N+0z0CsAAAgSAAAQJAAAIEgAAECQAACAIAEAAEECAACCBAAABAkAAAgSAAAQJAAAIEgAAECQAACAIAEAAEECAACCBAAABAkAAAgSAAAQJAAAIEgAAECQAACAIAEAAEECAACCBAAABAkAAAgSAAAQJAAAIEgAAECQAACAIAEAAEECAACCBAAABAkAAAgSAAAQJAAAIEgAAECQAACAIAEAAEECAACCBAAABAkAAAgSAAAQJAAAIEgAAECQAACAIAEAAEECAACCBAAABAkAAAgSAAAQJAAAIEgAAECQAACAIAEAAEECAACCBAAABAkAAAgSAAAQJAAAIEgAAECQAACAoM2Dv/rTt2aNL9c/ffjrax9fH8tyboxFjMBdtjq1O/sE6FnGduyML06dO//E+tvfPT3rjM12e/LPWePjoUfH+qFHp81D3XJ0NMZYZp8BNesxxvkxxt+W7fG0I3zrBoAgAQAAQQIAAIIEAAAECQAACBIAABAkAAAgSAAAQJAAAIAgAQAAQQIAAIIEAAAECQAACBIAABAkAAAgSAAAQJAAAIAgAQAAQQIAAIIEAAAECQAACBIAABAkAAAgSAAAQJAAAIAgAQAAQQIAAIIEAAAECQAACBIAABAkAAAgSAAAQJAAAIAgAQAAQQIAAIIEAAAECQAACBIAABAkAAAgSAAAQJAAAIAgAQAAQQIAAIIEAAAECQAACBIAABAkAAAgaDP7gNuyGmPZW+btn6zG6sa8+dM723GwuTlt/2i7GYfbU9P24U452NsdOzur2Wdwj/vy8MZYlomfQbfpvg6Ak/PLOHz5aNr++sp67L15etr+T576YLz+zNvT9l/94NnxyrvPTduHO+W1Cz8fD+zvzT6De9xLv31jXL322ewzbplXAAAQJAAAIEgAAECQAACAIAEAAEECAACCBAAABAkAAAgSAAAQJAAAIEgAAECQAACAIAEAAEECAACCBAAABAkAAAgSAAAQJAAAIEgAAECQAACAIAEAAEECAACCBAAABAkAAAgSAAAQJAAAIEgAAECQAACAoM3sA27LyRirw3nzqxvLvPExxo2T9fj3zb1p+4fH9/efD/w3Xx0ezT6B+8DJycnsE27L6uDCxbmfYsA0x5feGWN4BECRVwAAECQAACBIAABAkAAAgCABAABBAgAAggQAAAQJAAAIEgAAECQAACBIAABAkAAAgCABAABBAgAAggQAAAQJAAAIEgAAECQAACBIAABAkAAAgCABAABBAgAAggQAAAQJAAAIEgAAECQAACBIAABAkAAAgCABAABBAgAAggQAAAQJAAAIEgAAECQAACBIAABAkAAAgCABAABBAgAAggQAAAQJAAAIEgAAECQAACBIAABAkAAAgCABAABBAgAAggQAAAQJAAAI+g+1eOxkbVzMiwAAAABJRU5ErkJggg==;" vertex="1" parent="1">
          <mxGeometry x="1080" y="140" width="140" height="140" as="geometry" />
        </mxCell>
        <mxCell id="5aWrAIKVMlBQY42iL_i9-2" value="" style="shape=image;verticalLabelPosition=bottom;labelBackgroundColor=default;verticalAlign=top;aspect=fixed;imageAspect=0;image=data:image/png,iVBORw0KGgoAAAANSUhEUgAAAgAAAAIACAYAAAD0eNT6AAAABHNCSVQICAgIfAhkiAAAAAlwSFlzAAALEwAACxMBAJqcGAAAABl0RVh0U29mdHdhcmUAd3d3Lmlua3NjYXBlLm9yZ5vuPBoAAAulSURBVHic7dlBi53lHYfh58w5ycwwYoIxWhVBCrWbLluK2IX72mW7KMW93Wh3DXRRt7VQaEEEG4uLfoDipmtX3UVEW2iCFgwKiUoXykzinHn7CUohIXmS3tf1BX7/xcx77nPe1cGFi8sAko4vvTPG8AiAop3ZBwAAd58AAIAgAQAAQQIAAIIEAAAECQAACBIAABAkAAAgSAAAQJAAAIAgAQAAQQIAAIIEAAAECQAACBIAABAkAAAgSAAAQJAAAIAgAQAAQQIAAIIEAAAECQAACBIAABAkAAAgSAAAQJAAAIAgAQAAQQIAAIIEAAAECQAACBIAABAkAAAgSAAAQJAAAIAgAQAAQQIAAIIEAAAECQAACBIAABAkAAAgSAAAQJAAAIAgAQAAQQIAAIIEAAAECQAACBIAABAkAAAgaDP7gNtx8vAyjl48mra//nBn7P55d9r+j5/6YPzue3+dtv/7f3x//Ob9H0zbhzvltV++OA7292afwT3uwh/eGp989sXsM27ZfR0AY2eMZX/e/LK7mjc+xtjd2Y6zp+cF0P7meNo23EkH+3vjAQHA/7Czc3//iH5/Xw8A3BIBAABBAgAAggQAAAQJAAAIEgAAECQAACBIAABAkAAAgCABAABBAgAAggQAAAQJAAAIEgAAECQAACBIAABAkAAAgCABAABBAgAAggQAAAQJAAAIEgAAECQAACBIAABAkAAAgCABAABBAgAAggQAAAStDi5cXGYfcctWYyx7E88/WY3VjXnzp3e242Bzc9r+0XYzDrenpu1z+44vvTPGuH8fAXfKwd7u2NlZzT6De9yXhzfGsty//z+b2QfclmWM1WH3n/TmyXrcvLk/+wz4v/PV0cSyh7vEKwAACBIAABAkAAAgSAAAQJAAAIAgAQAAQQIAAIIEAAAECQAACBIAABAkAAAgSAAAQJAAAIAgAQAAQQIAAIIEAAAECQAACBIAABAkAAAgSAAAQJAAAIAgAQAAQQIAAIIEAAAECQAACBIAABAkAAAgSAAAQJAAAIAgAQAAQQIAAIIEAAAECQAACBIAABAkAAAgSAAAQJAAAIAgAQAAQQIAAIIEAAAECQAACBIAABAkAAAgSAAAQJAAAIAgAQAAQQIAAII26/XO07PGl+ufPvz1tY//Mpbl3BiLGIG7bPuvv88+AXqWsR0744vVufM/Wp/5xvVZZ6xmDY8xxv7zLzxxcjyuzrwByo4vvzv7BMjarsaT48p70z4DfesGgCABAABBAgAAggQAAAQJAAAIEgAAECQAACBIAABAkAAAgCABAABBAgAAggQAAAQJAAAIEgAAECQAACBIAABAkAAAgCABAABBAgAAggQAAAQJAAAIEgAAECQAACBIAABAkAAAgCABAABBAgAAggQAAAQJAAAIEgAAECQAACBIAABAkAAAgCABAABBAgAAggQAAAQJAAAIEgAAECQAACBIAABAkAAAgCABAABBAgAAggQAAAQJAAAIEgAAECQAACBIAABAkAAAgCABAABBAgAAggQAAAQJAAAIEgAAECQAACBIAABAkAAAgCABAABBAgAAggQAAAQJAAAI2jz46z8+NGv85KPLZ5fPr8+aB9br2RdA15mzZ8YPf/rVrPnN9sbq81nj4/Gnx/rxp6fNQ91yvB1jLLPPgKTNGO+P7bx9rwAAIEgAAECQAACAIAEAAEECAACCBAAABAkAAAgSAAAQJAAAIEgAAECQAACAIAEAAEECAACCBAAABAkAAAgSAAAQJAAAIEgAAECQAACAIAEAAEECAACCBAAABAkAAAgSAAAQJAAAIEgAAECQAACAIAEAAEECAACCBAAABAkAAAgSAAAQJAAAIEgAAECQAACAIAEAAEECAACCBAAABAkAAAgSAAAQJAAAIEgAAECQAACAIAEAAEECAACCBAAABAkAAAgSAAAQtJl9wO04eWQZhy8fTdtfX1mPvTdPT9v/2TffG68/8/a0/Vc/eHa88u5z0/bhTnnrlV+MB/b3Zp/BPe6l374xrl77bPYZt8wvAAAQJAAAIEgAAECQAACAIAEAAEECAACCBAAABAkAAAgSAAAQJAAAIEgAAECQAACAIAEAAEECAACCBAAABAkAAAgSAAAQJAAAIEgAAECQAACAIAEAAEECAACCBAAABAkAAAgSAAAQJAAAIEgAAECQAACAIAEAAEGrgwsXl9lHAHMcX3pnjOERAEV+AQCAIAEAAEECAACCBAAABAkAAAgSAAAQJAAAIEgAAECQAACAIAEAAEECAACCBAAABAkAAAgSAAAQJAAAIEgAAECQAACAIAEAAEECAACCBAAABAkAAAgSAAAQJAAAIEgAAECQAACAIAEAAEECAACCBAAABAkAAAgSAAAQJAAAIEgAAECQAACAIAEAAEECAACCBAAABAkAAAgSAAAQJAAAIEgAAECQAACAIAEAAEECAACCBAAABAkAAAgSAAAQJAAAIEgAAEDQZr27nJs1fvLR5ceOP7/+/qx9qDv+8L3ZJ0DW9szZ74xHHvtk1v5q1vAYY+w//8ITJ8fj6swboOz48ruzT4Cs7Wo8Oa68N+0z0CsAAAgSAAAQJAAAIEgAAECQAACAIAEAAEECAACCBAAABAkAAAgSAAAQJAAAIEgAAECQAACAIAEAAEECAACCBAAABAkAAAgSAAAQJAAAIEgAAECQAACAIAEAAEECAACCBAAABAkAAAgSAAAQJAAAIEgAAECQAACAIAEAAEECAACCBAAABAkAAAgSAAAQJAAAIEgAAECQAACAIAEAAEECAACCBAAABAkAAAgSAAAQJAAAIEgAAECQAACAIAEAAEECAACCBAAABAkAAAgSAAAQJAAAIEgAAECQAACAIAEAAEECAACCBAAABAkAAAgSAAAQJAAAIEgAAECQAACAoM2Dv/rTt2aNL9c/ffjrax9fH8tyboxFjMBdtjq1O/sE6FnGduyML06dO//E+tvfPT3rjM12e/LPWePjoUfH+qFHp81D3XJ0NMZYZp8BNesxxvkxxt+W7fG0I3zrBoAgAQAAQQIAAIIEAAAECQAACBIAABAkAAAgSAAAQJAAAIAgAQAAQQIAAIIEAAAECQAACBIAABAkAAAgSAAAQJAAAIAgAQAAQQIAAIIEAAAECQAACBIAABAkAAAgSAAAQJAAAIAgAQAAQQIAAIIEAAAECQAACBIAABAkAAAgSAAAQJAAAIAgAQAAQQIAAIIEAAAECQAACBIAABAkAAAgSAAAQJAAAIAgAQAAQQIAAIIEAAAECQAACBIAABAkAAAgaDP7gNuyGmPZW+btn6zG6sa8+dM723GwuTlt/2i7GYfbU9P24U452NsdOzur2Wdwj/vy8MZYlomfQbfpvg6Ak/PLOHz5aNr++sp67L15etr+T576YLz+zNvT9l/94NnxyrvPTduHO+W1Cz8fD+zvzT6De9xLv31jXL322ewzbplXAAAQJAAAIEgAAECQAACAIAEAAEECAACCBAAABAkAAAgSAAAQJAAAIEgAAECQAACAIAEAAEECAACCBAAABAkAAAgSAAAQJAAAIEgAAECQAACAIAEAAEECAACCBAAABAkAAAgSAAAQJAAAIEgAAECQAACAoM3sA27LyRirw3nzqxvLvPExxo2T9fj3zb1p+4fH9/efD/w3Xx0ezT6B+8DJycnsE27L6uDCxbmfYsA0x5feGWN4BECRVwAAECQAACBIAABAkAAAgCABAABBAgAAggQAAAQJAAAIEgAAECQAACBIAABAkAAAgCABAABBAgAAggQAAAQJAAAIEgAAECQAACBIAABAkAAAgCABAABBAgAAggQAAAQJAAAIEgAAECQAACBIAABAkAAAgCABAABBAgAAggQAAAQJAAAIEgAAECQAACBIAABAkAAAgCABAABBAgAAggQAAAQJAAAIEgAAECQAACBIAABAkAAAgCABAABBAgAAggQAAAQJAAAI+g+1eOxkbVzMiwAAAABJRU5ErkJggg==;" vertex="1" parent="1">
          <mxGeometry x="1080" y="550" width="140" height="140" as="geometry" />
        </mxCell>
        <mxCell id="5aWrAIKVMlBQY42iL_i9-9" style="edgeStyle=orthogonalEdgeStyle;rounded=0;orthogonalLoop=1;jettySize=auto;html=1;entryX=0;entryY=0.5;entryDx=0;entryDy=0;strokeWidth=2;" edge="1" parent="1" source="5aWrAIKVMlBQY42iL_i9-3" target="5aWrAIKVMlBQY42iL_i9-1">
          <mxGeometry relative="1" as="geometry" />
        </mxCell>
        <mxCell id="5aWrAIKVMlBQY42iL_i9-10" style="edgeStyle=orthogonalEdgeStyle;rounded=0;orthogonalLoop=1;jettySize=auto;html=1;entryX=0;entryY=0.629;entryDx=0;entryDy=0;entryPerimeter=0;strokeWidth=2;" edge="1" parent="1" source="5aWrAIKVMlBQY42iL_i9-3" target="5aWrAIKVMlBQY42iL_i9-2">
          <mxGeometry relative="1" as="geometry">
            <mxPoint x="920" y="640" as="targetPoint" />
          </mxGeometry>
        </mxCell>
        <mxCell id="5aWrAIKVMlBQY42iL_i9-3" value="" style="shape=image;verticalLabelPosition=bottom;labelBackgroundColor=default;verticalAlign=top;aspect=fixed;imageAspect=0;image=data:image/png,iVBORw0KGgoAAAANSUhEUgAAAgAAAAIACAYAAAD0eNT6AAAABHNCSVQICAgIfAhkiAAAAAlwSFlzAAAOxAAADsQBlSsOGwAAABl0RVh0U29mdHdhcmUAd3d3Lmlua3NjYXBlLm9yZ5vuPBoAACAASURBVHic7d15lFxlnf/xz/dWdfWWnSQEWbJAFggCWQgBQiDIqMiiAyQwgCj6mx8KzHiYcQCFQUVWHefnOAszjo4gKEhEE5hREUZEFkNIIoshC5CELGQl3Uk63Z3urvv8/kjCCTFAp2t57r3P+3WOR4+H1POp4pvnfureW1USAAAAAAAAAAAAAAAAAAAAAAAAAAAAAAAAAAAAAAAAAAAAAAAAAAAAAAAAAAAAAAAAAAAAAAAAAAAAAAAAAAAAAAAAAAAAAAAAAAAAAAAAAAAAAAAAAAAAAAAAAAAAAADvz3wHCMUl973ap7Or6yyTnS65YyUNk9RPUo3fZAhZc9N23xEQMJNkZrHM2nKRVkVR9Hg+33Xbz66YuNZ3thBQACrswnsWjTK565yziyQ1+M4D7IkCgCTK53NLczW6+uHPjXvMd5YsowBUyPQHV9VHrS1fl/QFSXnfeYB9oQAgqUxSvpB7Pt+hD8+6Zlyz7zxZRAGogIt/8MrIotnPJB3tOwvwXigASLooF22vzedPnXXlMfN9Z8mayHeArLnonoXjimbPiIM/AJQsLsaN7Z0dz537bwun+86SNRSAMrr4B6+MdC56VNIg31kAICtcrFxnZ/v959+1cJzvLFlCASiTT/9geV0xspni4A8AZRfHLtfW2f709O8tHOA7S1ZQAMqkzdpvkdOxvnMAQFYVi66hbUfnLN85soKbAMvgwnsWjZLTQnG3P1KGmwCRRo0NNRN+dsWxC3znSDvOAJSByV0nDv4AUBU7OuN7fWfIAs4AlOiS+17t09XVtVZ8yQ9SiDMASKvGBn2AbwwsDWcAStTZ1XWWOPgDQFV1xTXX+c6QdhSAEu38bn8AQDXFxfjDvjOkHQWgZI47/wGgyoqxO9R3hrSjAJRuuO8AABAc57j0WiIKQOn6+A4AAKGJY8fxq0S8gKUr+A4AAMD+ogAAABAgCgAAAAGiAAAAECAKAAAAAaIAAAAQIAoAAAABogAAABAgCgAAAAGiAAAAECAKAAAAAaIAAAAQIAoAAAABogAAABAgCgAAAAGiAAAAECAKAAAAAaIAAAAQIAoAAAABogAAABAgCgAAAAGiAAAAECAKAAAAAaIAAAAQIAoAAAABogAAABAgCgAAAAGiAAAAECAKAAAAAaIAAAAQIAoAAAABogAAABCgvO8ACEN91KrxvedrbOPLGlq3QoNqNqox1yJJ2l7spY2dg7SifbgWbv+g/rBtgtries+Jy+vdnn/Oil5zudZ1XteHySmnHarVxs4hemHreD2wdro2d/T3HQwBMN8B0u7Cuxc53xmS7KDCmzp34M91Ut+nVBt1dOvP7IgLenbLKZq96Tyt6ziowgkrqyfPv5ooAElkWt05THe9caUWbD3Od5hEe/SaiRzDSsCLVyIKwL4VbIdmDH5AZw58RDnFPXqMosvpF2+dowc3XKROVyhzwsoqx/OvBgpAkpmWto/VDUtuVUuxwXeYRKIAlIZ7AFB2Qwprdevh1+nsgbNLOvjlrKhzBs7STcNuUr98UxkTVla5nj9C5zSq7o+699hLNLLxdd9hkEEUAJTVsLrlunn4l3Vo7cqyPebIhqW67fBrdVjdirI9ZqVU4vkjbHVq0bfHXK2pBzzjOwoyhgKAshlSWKsvD71ZffJbyv7YA/Jv6fqht6pfvrnsj10ulXz+CFvkunTd0Ft0RMMy31GQIRQAlEWNdeiaQ79Z0YPfgPxbuvawW1WwHRVbo6eq8fwRtkhd+ofRf6te+RbfUZARFACUxYWD79fQKpyiH1H/uj4+6OcVX2d/Vev5I2y11qKvHHGL7xjICAoASnZQ4U2dOfCRqq131gEPJ+pSQLWfP8J2dMMCHcFNgSgDCgBKdu7An1f1bve6qF3nD3qwauu9n2o/f4TO6YvDv+U7BDKAAoCS1EetOqnvU1Vfd2q/J1QftVV93b35ev4I29DCaxpQSM9HY5FMFACUZHzv+V6+4a422qHjei2o+rp78/X8ETqnGUMe8h0CKUcBQEnGNr7sbe2je/lbezefzx9hG9d3vu8ISDkKAEri8873w2r9rb0bd/7Dl0E1631HQMpRAFCSwYUN3tY+sOB/A/T5/BG2Ovm/BwbpRgFASeqj1iDXTlIGhMk8/5Q00o8CAABAgCgAKElb7O9nSn2unaQMCJNzOd8RkHIUAJRkQ8dgb2uv7zjQ29q7+Xz+CFu76n1HQMpRAFCSFe3Dva39xo5h3tbezefzR9g2JqAAI90oACjJwu0f9Lb2H7cf423t3Xw+f4Rt/tbjfUdAylEAUJIF2yZqR1xb9XV3xLV6Ydv4qq+7N1/PH4Ez08y15/lOgZSjAKAk7XGdnt0yperrPr1lqtrjuqqvuzdfzx9hW71juJo6+/mOgZSjAKBkszedp2IV70jucnnN3vTnVVvv/VT7+SN0pn9542rfIZABFACUbF3HQfrFW+dUbb3/2XSuNnQMqdp676fazx9hW9x+jF7cxr0nKB0FAGXx4IaL9GrrqIqvs7RttH666cKKr7O/qvX8EbY211s3LLnZdwxkBAUAZdHpCvrWquv1VucBFVujqXOAvr3yi+qMayq2Rk9V4/kjbLHyunbJN9Ra5MunUB4UAJRNc1c/3bnyBm3uKv9B8K3OA3T7yr+vyGOXSyWfP8IWW163r/h7vdZ6hO8oyBAKAMpqZfswXf/6P2hR61Fle8ylbaN1w7JvamX70LI9ZqVU4vkjbG3qrasX/bue3nyS7yjIGAoAym5rV1/d9sZX9NDGGSV9Rr7L5TVr0/n6+oqb1dyVno88lev5I3SmRW3H6dIX79Py1uSXX6SP+Q6Qdhfevcj5zpBk/fLNOn/Qg5ra7wnVRju69Wd2xLV6esupmr3pE4m6278nevL8q8m1rvMdAXsz06qOEfqXN67WS1uP9p0m0R69ZiLHsBLw4pWIAtA9dVG7xvWar7G9XtawuuUaXLNBDbntkqTWYqM2dA7W8rYRemX70fpDy4REfMlPOb3b889bl9dcFADfTE45tbs6bewcogVbJ+rBtefzJT/dRAEoDS9eiSgASLPmpu2+IwA9RgEoDfcAAAAQIAoAAAABogAAABAgCgAAAAGiAAAAECAKAAAAAaIAAAAQIAoAAAABogAAABAgCgAAAAGiAAAAECAKAAAAAaIAAAAQIAoAAAABogAAABAgCgAAAAGiAAAAECAKAAAAAaIAAAAQIAoAAAABogAAABAgCgAAAAGiAAAAECAKAAAAAaIAAAAQIAoAAAABogAAABAgCgAAAAGiAAAAECAKAAAAAaIAAAAQIApA6Tp8BwAAYH9RAEq31XcAAAhNFFnsO0PaUQBKt9x3AAAIjlmr7whpRwEokZle8J0BAEITWbTSd4a0owCUyMXuN74zAEBookiP+s6QdhSAEsWN7r8lbfedAwBCYSZZ/z53+s6RdhSAEs2cMbZFsgd85wCAUOTzuSUPXzxive8caUcBKIOci++U1Ok7BwBknklRTc3nfcfIAgpAGfz48qNelblv+84BAFlXU1Mz5+Erjn7Cd44soACUSX1cf5OkOb5zAEBW5XK2rVhs+IjvHFlBASiTuy8f3h67+M8lW+U7CwBkTRRZsZBvmPbLvx7Jl6+VCQWgjGZePnZdZDrbSat9ZwGArLDIioXa/EWzrjxyvu8sWUIBKLP7PzXmJRfnx0v6ne8sAJB2US5qKdRo/OzPHftT31myhgJQATM/M3Lj1q35D0u6WXxHAADsP5MKhfwcqffBD1854SXfcbLIfAfIuuk/WDgkMrtJssskNfrOA+ypuYl+imQxk/K5aLHl8p975MpjnvSdJ8soAFUy/cGFvXJtdpaLbZqk45xpuEn9JBV8Z0O4KADwyqTILI7MWmXRyihnv7Z+ve/gS36qgwLg2Qkf+bjznQHhatrIPgt/li6YwzHII+4BAAAgQBQAAAACRAEAACBAFAAAAAJEAQAAIEAUAAAAAkQBAAAgQBQAAAACRAEAACBAFAAAAAJEAQAAIEAUAAAAAkQBAAAgQBQAAAACRAEAACBAFAAAAAJEAQAAIEAUAAAAAkQBAAAgQBQAAAACRAEAACBAFAAAAAJEAQAAIEAUAAAAAkQBAAAgQBQAAAACRAEAACBAFAAAAAJEAQAAIEAUAAAAAkQBAAAgQOY7QCguue/VPsXOrrOd2TTJHStpmKR+kmr8JkPImpu2+46AgJkkM4tl1paLtMpMj9XUxLf/7IqJa31nCwEFoMKmf3/x6Fw+vtY5+wtJ9b7zAHuiACCJ8vnc0lyNrn74c+Me850lyygAFXLOf8xraKhtvFnSFyTlfecB9oUCgKQySfma3Nx8pz4y65pxzb7zZBEFoAIu/sErI4tmP5N0tO8swHuhACDpolzUUpuzU2ZdNe4F31myhpsAy+yiexaOK5o9Iw7+AFCyuBj3au+K533831+8wHeWrOEMQBnteuf/jKRBvrMA3cEZAKRFZCrW1tRPnHXVWM4ElAlnAMrk0z9YXleMbKY4+ANA2cVOuY5i+zPTv7dwgO8sWUEBKJM2a79FTsf6zgEAWVUsuob29o6f+86RFVwCKIML71k0Sk4Lxd3+SBkuASBtLDKXr7Vx//258S/6zpJ2nAEoA5O7Thz8AaDiXOxMXfYj3zmygDMAJbrkvlf7dHV1rZXU4DsLsL84A4A0MpMa6vUBvjGwNJwBKFFnV9dZ4uAPAFXjnNQV11znO0faUQBKZLLTfWcAgNDExfjDvjOkHQWgZI47/wGgyoqxO9R3hrSjAJRuuO8AABAc57j0WiIKQOn6+A4AAKGJY8fxq0S8gKUr+A4AAMD+ogAAABAgCgAAAAGiAAAAECAKAAAAAaIAAAAQIAoAAAABogAAABAgCgAAAAGiAAAAECAKAAAAAaIAAAAQIAoAAAABogAAABAgCgAAAAGiAAAAECAKAAAAAaIAAAAQIAoAAAABogAAABAgCgAAAAGiAAAAECAKAAAAAaIAAAAQIAoAAAABogAAABAgCgAAAAGiAAAAECAKAAAAAaIAAAAQIAoAAAABogAAABCgvO8ACEN91KrxfeZpbMMfNbRuhQbVbFRjrkU5K/qOFjTXus5zApNTTjtUq42dQ/SHrRP0k7UXaHNHf8+5yqsh16pJfZ7Tsb3/oBENr+vAwgY15lokSduLvbS+Y7BebztCL24bp7lbTlBbsd5zYoTAfAdIuwvvXuR8Z0iyD9Su0TkHzNLJ/Z5WwXb4joO9+C8A+2Ja3TlMd71xpRZsPc53mJIcXLdG0w+8X6f1/61qo+7N/464Vr9tmqaZ6y7Umh2HVDhhuj16zUSOYSXgxSsRBWDfaqMOTR90v84c+Ihyin3HwbtIZgHYzbSk/WjduOQWtRQbfIfZL4WoQ5cd9AN9YvDPe3yWq8vlNWvDebp37afVEdeUOWE2UABKwz0AKLshhbW6ZcS1OnvgbA7+KIHT6LqX9cNjL9WIhhW+w3TbwbWr9U9jrtL5B/60pEtceevSBQc+qDtH/q0G1GwuY0JgJwoAympY3XLdPPzLOrR2pe8oyIh6bdM/H/l5TRnwrO8o7+vwhtf0rdHXaFjdirI95pjGRfqnMVdpeP2ysj0mIFEAUEZDCmv15aE3q09+i+8oyJjIdelLw76uwxuW+47yrg6uXa1bj/iS+uaby/7YA2s26eYjblD/mqayPzbCRQFAWdRYh6459Jsc/FExkbr0rdF/o175Ft9R/kQh6tSXh99SkYP/bgNrNulrh9+oQtRRsTUQFgoAyuLCwfdraBlPewL7Umstumnkrb5j/InLDvovjWh4veLrjGxYqhlDHqj4OggDBQAlO6jwps4c+IjvGAjEBxvma3iCbgo8uG6NPjH451Vb77zBP+VSAMqCAoCSnTvw59ztj+pxTteN+IbvFG+bfuD9Vf1Cq/qoTRcfdG/V1kN2UQBQkvqoVSf1fcp3DARmaO1rGlDw/y64Ideq0/r/turrnjHgMdXn2qq+LrKFAoCSjO89X7XclIRqc04zhjzkO4Um9Xmu29/wV051Ubsm9Xmu6usiWygAKMnYxpd9R0CgxvWd7zuCju39B29rH9P7BW9rIxsoACgJd/7Dl0E1631HqMqd/++6Nl8MhBJRAFCSwYUNviMgUHXyfw18SMFfCRlSSPLvOCANKAAoSX3U6jsCAmUJ+CnpBo/z35jf7m1tZAMFAACAAFEAUJK2OF0/04rscC7nO4JaPc7/9q5Gb2sjGygAKMmGjsG+IyBQ7ar3HUHrOg70uPYQb2sjGygAKMmK9uG+IyBQGz0efHd7ve0Ib2svaxvhbW1kAwUAJVm4/YO+IyBQ87ce7zuCXtw2ztvaL2wd721tZAMFACVZsG2idsS1vmMgNGaaufY83yk0t/kEtcd1VV+3Pa7TvAQUIKQbBQAlaY/r9OyWKb5jIDCrOkaoqbOf7xhqi+v1ZNNpVV/3iabT1Rb7vwcC6UYBQMlmbzpPxQTckY1QmP7ljat9h3jbzHUXqsvlq7ZeV1yjmesuqtp6yC4KAEq2ruMg/eKtc3zHQCAWtR2rl7Ye7TvG29bsOESzNlTvcsRDG87X2h0HVW09ZBcFAGXx4IaL9GrrKN8xkHFtrrduXPo13zH+xL1rP63F24+s+DqLth+lH639ZMXXQRgoACiLTlfQt1Zdr7c6D/AdBRkVK69rl3xDrcXkfflUR1yjm5d9TRs7BlVsjbc6D9Cty/5ena5QsTUQFgoAyqa5q5/uXHmDNndRAlBesWp024qb9Fqrv8/dv5+mzv76yuu3aFPnwLI/9saOQbrxtdv1VgUeG+GiAKCsVrYP0/Wv/4MWtR7lOwoyos311tWL79Izm0/0HeV9LW8boasX3aWXW44p22Mu2n6UvrDkX7WijS/dQnlRAFB2W7v66rYVN+mhjTP4jgCUwLSo7Thd+tJ9Wt461HeYbtvS1U83vHq7frTukyV9R0BXXKOfrPsLXbf0m2rq7F/GhMBO5jtA2l149yLnO0OS9cs36/xBD2pqvydUG+3wHQd7ca0J/E15M63sOFz/+sZVibrbvyf61zTp4oPu1RkDHlNd1N6tP9Me1+k3mz+kn66/kLv938ej10zkGFYCXrwSUQC6py5q17he8zW218saVrdcg2s2qCG3XXnr8h0taP4LgMkpp3ZXpw2dB+kPWyfowbXnJ+JLfsqpPmrTpL7P6ZjeL2hE/esaUlivXrkWSVJLsZfWdRyo11uP0Estx+n5LZP4kp9uogCUhhevRBQApFlz03bfEYAeowCUhnsAAAAIEAUAAIAAUQAAAAgQBQAAgABRAAAACBAFAACAAFEAAAAIEAUAAIAAUQAAAAgQBQAAgABRAAAACBAFAACAAFEAAAAIEAUAAIAAUQAAAAgQBQAAgABRAAAACBAFAACAAFEAAAAIEAUAAIAAUQAAAAgQBQAAgABRAAAACBAFAACAAFEAAAAIEAUAAIAAUQAAAAgQBQAAgABRAAAACBAFAACAAFEAAAAIEAWgdB2+AwAAsL8oAKXb6jsAAIQmiiz2nSHtKAClW+47AAAEx6zVd4S0owCUyEwv+M4AAKGJLFrpO0PaUQBK5GL3G98ZACA0UaRHfWdIOwpAieJG99+StvvOAQChMJOsf587fedIOwpAiWbOGNsi2QO+cwBAKPK5aPHDF49Y7ztH2lEAyiDn4jsldfrOAQCZZ5Ll8p/zHSMLKABl8OPLj3pV5r7tOwcAZF2hJj/nkSuPedJ3jiygAJRJfVx/k6Q5vnMAQFblcratq9j4Ed85soICUCZ3Xz68PXbxn0u2yncWAMiaKLJiId8w7Zd/PZIvXysTCkAZzbx87LrIdLaTVvvOAgBZEUVWrMnnZsy68sj5vrNkCQWgzO7/1JiXXJwfL+l3vrMAQNrlcratpkbjH77quJ/5zpI1FIAKmPmZkRvrXd1HJN0sviMAAPafSTU1ud879Tnk4SsnvOQ7ThaZ7wBZN/0HC4dEZjdJdpmkRt95gD01N9FPkSxmUj6fW2RR7vPc7V9ZFIAqmf7gwl65NjvLxTZN0nHONNykfpIKvrMhXBQAeGVSZBZHZq2KbGUURb+2fr3v4Et+qoMCAK9O+MjHnc/1n3t0dqr/DpT6+jVtLG2fXbpgTqpfv1HjJ3udv7S/fkg37gEAACBAFAAAAAJEAQAAIEAUAAAAAkQBAAAgQBQAAAACRAEAACBAFAAAAAJEAQAAIEAUAAAAAkQBAAAgQBQAAAACRAEAACBAFAAAAAJEAQAAIEAUAAAAAkQBAAAgQBQAAAACRAEAACBAFAAAAAJEAQAAIEAUAAAAAkQBAAAgQBQAAAACRAEAACBAFAAAAAJEAQAAIEAUAAAAAkQBAAAgQBQAAAACRAEAACBAFAAAAAJEAQAAIEAUAAAAAkQBAAAgQBQAAAACRAEAACBAFAAAAAJEAQAAIEAUAAAAAkQBAAAgQBQAAAACRAEAACBAFAAAAAJEAQAAIEAUAAAAAkQBAAAgQBQAAAACRAEAACBAFAAAAAJEAQAAIEAUAAAAAkQBAAAgQHnfARCmiR89d3Qu1o2+cwA+jRo/+V6LcrcsmffMEt9ZEB4KAKpq0ofPGW6RXS9nn5ExfwjepS4uXjxq/OSHZHbT0vm/X+w7EMLBBoyqeMeB3zF3wB4iSdPl3PkUAVQTGzEqigM/0G0UAVQVGzIqggM/0GMUAVQFGzPKigM/UDYUAVQUGzTKggM/UDEUAVQEGzVKwoEfqBqKAMqKDRs9woEf8IYigLJg48Z+4cAPJAZFACVhA38Xbt6IvorrR0lutMyNkTRKTofK1ChZo+T6S2rc9Y9vl6xJctvltF2mVZKWytliyZYoaltqE5dt8fdsSpfRA3+r7wCV0quuqMMO6NJhA3do2KAOHTqwQwf27VJ9wamuxqlPfZfqCk75HevkZCrGkYrO1BWbtrXltWZzQUvXFvTiioLmvFqndU0530+pUtol1fkOUaLMFQH3WP++qolGKYpHx05jzHbtvzv33EZJe+2/atr139tlWuWclkamxYqjJeqMl9qfNaV6/60U8x0gKdzCsb3UGk+WdMau/4xTWX8rwZZJelymx1XIPW7HvNxUvseunHcc+LNXGFc/9+jsQ32HKMUJH/m4k6T62lhHH9KuSYe36vjDWzXqAzsUmXvfP+9a13Vrna44rzc21+mpVxp17+96a81bOwvB0gVzUr2HjBo/eY2kD/jOUWaxpFQVAffEoF5SPDmO4jNMdobkyrz/apmTHo+cPa5c8XE7ZUsq9t9KS/Vf3lK5PxzXT13tM+TsUplOklSttzlFSc/IuftUUzfTxr3QXKV1u+3t7+o3+wtV73WpLqc5z/169om+Y/SU+8Nx/e54qG/TR4/dpmOGtnfrgP8nj9HNAvBOpm0dBf3vy33051OKh9mk11f14EESYdS4yc/JNMl3jgopSro/qb814J7o109RNMPJXSpVf/81Z/fJxTNtWnPi9t9qCa4AOKdI8488U9JlcjpX/k//tcv0sJzu0cRFvzJT7DNMxt/xv5PTd5779ewv+I6xP8o9vz0rAHvJFVaaCt/TyatuM1Ox9AesnlHjJ/+zpKt956iwxJwRcE6Rnup/Zux0mSkZ+6+THo6kezS1yfv+W23BFADnFOn5MWfJ7KuSxvvO8y4WSvqGWg78sU37bVc1Fw7iHf9enLkZc3/18EzfObqjUvNblgKwm+V3WC5/jzpqv2DTVrSX74ErZ/T4yTOc9BPfOarE2xkB5xTpyf5nOdNXldT912mhmfuG4uYf2zRVdf/1JfMFwD1xWl69139aTtdLOtx3nm56TdIdajnwnkoXgaDe8b/T1q5CfND8Rx5J9I2AlZ7fshaA3SzqtFztfdrS8Hn72Gs7yr9A+XxgwoSGXq5mnaTevrNUUdXOCLgnlFduwKed3PVy6dl/TXaH4s33ZL0IZLoAuOdGT1QU3SVpou8sPWLuRTl3lR2/5JlyP3SI7/j3ZNK/z3l09ud953gv1ZjfihSA3aJ8m1nhGpuy5j8qt0jpRo2f/F1Jf+k7hwcVPSPgnug70UW5uySXzv3X6UWLdJVNbSr7/psUmSwA7tmxA5QvfkVmV6u8d5L64CTdp0LNF+3YlzaU+mABv+N/m5N2FIvxqPmPP7LSd5Z9qeb8VrQA7JYrLLO6+rNs4opE3pF+5LiThhYtXiKp1ncWT8p6RsA922dA3Jn/isllYv91pvuiXOcX7eSWkvffpMlcAXDzjvyEnL4vaYDvLGX2lmSfteNfmd2TPxz6O/53MN3x3K9mf8l3jH2p9vxWpQBIkkWx5etutZPW3FSdBffPqAmT75DTdb5zeFbyGQH3u36fcM4yuf+auc/a1OYe7b9JlZkC4J44La9e62+RdK0y9Lz24uTcP6sx93c2dmFHd/4A7/j3Zgta+tScuHDmzG69ftXia36rVgB2y9W9aL3jk+3Y9duru/B7mzBhQs02V/OMpON9Z0mA/T4j4J5QPo7632IZ33+d7J+jgZv/zsYqUftHT2XiX5R7bvRwRfYTyUL5yztXXe5CO3Hxinf7B3jHv09vxsX8Kc8//tAy30H25HN+q14AJMny2y3Kn2lT1j5V/cXf3RETTjo8cu4pyR3kO0tCdOuMgHuy73CnkPZfN9diXWjTmlf4TlKq1BeAXTdK/ULSIN9ZqmyzYne2nbD493v+nxz439WGWPHpzz/6yELfQfbke369FABJiqLYrO4zNmXNPX4C7NsRxx4/NsrlnlB4+8l7edcisPNGvzD3X3N2tp22+ffv/48mV6oLgJs/9nTF8SyF9RGePW2Xiy6wSQt/xan+9/SCc/F5c3/9yHLfQfaUhPn1VgAkycxZ1HijTVl1m78Qf+qIY044JMrZQxn+hsCeeselAfdk39OdoqD3X4vtApu2+Ve+g/RUaguAmzvmPJn9WOHeuStJck6dlOtO9QAAEzBJREFU//LowOd+9PSAE8U7/r21S+6b9Tu23vbb3/42UV9Mk5T59VoAJEkmy9d9x05+M1HfyHjIiSfWN3a4LzunL8r/t9UlTfGSUzY/c+N5GyebVPAdxrMOc/q0ndZ0v+8gPZHKAuCeH/MXkt2n9H/EpCxiZ/rKg0P02MuhFvE/UZRz9+dy0Vef/eWs132H2VuS5td/AdjJcnX/z6as/RvfOfa2876A+KuSuKS2y9njt+obl6xV5H16EyM20yU2tekB30H2V+oKgJt71Idk7n8U+Dv/vXUVTV+87wOa82rj+//D2RWb7CFzxZt+/+tHEvmZ86TNb1IKgGSymvov20lrbvedZF9GHzNpuMvnrpdc0JfYThy1Xf/xl2+qkA/qK/O7o9PMzrGpmx/1HWR/pKoAuLljj5fFv5HUy3eWJGrvNP3Vfx2il1fV+45SbYk/8EvJnN/kFADtuieg/vKk3Ri4p5CLwAcPa9c9V65SQy0H/3fRas7OSNONgakpADs/KhXNlTTQd5Yka96e1+V3Haq1zTW+o1RDUc7dX4x0y7xfPZy4nzvdU1LnN1EFQNr96YCTbcqaOb6jvJfRE08e7eLijQrk0sAhB3Rq5jVvqH9jqn7s0YeNFrtJafmIYCoKgJs3oUau9UlJqf3t9mp6ZU2trvjuYeospuJfb0+k5sAvJXt+E1cAJCnKt1ifaEjSvixoX0IoAvmc071Xr9K4YW2+o6SEe94GNk9Jw5cFpeQ2jtZvKoGbZ1IddfAOXfnhTb5jVEJRzt1XNDf2uV8//Mk0HPx3Yn73S9zVy7VEv/EdozuWzHtmydIFcz5pUW6spPu08zPzmXLtuRs5+O8XOz5+q18i72XZW+LfIrrnxpytyB5WCrImiXPS9fd/QE++kpjLzaVI1Tv+PSV9fhN5BmAXyzXcblPWfNl3jv2RtTMC08a26N8+u0aWyOlNNGfmzrOpzbN8B3kvif7X6hYcMUjFmsXK3g9LVMWW1pwu/PYwNbemdh9K7YFfSsf8JrkAyKLYCvVjbPLqV31H2V9ZKAIDenXpl19aob4NmTupUS1vWdw1xqZtS+zp2GRfAijm71SCN8+k69tQTOulgJSe6t8L81saF0eusyuVv76WhUsDf3vOJg7+pTkgtlyiLwUk9gyAe370yVL0lBKcMQ1iZ7riu6n5aGAqPs7XHWmZ30SfAdjFco1/aVNWf893jlKk7eOD44e36Ud/tZJT/6WLzdmUpH40MJH/et0Tp+XVe908OTvWd5YseH19rS7716EqJvfju6k+1b+3NM1vGgqArKbNWvr0t4+9tsN3lFKl4dJALnJ66G/e0JiDU/9yJ8XLFjeNt2nq8h1kb8m8BNC47vI0bJ5pcfiBO/SxcVt9x9iX2GQzIxcfnepT/XtjfsvLddarT+u/+o5RDmm4NHD+pK0c/Mvrg4oGXOY7xL4k7gyAe1A5jThykZxG+s6SJWs212jGt4cn5SxApt7x7ylt85uKMwCSZFGnHTCkl41dmPjPVu+PpJ0RyJnTL760QkMHZepl9s/0uhWbxiTtLEDyzgAMO+qitGyeaXLwgE596GjvZwGy+Y5/T8xvZbi4Rs3N3/Ado9zePiPQFY+U7LuS3wPEx8Zv4+BfCU6Hy/pP9x1jb4kqAM7JZO563zmy6vJpmxWZ87H07rv6j5rz6KwZab/B790wv5Xlih1XOOf/XXIlLHlp7vKlC35/hXXFo3wVATPp/56xudrLBsOZbnQuWcfcRIXR/CM/Julo3zGyavigDp0wsrWaS2bj43zdxfxWluuq07OHZrpgvV0EotzRqvI9AqceuV0jh3Dtv4KO0pP9P+I7xJ6SVQCcPuU7QtZ97LiqXAbI/qn+fWF+K87FnX/pO0M1+Lg08IlJWyq9RPBiKVE3AybmJkA3b0Rfudq1klLxgfW06ugynXXn4drWVpHul9mb+95PWuc3NTcB7sFy/YfalGUrfeeopkrfLNi7LtZTN7+muhovlwhD0m6xO8imNTf7DiIl6QyAq7tIKds806iQd5p21LZyP2yY7/j3xPxWj7V/1XeEaqv0GYGzxm/l4F8ddYqi832H2C1BBcBd4jtCKD56XNkKwO4D/9gs39zXLcxv1bi4+AnfGXyp1M2CZ0/w/gmhYDhzl/rOsFsiLgHsOn36lhLwOdgQFGPpw7ceoe07etz/gj3Vvy9pnt80XgKQTJZrPNimrHrTdxLfynFpoHddrDm3vaacn08IhajLau0Am7zZe+tKxhkAV3+qUrh5plUuko7r2e97c6p/X5jfKnOSuSBuBnw/5bg0cPwRrRz8qyuvDneK7xBSUgqA4mm+E4RmwvD9KgBBfI6/55jfanOueJbvDElSyscHTziiR28GUILYuUTsGQkpADrdd4DQTDx8e3f+sbA+x99zzG+1ueJY3xGSqCe/NTB5ZLf2ApSRyRKxZ3i/B2DX9dOmJGQJSexMZ3z9cLV27LMDZuZneSst7fObznsAdrL6vgfZpBXpfQJV8H4/Q9y7Ltbc217lZ3+rL7Zcrp9N2VT2j2TtD/9nAFz9aKV080yzyJwO+9Pv/OZU//5ifv0p7viQ7whJ936XBoYP7uDg70ck1znKfwjv4tG+E4Rq6MC3CwA39/UY8+tN0U70HSEt3u1mweGD+eEfb+LI+97xJ6eEPPD+IoRq6KBOJ+d+tPPjfLM56PcM8+uJM8fvLuynJS/NXS7pitETT/5HFxdvHD644xJxBsuL2Mz73pGAAuBGM39+XHBC8y8/+3dPf9J3jnRjfr2J4+G+I6TVknnPLJH0yYtuPWCQpET9QE0wnPNeABJwCcAO9p0gVH3q476+M6Qf8+tP3M93grTr1xD38Z0hVCYd4jtDAgqAGEBvXG/fCTKA+fXFqeA7Quo55tcj7/tvEgpAL98BAuZ9ADOA+fXGJeASZspFzK9H3vffJBQA7y9CwHjtS8dr6Iu5JOxf6eaYX4+8v/ZJ+AtEA/XH+wBmAPPrS0wBKAPm1x/v+y9/gQAACFASCkCL7wAB8/o1lBnB/PoSWew7QgYwv/5433+TUAC8vwgB47UvHa+hL44CUDJjfj3y/tonoQDQQP3xPoAZwPx6Y12+E6RezPx65H3/TUIB2Oo7QLjM+wBmAPPrS2R8kX2pjPn1yPv+m4AC4Nb4ThAut9p3gvRjfv2xZt8JUs8xv744yfv+m4ACYPwIjS/Ga186XkNvLFruO0LaOfYAfxLw2iegAMj7ixCumNe+dLyGnpjZy74zpF3kHPPrSRJe+wQUgMj7ixAs4+BVOubXo9/7DpB6UY759SXy/wbMfwEo7lgsyfmOEaBYbW6p7xCpx/z6ky/8xneE1Cs45tePWFbjff/1XgBs8mtbJXEqr/petClLvN+FmnbMrydRTatNWrHOd4y0s8mbmV8/XrQpm7zvv94LwC40+Woz97++I2QI81ttFi30HSErnIz5rTInJWL/TUgBiJ7wnSA4znjNy4b5rTZTzSO+M2RFpJj5rbJISsRrnowCYG1PSir6jhGQLhU7n/YdIjOY3yozSfq+7xSZ0WHMb3V1qdYSsf8mogDYxGVbJD3jO0c47Kld165RBsxvlUU1TTZl1Zu+Y2SF/VkT81tdT+2698K7RBSAndyPfCcIyH2+A2QP81stlsv9zHeGrDEZ81slJkvM/pucAmAdP5HU5jtGANqVL7CBlhvzWyUmRQ1f9Z0iczoc81sd7YrjxOy/iSkANnHZFpm4safyZtm4F/gO9TJjfqskKrxhk1/z/h3qWWN/1rTFifmtNOc0y6Y1J2b/TUwBkCQ53eM7QvbZD30nyCzmt+LMar7rO0NWRWJ+Ky2SErX/mu8Ae3JOpnlHviTpaN9ZMsn0iiYs+qCZYt9RsiiN8+taU/RdOpZvt1M29jLjjvVKcE7mftc/VfObMq/Y1KZE7b+JOgNgJidnd/jOkVlOX0/S8GUN81tZli/8Owf/yjGTM4n5rRCz5O2/iSoAkqQVrzwg06u+Y2TQa1q+aKbvEJnH/FZGlOtQYc21vmNk3vqmByRjfsvvNa1rStz+m7gCYDNUlNOdvnNkjnO32gzePVUa81sZlqu92yaq03eOrLMZKpqY33IzS+b+m7gCIElavuhuSS/4jpEhC7Ri8b2+QwSD+S2vqKZVq9f8le8YwVi/+W4xv+W0QOuaE7n/JrIA7GxK0RVSsq6XpFSs2F2dxPaZVcxveZkVvmAz1OE7RyhshopmzG+ZxOYssftvIguAJNnxC+dKutt3jtQzfd9OWPx73zFCw/yWSa72FZuy+nu+Y4TGpr4118nd7TtH2jnT9+20zYndfxNbACRJVrxO0lu+Y6TYJhXdl3yHCBbzWxqLYrOac33HCFUUM78l2hR1dCV6/010AbCJSzfJ9ClJzneWFHKS/R87YTF/gT1hfktjubrb7eRVr/vOESqbtm2TMb895czc/7EztiV6/010AZAkm7jofyR923eO1DH3LTv+ldm+Y4SO+e2hfP0cO3nNjb5jhM6mNv2Pc4753U9O+pZNbU78/pv4AiBJsobrJCX2OkoCzVV97gbfIbAL87t/onyL9Sqe4TsGdop6NTO/+8XNjQY2pWL/TUUBsInzO9XlLpa00XeWxHNugyyabmMXctd0QjC/+8Gi2Fzth+zY9dt9R8FONlGdFjO/3WMbLGfTbWw6PrWSigIgSXbi4hWK449J2uY7S4JtU2Rn2sSFK30HwTsxv91g5sxqL7Wpq+f6joJ3smnNK4z5fT/bzIpn2pSm1Oy/qSkAkmQnLJmnKPqEpB2+syRQh8xdYBMXLfAdBPvG/L4Xk+UavmSnvHm/7yTYN5u2ZZ4pZn73rcNkF9jULanaf1NVACTJJiz8jaRPiy+p2FMsp8ts4uJf+w6C98b87pvla//RTl7NV9AmnJ265TdmzO9eYpNdZqduTt3+m7oCIEl2/KIH5Nx0Se2+syRAh6RLbNKin/gOgu5hfvdksnzDP9nJa//WdxJ0j01tesDE/O7SYaZL7NTNqdx/zXeAUrj5Y09XHP9cUh/fWTxpUeQusAmLH/UdBPsvCfPrWtf5WnrnNf98/Q120prb/YVAT7kn+57uFAW9/5rZBTZ1c2r331QXAEly88dMUFG/kNlg31mqbL0id5ZNWDzfdxD0nO/59VYAzGLL111qJ3HNP83cU30nuDj3C8kFtv+69Ra5s+yULanef1N5CWBPOw+A+YmSnvWdpXrc84rjEzn4p1+Q82v57RbVnsbBP/3slC3zTQprfuWeN7kT037wlzJQACTJJv1xlVoOPFWyrynbN6c4OfcdNeSm2AlLlvsOg/IIaH6lXN2L1jc60Kasfcp3FJSHnbp5lcVNp7rsz69zsu/YwOYpduqWTOy/qb8EsDf3/Nhzpfi/JB3gO0uZbZJzn7FJix/xHQSVU+35rdolAItiy9XfbCev/lp1FoQP7sl+5zpZJvdfc/qMndaUqf03E2cA9mTHL3xYtfmRcu47ykYbdZLuVa7zKA7+2ZfB+ZVyhWVWX3sUB//ss1ObH7YoHulkWZlf50z3mnUelbWDv5TBMwB7cvPHTFCsuyQ73neWHnpBzl1lkxYHdH0Nu1Vjfit6BsDybZar/YKdvPo/K7cIkmrnDYKW6v3XZFfZqZszu/9m7gzAnmzC4vlavvhEyT4r06u+8+yHpXLuci1fNJGDf7hSO79RrsOi+v+0ho19OfiHy07ZMt/WN59oss9Klp75lVtq5i639U0Ts3zwlzJ+BmBPzinS82POktlXJY33nedd/FHSN9Vy4I9t2m+7fIdBclRqfst6BiDKt1uU/6G2NP61few1vi4Wb3NOkZ7sf5YzfVUJ3n9N7puKm39s0xTE/htMAdjNOZnmHfVRyX1K0rmS6j1HapM0W7IfauIrvzKT85wHCVbu+S29AJgUFd4wq/muTl51h1kmrvuiQpyT6cn+H41Nn7KE7L/OaXYk/VCnNgW3/wZXAPbk5o3oK1d7gaRLJU2RlK/S0l2SnpbsXln7QzZx2ZYqrYsMKcf89qwAmBTVNFku9zMp+oqdtHpNDx4EgXOP9e+rgl3gzF0qV+X91/S0ObtXHe4h+7OmYPffoAvAntyLxzSqo/NESWfs+s84lfUeCVsm6XGZHleu8JiNe6G5fI+N0PV0frtdAKJch6L86+Zyv5Jqv21TlqXmJ0+RfO7RAxtV6DoxjuIzTHaG5Mq8/2qZkx6PnD0uFz9m05rZf0UBeFfu6dG9VaPRytkoxTZGkUbL6RBJvSTrJbl+O/+3JKlFsmbJtez831olp6WK3GKZlqjNLbUpS/gdbVRNd+fXta4vSOZk1iVZUZF1yFmzLFphkb0kc3OUq/1fm7TC448GIDTu6YG91dk5WlE0KnY2RuZGm3bPr3pJ2mv/VfOu/25x0io5WxqZW6woXiKrWWpTNrH/AgAAAAAAAAAAAAAAAAAAAAAAAAAAAAAAAAAAAAAAAAAAAAAAAAAAAAAAAAAAAAAAAAAAAAAAAAAAAAAAAAAAAAAAAAAAAAAAAAAAAAAAAAAAAAAAAAAAAAAAAAAAAADQQ/8fvkJ7Hkw3kycAAAAASUVORK5CYII=;" vertex="1" parent="1">
          <mxGeometry x="590" y="350" width="182" height="182" as="geometry" />
        </mxCell>
        <mxCell id="5aWrAIKVMlBQY42iL_i9-7" style="edgeStyle=orthogonalEdgeStyle;rounded=0;orthogonalLoop=1;jettySize=auto;html=1;entryX=-0.033;entryY=0.418;entryDx=0;entryDy=0;entryPerimeter=0;strokeWidth=2;" edge="1" parent="1" source="oMMCGzu5jU7tzmJ9BOZd-3" target="5aWrAIKVMlBQY42iL_i9-3">
          <mxGeometry relative="1" as="geometry" />
        </mxCell>
        <mxCell id="nUuVnpsEspwuInS9Y2eC-1" value="&lt;font face=&quot;Tahoma&quot; style=&quot;font-size: 26px;&quot;&gt;&lt;b&gt;Client 1&lt;/b&gt;&lt;/font&gt;" style="text;html=1;strokeColor=none;fillColor=none;align=center;verticalAlign=middle;whiteSpace=wrap;rounded=0;" vertex="1" parent="1">
          <mxGeometry x="130" y="230" width="130" height="30" as="geometry" />
        </mxCell>
        <mxCell id="nUuVnpsEspwuInS9Y2eC-4" value="&lt;font face=&quot;Tahoma&quot; style=&quot;font-size: 26px;&quot;&gt;&lt;b&gt;Client 2&lt;/b&gt;&lt;/font&gt;" style="text;html=1;strokeColor=none;fillColor=none;align=center;verticalAlign=middle;whiteSpace=wrap;rounded=0;" vertex="1" parent="1">
          <mxGeometry x="140" y="520" width="130" height="30" as="geometry" />
        </mxCell>
        <mxCell id="nUuVnpsEspwuInS9Y2eC-5" value="&lt;font face=&quot;Tahoma&quot; style=&quot;font-size: 26px;&quot;&gt;&lt;b&gt;Client 3&lt;/b&gt;&lt;/font&gt;" style="text;html=1;strokeColor=none;fillColor=none;align=center;verticalAlign=middle;whiteSpace=wrap;rounded=0;" vertex="1" parent="1">
          <mxGeometry x="140" y="820" width="130" height="30" as="geometry" />
        </mxCell>
        <mxCell id="nUuVnpsEspwuInS9Y2eC-6" value="&lt;font face=&quot;Tahoma&quot; style=&quot;font-size: 26px;&quot;&gt;&lt;b&gt;Load&amp;nbsp; Balancer&lt;/b&gt;&lt;/font&gt;" style="text;html=1;strokeColor=none;fillColor=none;align=center;verticalAlign=middle;whiteSpace=wrap;rounded=0;" vertex="1" parent="1">
          <mxGeometry x="550" y="560" width="310" height="30" as="geometry" />
        </mxCell>
        <mxCell id="nUuVnpsEspwuInS9Y2eC-7" value="&lt;font face=&quot;Tahoma&quot; style=&quot;font-size: 26px;&quot;&gt;&lt;b&gt;Server 1&lt;/b&gt;&lt;/font&gt;" style="text;html=1;strokeColor=none;fillColor=none;align=center;verticalAlign=middle;whiteSpace=wrap;rounded=0;" vertex="1" parent="1">
          <mxGeometry x="1085" y="310" width="130" height="30" as="geometry" />
        </mxCell>
        <mxCell id="nUuVnpsEspwuInS9Y2eC-8" value="&lt;font face=&quot;Tahoma&quot; style=&quot;font-size: 26px;&quot;&gt;&lt;b&gt;Server 2&lt;/b&gt;&lt;/font&gt;" style="text;html=1;strokeColor=none;fillColor=none;align=center;verticalAlign=middle;whiteSpace=wrap;rounded=0;" vertex="1" parent="1">
          <mxGeometry x="1085" y="720" width="130" height="30" as="geometry" />
        </mxCell>
        <mxCell id="nUuVnpsEspwuInS9Y2eC-9" value="&lt;font face=&quot;Tahoma&quot; style=&quot;font-size: 26px;&quot;&gt;&lt;b&gt;Single Point of Failure&lt;/b&gt;&lt;/font&gt;" style="text;html=1;strokeColor=none;fillColor=none;align=center;verticalAlign=middle;whiteSpace=wrap;rounded=0;" vertex="1" parent="1">
          <mxGeometry x="540" y="770" width="310" height="30" as="geometry" />
        </mxCell>
      </root>
    </mxGraphModel>
  </diagram>
  <diagram name="SPOF 1" id="h-hBcv1BYcad-eXJSAcv">
    <mxGraphModel dx="2578" dy="1491" grid="1" gridSize="10" guides="1" tooltips="1" connect="1" arrows="1" fold="1" page="1" pageScale="1" pageWidth="850" pageHeight="1100" math="0" shadow="0">
      <root>
        <mxCell id="iRG5U3GbNzpCpeT_m5hG-0" />
        <mxCell id="iRG5U3GbNzpCpeT_m5hG-1" parent="iRG5U3GbNzpCpeT_m5hG-0" />
        <mxCell id="iRG5U3GbNzpCpeT_m5hG-2" style="edgeStyle=orthogonalEdgeStyle;rounded=0;orthogonalLoop=1;jettySize=auto;html=1;strokeWidth=2;" edge="1" parent="iRG5U3GbNzpCpeT_m5hG-1" source="iRG5U3GbNzpCpeT_m5hG-3" target="iRG5U3GbNzpCpeT_m5hG-11">
          <mxGeometry relative="1" as="geometry" />
        </mxCell>
        <mxCell id="iRG5U3GbNzpCpeT_m5hG-3" value="" style="shape=image;verticalLabelPosition=bottom;labelBackgroundColor=default;verticalAlign=top;aspect=fixed;imageAspect=0;image=data:image/png,iVBORw0KGgoAAAANSUhEUgAAAgAAAAIACAYAAAD0eNT6AAAABHNCSVQICAgIfAhkiAAAAAlwSFlzAAAOxAAADsQBlSsOGwAAABl0RVh0U29mdHdhcmUAd3d3Lmlua3NjYXBlLm9yZ5vuPBoAABgQSURBVHic7d1brGX3fdDx/9rnzIzt+pI4N0gcJ01rEpQ2wY4vaWRo3IfSEMVVHyZIvCCEhBU5lmURqCr1YSQeeIAXIiKgL4gHJAiISFSKUCTiNI1cI8sRKUKgRCUXmUaknhmfc2afvfZa6///8+BLPZ7L2Xufvfd/rb0+nyfPTfrpLJ/Z373nt/4rBAAAAAAAAAAAAAAAAAAAAAAAAAAAAAAAAAAAAAAAAAAAAAAAAAAAAAAAAAAAAAAAAAAAAAAAAAAAAAAAAAAAAAAAAAAAAAAAAAAAAAAAAAAAAAAAAAAAAAAAAAAAAAAAAAAAAK6vWuQ3ffazn317VVV/YzKZ/HrO+QMhhPeEEN696J8HKKVt2/0rV67cXnoO2JSqqtqqqo4nk8nFqqr+y6233vpPvv71r//4xD93s1/83Oc+95Gqqv5Rzvk3Qwhn1jYtwBbknMPh4WGIMZYeBbZqf3//pb29vb/7zW9+8xs3+j3XDYDz58/fWtf1Pw0h/L0Qwv6mBgTYpLquw/HxcekxoJizZ8/+cc75V7/1rW+98tZfuyYAHn/88ffmnL8WQnh4K9MBbEBKKRwcHIScc+lRoKi9vb3ZLbfc8tg3vvGN//bmn78qAD7zmc/cc+bMmT/KOd+z3fEA1uvKlSuhaZrSY0AvTCaTuL+//8izzz774hs/9/p/nD9//tb9/f3/5MUfGLq2bb34w5uklPa6rvv2pz/96Xe+/nNvBMBsNvvnIYSHikwGsEb+3R+ulVK6Lef87dd/vBdCCI8//vjHQgj/MritDxi42Wzm3T/cQM75XR/60If+949+9KP/OXntJ/5xeNOnAQBDlFIKdV2XHgN6K+cccs7/LIQQqte2/l8K3v0DA3d0dBTati09BvRaVVXh1ltvvX8SQvjN4MUfGLimabz4wwJyziGl9PcnOee/XnoYgNPIOYfZbFZ6DBiMrut+bRJC+PnSgwCcRl3XjvuFJeSc3z4JIfzF0oMArCrG6N0/LCmldG4SQnhH6UEAVuWef1jJZBLc/gcMlMU/WE3O2Ys/MEw5Z+/+4RQEADBIs9kspJRKjwGDJQCAwYkxhvl8XnoMGDQBAAzO8fFxyDmXHgMGTQAAg2LxD9ZDAACDYfEP1kcAAINh8Q/WRwAAg9B1nUf9whoJAGAQHPcL6yUAgN6bz+cW/2DNBADQaxb/YDMEANBr7vmHzRAAQG858Q82RwAAvZRzDtPptPQYsLMEANBLTdOErutKjwE7SwAAvZNSsvgHGyYAgN6ZzWYW/2DDBADQK13XhaZpSo8BO08AAL0ynU69+4ctEABAb9R1HWKMpceAURAAQC+klJz3D1skAIBecOIfbJcAAIqz+AfbJwCA4pz4B9snAICiLP5BGQIAKMbiH5QjAIBiLP5BOQIAKKJtW4t/UJAAALYu5+xhP1CYAAC2zuIflCcAgK2y+Af9IACArfLRP/SDAAC2xuIf9IcAALYi5+zEP+gRAQBsRV3XIaVUegzgNQIA2LgYo8U/6BkBAGycF3/oHwEAbFTTNBb/oIcEALAxOWfv/qGnBACwMbPZzIl/0FMCANiIlFKo67r0GMANCABgI9zzD/0mAIC1a5omtG1begzgJgQAsFYe9QvDIACAtZrNZk78gwEQAMDaxBjDfD4vPQawAAEArM10Og0559JjAAsQAMBazOfz0HVd6TGABQkA4NSc+AfDIwCAUzs+Prb4BwMjAIBTsfgHwyQAgJXlnJ34BwMlAICVWfyD4RIAwEos/sGwCQBgJcfHx+75hwETAMDSuq4LTdOUHgM4BQEALOX1h/149w/DJgCApVj8g90gAICFpZQs/sGOEADAwnz0D7tDAAALsfgHu0UAAAtx4h/sFgEAnKiu6xBjLD0GsEYCALipnHOo67r0GMCaCQDgpqbTqUf9wg4SAMANWfyD3SUAgOvyqF/YbQIAuC6Lf7DbBABwjZSSxT/YcQIAuMZ0OnXiH+w4AQBcpW3b0LZt6TGADRMAwFUs/sE4CADgDbPZzD3/MBICAAghWPyDsREAQAjB4h+MjQAAQtM0Fv9gZAQAjFzOORwfH5ceA9gyAQAjV9e1xT8YIQEAI5ZSCrPZrPQYQAECAEbMPf8wXgIARsriH4ybAIARsvgHCAAYISf+AQIARibGGObzeekxgMIEAIzM8fGxE/8AAQBjMp/PLf4BIQQBAKORc3bPP/AGAQAjYfEPeDMBACPQdZ1H/QJXEQAwAu75B95KAMCOm8/noeu60mMAPSMAYIc58Q+4EQEAO8w9/8CNCADYUU78A25GAMAOyjl71C9wUwIAdpDFP+AkAgB2TErJPf/AiQQA7Bgn/gGLEACwQ9q2tfgHLEQAwA5xzz+wKAEAO6Ku6xBjLD0GMBACAHZASsmjfoGlCADYAU78A5YlAGDguq4LTdOUHgMYGAEAA2fxD1iFAIABm81mTvwDViIAYKCc+AechgCAgbL4B5yGAIABatvW4h9wKgIABibnbPEPODUBAAMzn8+d+AecmgCAAUkpefcPrIUAgAGZTqelRwB2hACAgWjbNrRtW3oMYEcIABiAnLN3/8BaCQAYgLquQ0qp9BjADhEA0HMxRo/6BdZOAEDP2foHNkEAQI81TWPxD9gIAQA9lXP20T+wMQIAeqquayf+ARsjAKCHUkre/QMbJQCgh9zzD2yaAICesfgHbIMAgB7xqF9gWwQA9MhsNnPiH7AVAgB6IsYY5vN56TGAkRAA0BPT6TTknEuPAYyEAIAemM/noeu60mMAIyIAoDD3/AMlCAAozOIfUIIAgIIs/gGlCAAoJOfsxD+gGAEAhTRNY/EPKEYAQAFO/ANKEwBQwPHxsXv+gaIEAGxZ13WhaZrSYwAjJwBgy7z7B/pAAMAW1XVt8Q/oBQEAW+LEP6BPBABsiY/+gT4RALAFFv+AvhEAsAVO/AP6RgDAhtV1HWKMpccAuIoAgA3KOYe6rkuPAXANAQAbNJ1OPeoX6CUBABvStq3FP6C3BABsgIf9AH0nAGADLP4BfScAYM2c+AcMgQCANXPPPzAEAgDWqG3b0LZt6TEATiQAYI28+weGQgDAmsxmM/f8A4MhAGANYowW/4BBEQCwBu75B4ZGAMApWfwDhkgAwCnknC3+AYMkAOAU6rq2+AcMkgCAFTnxDxgyAQAr8tE/MGQCAFbQNI3FP2DQBAAsyaN+gV0gAGBJTvwDdoEAgCXEGMN8Pi89BsCpCQBYwvHxccg5lx4D4NQEACzI4h+wSwQALMDiH7BrBAAswOIfsGsEAJyg67pQ13XpMQDWSgDACXz0D+wiAQA3MZ/PQ9d1pccAWDsBADdg8Q/YZQIAbsA9/8AuEwBwHV3XhaZpSo8BsDECAN7i9Y/+vfsHdpkAgLdomsbiH7DzBAC8SUopzGaz0mMAbJwAgDdx4h8wFgIAXtN1nUf9AqMhAOA10+m09AgAWyMAIIRQ13WIMZYeA2BrBACjl3P2sB9gdAQAozedTi3+AaMjABi1tm2d+AeMkgBg1NzzD4yVAGC0ZrOZE/+A0RIAjFJKyeIfMGoCgFHysB9g7AQAo2PxD0AAMDKvP+oXYOwEAKPixD+AVwkARsOjfgH+nABgNDzsB+DPCQBGoW3b0LZt6TEAekMAsPNyzt79A7yFAGDnzWYzD/sBeAsBwE6LMTrxD+A6BAA7zT3/ANcnANhZTdNY/AO4AQHATnLiH8DNCQB2Ul3XFv8AbkIAsHMs/gGcTACwczzqF+BkAoCdYvEPYDECgJ1h8Q9gcQKAneHEP4DFCQB2QowxzOfz0mMADIYAYCdMp1OLfwBLEAAM3nw+D13XlR4DYFAEAIOWcw6z2az0GACDIwAYNIt/AKsRAAyWE/8AVicAGKScc5hOp6XHABgsAcAgNU1j8Q/gFAQAg5NScuIfwCkJAAZnNpu55x/glAQAg9J1XWiapvQYAIMnABgUj/oFWA8BwGDUdW3xD2BNBACDkFJy4h/AGgkABsHiH8B6CQB6r+s6j/oFWDMBQO858Q9g/QQAvVbXdYgxlh4DYOcIAHrLo34BNkcA0FvT6dTiH8CGCAB6qW1bJ/4BbJAAoHdyzh72A7BhAoDesfgHsHkCgF5x4h/AdggAesVH/wDbIQDoDYt/ANsjAOgNJ/4BbI8AoBdms1lIKZUeA2A0BADFxRgt/gFsmQCgOC/+ANsnACjK4h9AGQKAYpz4B1COAKCY2WzmxD+AQgQARaSUQl3XpccAGC0BQBHu+QcoSwCwdU3ThLZtS48BMGoCgK2y+AfQDwKArXLiH0A/CAC2JsYY5vN56TEACAKALZpOpyHnXHoMAIIAYEuapgld15UeA4DXCAA2zuIfQP8IADbO4h9A/wgANqrrOif+AfSQAGBjfPQP0F8CgI2x+AfQXwKAjfDuH6DfBAAbcXx87J5/gB4TAKxd13WhaZrSYwBwEwKAtXr9o3/v/gH6TQCwVhb/AIZBALA2KSWLfwADIQBYm9ls5qN/gIGovva1rz03n8/vaprmzrZt7+q67vYQQlV6MIZlb28vnD17tvQYACxo//3vf/+vlB6C4fvpT39q8x9gQPwTAKd2eHjoxR9gYAQApxJjDAcHB6XHAGBJAoBTuXz5skf9AgyQAGBldV2H6XRaegwAViAAWEnOOVy6dKn0GACsSACwkqOjo9C2bekxAFiRAGBpFv8Ahk8AsLRLly5Z/AMYOAHAUuq6dt4/wA4QACzM4h/A7hAALOzw8NDiH8COEAAspOu6cHh4WHoMANZEALAQJ/4B7BYBwIlms5nFP4AdIwC4KYt/ALtJAHBTBwcHoeu60mMAsGYCgBtq29biH8COEgDc0OXLl0POufQYAGyAAOC6jo+Pw2w2Kz0GABsiALhGzjlcvny59BgAbJAA4BoW/wB2nwDgKk3TWPwDGAEBwFUs/gGMgwDgDdPpNNR1XXoMALZAABBCsPgHMDYCgBBCCK+88kqIMZYeA4AtEQCEtm3D0dFR6TEA2CIBQLh48aLFP4CREQAjd+XKlTCfz0uPAcCWCYARSymFV155pfQYABQgAEbs8uXLFv8ARkoAjFTTNOHKlSulxwCgkEkIwVvAkck5h4sXL5YeA4CCJiGEPys9BNs1nU5D0zSlxwCgkKqqwiSE8KelB2F7UkpO/AMYuaqq8iSE8CelB2F7Ll++HFJKpccAoKCu6+pJVVVfLz0I29E0TZhOp6XHAKCw6XT6/KTrut8PIXSlh2HznPgHQAghTKfT365CCOGFF174d1VV/c3SA7E5R0dH4dKlS6XHAKCwlNL0/Pnzt09e+8HvhBCshe8oJ/4BEMKr2/8vv/zyEyG8dhDQI4888sMQwpeLTsXGWPwDIIQQ6rr+0y984Qv/NoQ3nQR4dHT0OyGEbxabio2Yz+dO/AMghBDay5cvf/j1H7wRAI899lgXY/x8COF/FRmLtXPiHwAhhDCZTPJLL730K08++eQb7wivehbAI488crGu60dyzr+//fFYt6Ojo9C2bekxACir+dnPfvbxp59++sU3/+Q1DwN69NFHj374wx/+Vs75d0MIPjseqBhjODg4KD0GAIVUVRXquv7Bj3/847c98cQT/+OaX7/ZH37++effc+bMmd/NOf+tEMLdG5uStXv55Zcd+gMwQpPJJMzn85cPDg5+64knnvjOjX7fTQPgdc8+++z+nXfe+ddyzr8eQrg3hHBPCOHdIYQz6xmXdZrNZrdfvHjxXaXnGIuc80LfR6xXVVVOtYIQQs45tm0777ruYDqd/uemaf7Bm/+t/0b8xQWn9MUvfvG/TqfTXys9x5jcdttt3/rKV77yWOk5YMiu2QEAlhNjvKf0DGOTUnpf6Rlg6AQAnFJK6Z2lZxibnLOvOZySAIBTSindUXqGsYkx3l56Bhg6AQCnM4kxWobdshjjmQsXLuyXngOGTADAKTz99NO/5BHL25dzDoeHh79ceg4YMgEAp1BV1YOlZxgxX3s4BQEApxBj9C60kKZpfO3hFAQAnM59pQcYsV8sPQAMmQCAU4gx3lt6hrFKKfnawykIADiFlNK7S88wVr72cDoCAE4hpXRX6RnGKqV0Z+kZYMgEAJxC13XnSs8wVl3XnS09AwyZAIAVPfnkkx/wJMBycs7VU0899Qul54ChEgCwonPnzj1ceoax29vbcw1gRQIAVtR13cdLzzB2Xdd9rPQMMFQCAFYUY/xw6RkIrgGsSADA6j5YeoCxSyl9oPQMMFQCAFYUY/wLpWcYu5yzawArEgCwopTS20vPMHYxxreVngGGSgDAilJKt5aeYexijLeUngGGSgDACp555pm7Y4y+fwpLKU2+9KUvORIYVuAvMFiN+8/746HSA8AQCQBYQYzx/tIz8Kr5fO5awAoEAKwg5/yXS8/AGz5SegAYIgEAK0gp/XzpGXiVawGrEQCwgpzze0vPwKtSSq4FrEAAwApijO8oPQOvSindXXoGGCIBACtIKf1c6Rl4VYzRtYAVCABY0lNPPXWu67r90nPwqhjj3oULF24rPQcMjQCAJe3t7T1QegaudnBw8InSM8DQCABYUs7Zi03PxBhFGSxJAMCScs4fLT0DV3NNYHkCAJaUUvrF0jNwtZzzL5SeAYZGAMCSUkr3lJ6Bq8UYXRNYkgCAJaWU3lV6Bq6WUnpn6RlgaAQALCnGeEfpGbhaSsk1gSUJAFjOJMZ4tvQQXK3rujPB32ewFN8wsISnnnrqIznn0mNwHU8//fQvlZ4BhkQAwBKqqnqo9AxcX1VVD5aeAYZEAMAScs6/XHoGri/G6NrAEgQALOcvlR6AG7qv9AAwJAIAlpBSurf0DFxfjNG1gSUIAFhCjPE9pWfg+lJK7y49AwyJAIAlpJTuKj0D1+fawHIEACwhxnhL6Rm4vhjjudIzwJAIAFjQM888876UUlV6Dq4vpVQ9+eSTHyg9BwyFAIAF5ZwfKT0DN3fu3LmHS88AQyEAYEE554+XnoGb67rONYIFCQBYUErpI6Vn4OZijB8uPQMMhQCABaWUPlh6Bk70wdIDwFDslx4AhuKWW26JZ86cKT0GN7G3txdLzwBDIQBgQXfccYdPzPrPNYIF+WaBxbnFrP9cI1iQAIAFfPnLXz4XQnAMcP+968KFC7eVHgKGQADAAg4ODu4NITgEqP+qvb2995ceAoZAAMACYow+Wh4I1woWIwBgAVVVeVEZCNcKFiMAYAE5Zy8qA+FawWIEACzGi8pwuFawAAEAi/GiMhyuFSxAAMBivKgMh2sFCxAAcIKvfvWreyGE95Weg4W978KFC045hRMIADjB97///feGEDwEYDj29vf3BRucQADACbqu85HywLhmcDIBACdwX/nwuGZwMgEAJ7u39AAszTWDEwgAOIGDZYbHNYOTCQA4mReT4XHN4AQCAE7mxWR4XDM4gQCAk/n35OHx+GY4gW8QivnOd75zx5133tnrA1u+973vveMnP/nJD0rPwfLuueeeD99///1/VnqOmzk8POweffTRo9JzME4CgK3JOVff/e53z6eU/k5VVX81hPBzpWeCHpjmnP9wMpn86wceeOA/VFWVSw/EOAgAtuL5559/z/7+/n8MITxaehbosT/suu78Jz/5yf9XehB2nwBg45577rm7z549+3wI4b7Ss8AA/KBpmk9+6lOfulR6EHabJUA27uzZs/8qePGHRd139uzZf1F6CHafTwDYqBdeeOH+qqpeDP5fg2XklNIDDz/88H8vPQi7yycAbFRVVZ8PXvxhWdVkMvl86SHYbQKAjco5/5XSM8AQVVXle4eNEgBsVFVVbys9AwxRzvnu0jOw2wQAG5Vz7vVBLNBXOeeflZ6B3SYA2KjJZPJ86RlgiKqqeq70DOw2AcBG5Zz/fQihLT0HDEybc/5q6SHYbQKAjXrwwQf/JITgnmZYQs75Kw899ND/KT0Hu00AsHF33XXXP6yq6g9KzwFDUFXVH9x2222/XXoOdp8AYOPuu++++eHh4W/knH8vhJBKzwM9lXLOv3d4ePgbH/3oR5vSw7D7HNDCVr344osfyzn/7RDCr4YQ3htCuKXwSFBSnXP+v1VVfbuqqn/ziU984o9LDwQAAAAAAAAAAAAAAAAAAAAAAAAAAAAAAAAAAAAAAAAAAAAAAAAAAAAAAAAAAAAAAAAAAAAAAAAAAAAAAAAAAAAAAAAAAAAAAAAAAAAAAAAAAAAAAAAAAAAAAAAAAAAAAAAAAAD8f4b7+8zLFh+kAAAAAElFTkSuQmCC;" vertex="1" parent="iRG5U3GbNzpCpeT_m5hG-1">
          <mxGeometry x="110" y="50" width="170" height="170" as="geometry" />
        </mxCell>
        <mxCell id="iRG5U3GbNzpCpeT_m5hG-4" value="" style="shape=image;verticalLabelPosition=bottom;labelBackgroundColor=default;verticalAlign=top;aspect=fixed;imageAspect=0;image=data:image/png,iVBORw0KGgoAAAANSUhEUgAAAgAAAAIACAYAAAD0eNT6AAAABHNCSVQICAgIfAhkiAAAAAlwSFlzAAAOxAAADsQBlSsOGwAAABl0RVh0U29mdHdhcmUAd3d3Lmlua3NjYXBlLm9yZ5vuPBoAABgQSURBVHic7d1brGX3fdDx/9rnzIzt+pI4N0gcJ01rEpQ2wY4vaWRo3IfSEMVVHyZIvCCEhBU5lmURqCr1YSQeeIAXIiKgL4gHJAiISFSKUCTiNI1cI8sRKUKgRCUXmUaknhmfc2afvfZa6///8+BLPZ7L2Xufvfd/rb0+nyfPTfrpLJ/Z373nt/4rBAAAAAAAAAAAAAAAAAAAAAAAAAAAAAAAAAAAAAAAAAAAAAAAAAAAAAAAAAAAAAAAAAAAAAAAAAAAAAAAAAAAAAAAAAAAAAAAAAAAAAAAAAAAAAAAAAAAAAAAAAAAAAAAAAAAAK6vWuQ3ffazn317VVV/YzKZ/HrO+QMhhPeEEN696J8HKKVt2/0rV67cXnoO2JSqqtqqqo4nk8nFqqr+y6233vpPvv71r//4xD93s1/83Oc+95Gqqv5Rzvk3Qwhn1jYtwBbknMPh4WGIMZYeBbZqf3//pb29vb/7zW9+8xs3+j3XDYDz58/fWtf1Pw0h/L0Qwv6mBgTYpLquw/HxcekxoJizZ8/+cc75V7/1rW+98tZfuyYAHn/88ffmnL8WQnh4K9MBbEBKKRwcHIScc+lRoKi9vb3ZLbfc8tg3vvGN//bmn78qAD7zmc/cc+bMmT/KOd+z3fEA1uvKlSuhaZrSY0AvTCaTuL+//8izzz774hs/9/p/nD9//tb9/f3/5MUfGLq2bb34w5uklPa6rvv2pz/96Xe+/nNvBMBsNvvnIYSHikwGsEb+3R+ulVK6Lef87dd/vBdCCI8//vjHQgj/MritDxi42Wzm3T/cQM75XR/60If+949+9KP/OXntJ/5xeNOnAQBDlFIKdV2XHgN6K+cccs7/LIQQqte2/l8K3v0DA3d0dBTati09BvRaVVXh1ltvvX8SQvjN4MUfGLimabz4wwJyziGl9PcnOee/XnoYgNPIOYfZbFZ6DBiMrut+bRJC+PnSgwCcRl3XjvuFJeSc3z4JIfzF0oMArCrG6N0/LCmldG4SQnhH6UEAVuWef1jJZBLc/gcMlMU/WE3O2Ys/MEw5Z+/+4RQEADBIs9kspJRKjwGDJQCAwYkxhvl8XnoMGDQBAAzO8fFxyDmXHgMGTQAAg2LxD9ZDAACDYfEP1kcAAINh8Q/WRwAAg9B1nUf9whoJAGAQHPcL6yUAgN6bz+cW/2DNBADQaxb/YDMEANBr7vmHzRAAQG858Q82RwAAvZRzDtPptPQYsLMEANBLTdOErutKjwE7SwAAvZNSsvgHGyYAgN6ZzWYW/2DDBADQK13XhaZpSo8BO08AAL0ynU69+4ctEABAb9R1HWKMpceAURAAQC+klJz3D1skAIBecOIfbJcAAIqz+AfbJwCA4pz4B9snAICiLP5BGQIAKMbiH5QjAIBiLP5BOQIAKKJtW4t/UJAAALYu5+xhP1CYAAC2zuIflCcAgK2y+Af9IACArfLRP/SDAAC2xuIf9IcAALYi5+zEP+gRAQBsRV3XIaVUegzgNQIA2LgYo8U/6BkBAGycF3/oHwEAbFTTNBb/oIcEALAxOWfv/qGnBACwMbPZzIl/0FMCANiIlFKo67r0GMANCABgI9zzD/0mAIC1a5omtG1begzgJgQAsFYe9QvDIACAtZrNZk78gwEQAMDaxBjDfD4vPQawAAEArM10Og0559JjAAsQAMBazOfz0HVd6TGABQkA4NSc+AfDIwCAUzs+Prb4BwMjAIBTsfgHwyQAgJXlnJ34BwMlAICVWfyD4RIAwEos/sGwCQBgJcfHx+75hwETAMDSuq4LTdOUHgM4BQEALOX1h/149w/DJgCApVj8g90gAICFpZQs/sGOEADAwnz0D7tDAAALsfgHu0UAAAtx4h/sFgEAnKiu6xBjLD0GsEYCALipnHOo67r0GMCaCQDgpqbTqUf9wg4SAMANWfyD3SUAgOvyqF/YbQIAuC6Lf7DbBABwjZSSxT/YcQIAuMZ0OnXiH+w4AQBcpW3b0LZt6TGADRMAwFUs/sE4CADgDbPZzD3/MBICAAghWPyDsREAQAjB4h+MjQAAQtM0Fv9gZAQAjFzOORwfH5ceA9gyAQAjV9e1xT8YIQEAI5ZSCrPZrPQYQAECAEbMPf8wXgIARsriH4ybAIARsvgHCAAYISf+AQIARibGGObzeekxgMIEAIzM8fGxE/8AAQBjMp/PLf4BIQQBAKORc3bPP/AGAQAjYfEPeDMBACPQdZ1H/QJXEQAwAu75B95KAMCOm8/noeu60mMAPSMAYIc58Q+4EQEAO8w9/8CNCADYUU78A25GAMAOyjl71C9wUwIAdpDFP+AkAgB2TErJPf/AiQQA7Bgn/gGLEACwQ9q2tfgHLEQAwA5xzz+wKAEAO6Ku6xBjLD0GMBACAHZASsmjfoGlCADYAU78A5YlAGDguq4LTdOUHgMYGAEAA2fxD1iFAIABm81mTvwDViIAYKCc+AechgCAgbL4B5yGAIABatvW4h9wKgIABibnbPEPODUBAAMzn8+d+AecmgCAAUkpefcPrIUAgAGZTqelRwB2hACAgWjbNrRtW3oMYEcIABiAnLN3/8BaCQAYgLquQ0qp9BjADhEA0HMxRo/6BdZOAEDP2foHNkEAQI81TWPxD9gIAQA9lXP20T+wMQIAeqquayf+ARsjAKCHUkre/QMbJQCgh9zzD2yaAICesfgHbIMAgB7xqF9gWwQA9MhsNnPiH7AVAgB6IsYY5vN56TGAkRAA0BPT6TTknEuPAYyEAIAemM/noeu60mMAIyIAoDD3/AMlCAAozOIfUIIAgIIs/gGlCAAoJOfsxD+gGAEAhTRNY/EPKEYAQAFO/ANKEwBQwPHxsXv+gaIEAGxZ13WhaZrSYwAjJwBgy7z7B/pAAMAW1XVt8Q/oBQEAW+LEP6BPBABsiY/+gT4RALAFFv+AvhEAsAVO/AP6RgDAhtV1HWKMpccAuIoAgA3KOYe6rkuPAXANAQAbNJ1OPeoX6CUBABvStq3FP6C3BABsgIf9AH0nAGADLP4BfScAYM2c+AcMgQCANXPPPzAEAgDWqG3b0LZt6TEATiQAYI28+weGQgDAmsxmM/f8A4MhAGANYowW/4BBEQCwBu75B4ZGAMApWfwDhkgAwCnknC3+AYMkAOAU6rq2+AcMkgCAFTnxDxgyAQAr8tE/MGQCAFbQNI3FP2DQBAAsyaN+gV0gAGBJTvwDdoEAgCXEGMN8Pi89BsCpCQBYwvHxccg5lx4D4NQEACzI4h+wSwQALMDiH7BrBAAswOIfsGsEAJyg67pQ13XpMQDWSgDACXz0D+wiAQA3MZ/PQ9d1pccAWDsBADdg8Q/YZQIAbsA9/8AuEwBwHV3XhaZpSo8BsDECAN7i9Y/+vfsHdpkAgLdomsbiH7DzBAC8SUopzGaz0mMAbJwAgDdx4h8wFgIAXtN1nUf9AqMhAOA10+m09AgAWyMAIIRQ13WIMZYeA2BrBACjl3P2sB9gdAQAozedTi3+AaMjABi1tm2d+AeMkgBg1NzzD4yVAGC0ZrOZE/+A0RIAjFJKyeIfMGoCgFHysB9g7AQAo2PxD0AAMDKvP+oXYOwEAKPixD+AVwkARsOjfgH+nABgNDzsB+DPCQBGoW3b0LZt6TEAekMAsPNyzt79A7yFAGDnzWYzD/sBeAsBwE6LMTrxD+A6BAA7zT3/ANcnANhZTdNY/AO4AQHATnLiH8DNCQB2Ul3XFv8AbkIAsHMs/gGcTACwczzqF+BkAoCdYvEPYDECgJ1h8Q9gcQKAneHEP4DFCQB2QowxzOfz0mMADIYAYCdMp1OLfwBLEAAM3nw+D13XlR4DYFAEAIOWcw6z2az0GACDIwAYNIt/AKsRAAyWE/8AVicAGKScc5hOp6XHABgsAcAgNU1j8Q/gFAQAg5NScuIfwCkJAAZnNpu55x/glAQAg9J1XWiapvQYAIMnABgUj/oFWA8BwGDUdW3xD2BNBACDkFJy4h/AGgkABsHiH8B6CQB6r+s6j/oFWDMBQO858Q9g/QQAvVbXdYgxlh4DYOcIAHrLo34BNkcA0FvT6dTiH8CGCAB6qW1bJ/4BbJAAoHdyzh72A7BhAoDesfgHsHkCgF5x4h/AdggAesVH/wDbIQDoDYt/ANsjAOgNJ/4BbI8AoBdms1lIKZUeA2A0BADFxRgt/gFsmQCgOC/+ANsnACjK4h9AGQKAYpz4B1COAKCY2WzmxD+AQgQARaSUQl3XpccAGC0BQBHu+QcoSwCwdU3ThLZtS48BMGoCgK2y+AfQDwKArXLiH0A/CAC2JsYY5vN56TEACAKALZpOpyHnXHoMAIIAYEuapgld15UeA4DXCAA2zuIfQP8IADbO4h9A/wgANqrrOif+AfSQAGBjfPQP0F8CgI2x+AfQXwKAjfDuH6DfBAAbcXx87J5/gB4TAKxd13WhaZrSYwBwEwKAtXr9o3/v/gH6TQCwVhb/AIZBALA2KSWLfwADIQBYm9ls5qN/gIGovva1rz03n8/vaprmzrZt7+q67vYQQlV6MIZlb28vnD17tvQYACxo//3vf/+vlB6C4fvpT39q8x9gQPwTAKd2eHjoxR9gYAQApxJjDAcHB6XHAGBJAoBTuXz5skf9AgyQAGBldV2H6XRaegwAViAAWEnOOVy6dKn0GACsSACwkqOjo9C2bekxAFiRAGBpFv8Ahk8AsLRLly5Z/AMYOAHAUuq6dt4/wA4QACzM4h/A7hAALOzw8NDiH8COEAAspOu6cHh4WHoMANZEALAQJ/4B7BYBwIlms5nFP4AdIwC4KYt/ALtJAHBTBwcHoeu60mMAsGYCgBtq29biH8COEgDc0OXLl0POufQYAGyAAOC6jo+Pw2w2Kz0GABsiALhGzjlcvny59BgAbJAA4BoW/wB2nwDgKk3TWPwDGAEBwFUs/gGMgwDgDdPpNNR1XXoMALZAABBCsPgHMDYCgBBCCK+88kqIMZYeA4AtEQCEtm3D0dFR6TEA2CIBQLh48aLFP4CREQAjd+XKlTCfz0uPAcCWCYARSymFV155pfQYABQgAEbs8uXLFv8ARkoAjFTTNOHKlSulxwCgkEkIwVvAkck5h4sXL5YeA4CCJiGEPys9BNs1nU5D0zSlxwCgkKqqwiSE8KelB2F7UkpO/AMYuaqq8iSE8CelB2F7Ll++HFJKpccAoKCu6+pJVVVfLz0I29E0TZhOp6XHAKCw6XT6/KTrut8PIXSlh2HznPgHQAghTKfT365CCOGFF174d1VV/c3SA7E5R0dH4dKlS6XHAKCwlNL0/Pnzt09e+8HvhBCshe8oJ/4BEMKr2/8vv/zyEyG8dhDQI4888sMQwpeLTsXGWPwDIIQQ6rr+0y984Qv/NoQ3nQR4dHT0OyGEbxabio2Yz+dO/AMghBDay5cvf/j1H7wRAI899lgXY/x8COF/FRmLtXPiHwAhhDCZTPJLL730K08++eQb7wivehbAI488crGu60dyzr+//fFYt6Ojo9C2bekxACir+dnPfvbxp59++sU3/+Q1DwN69NFHj374wx/+Vs75d0MIPjseqBhjODg4KD0GAIVUVRXquv7Bj3/847c98cQT/+OaX7/ZH37++effc+bMmd/NOf+tEMLdG5uStXv55Zcd+gMwQpPJJMzn85cPDg5+64knnvjOjX7fTQPgdc8+++z+nXfe+ddyzr8eQrg3hHBPCOHdIYQz6xmXdZrNZrdfvHjxXaXnGIuc80LfR6xXVVVOtYIQQs45tm0777ruYDqd/uemaf7Bm/+t/0b8xQWn9MUvfvG/TqfTXys9x5jcdttt3/rKV77yWOk5YMiu2QEAlhNjvKf0DGOTUnpf6Rlg6AQAnFJK6Z2lZxibnLOvOZySAIBTSindUXqGsYkx3l56Bhg6AQCnM4kxWobdshjjmQsXLuyXngOGTADAKTz99NO/5BHL25dzDoeHh79ceg4YMgEAp1BV1YOlZxgxX3s4BQEApxBj9C60kKZpfO3hFAQAnM59pQcYsV8sPQAMmQCAU4gx3lt6hrFKKfnawykIADiFlNK7S88wVr72cDoCAE4hpXRX6RnGKqV0Z+kZYMgEAJxC13XnSs8wVl3XnS09AwyZAIAVPfnkkx/wJMBycs7VU0899Qul54ChEgCwonPnzj1ceoax29vbcw1gRQIAVtR13cdLzzB2Xdd9rPQMMFQCAFYUY/xw6RkIrgGsSADA6j5YeoCxSyl9oPQMMFQCAFYUY/wLpWcYu5yzawArEgCwopTS20vPMHYxxreVngGGSgDAilJKt5aeYexijLeUngGGSgDACp555pm7Y4y+fwpLKU2+9KUvORIYVuAvMFiN+8/746HSA8AQCQBYQYzx/tIz8Kr5fO5awAoEAKwg5/yXS8/AGz5SegAYIgEAK0gp/XzpGXiVawGrEQCwgpzze0vPwKtSSq4FrEAAwApijO8oPQOvSindXXoGGCIBACtIKf1c6Rl4VYzRtYAVCABY0lNPPXWu67r90nPwqhjj3oULF24rPQcMjQCAJe3t7T1QegaudnBw8InSM8DQCABYUs7Zi03PxBhFGSxJAMCScs4fLT0DV3NNYHkCAJaUUvrF0jNwtZzzL5SeAYZGAMCSUkr3lJ6Bq8UYXRNYkgCAJaWU3lV6Bq6WUnpn6RlgaAQALCnGeEfpGbhaSsk1gSUJAFjOJMZ4tvQQXK3rujPB32ewFN8wsISnnnrqIznn0mNwHU8//fQvlZ4BhkQAwBKqqnqo9AxcX1VVD5aeAYZEAMAScs6/XHoGri/G6NrAEgQALOcvlR6AG7qv9AAwJAIAlpBSurf0DFxfjNG1gSUIAFhCjPE9pWfg+lJK7y49AwyJAIAlpJTuKj0D1+fawHIEACwhxnhL6Rm4vhjjudIzwJAIAFjQM888876UUlV6Dq4vpVQ9+eSTHyg9BwyFAIAF5ZwfKT0DN3fu3LmHS88AQyEAYEE554+XnoGb67rONYIFCQBYUErpI6Vn4OZijB8uPQMMhQCABaWUPlh6Bk70wdIDwFDslx4AhuKWW26JZ86cKT0GN7G3txdLzwBDIQBgQXfccYdPzPrPNYIF+WaBxbnFrP9cI1iQAIAFfPnLXz4XQnAMcP+968KFC7eVHgKGQADAAg4ODu4NITgEqP+qvb2995ceAoZAAMACYow+Wh4I1woWIwBgAVVVeVEZCNcKFiMAYAE5Zy8qA+FawWIEACzGi8pwuFawAAEAi/GiMhyuFSxAAMBivKgMh2sFCxAAcIKvfvWreyGE95Weg4W978KFC045hRMIADjB97///feGEDwEYDj29vf3BRucQADACbqu85HywLhmcDIBACdwX/nwuGZwMgEAJ7u39AAszTWDEwgAOIGDZYbHNYOTCQA4mReT4XHN4AQCAE7mxWR4XDM4gQCAk/n35OHx+GY4gW8QivnOd75zx5133tnrA1u+973vveMnP/nJD0rPwfLuueeeD99///1/VnqOmzk8POweffTRo9JzME4CgK3JOVff/e53z6eU/k5VVX81hPBzpWeCHpjmnP9wMpn86wceeOA/VFWVSw/EOAgAtuL5559/z/7+/n8MITxaehbosT/suu78Jz/5yf9XehB2nwBg45577rm7z549+3wI4b7Ss8AA/KBpmk9+6lOfulR6EHabJUA27uzZs/8qePGHRd139uzZf1F6CHafTwDYqBdeeOH+qqpeDP5fg2XklNIDDz/88H8vPQi7yycAbFRVVZ8PXvxhWdVkMvl86SHYbQKAjco5/5XSM8AQVVXle4eNEgBsVFVVbys9AwxRzvnu0jOw2wQAG5Vz7vVBLNBXOeeflZ6B3SYA2KjJZPJ86RlgiKqqeq70DOw2AcBG5Zz/fQihLT0HDEybc/5q6SHYbQKAjXrwwQf/JITgnmZYQs75Kw899ND/KT0Hu00AsHF33XXXP6yq6g9KzwFDUFXVH9x2222/XXoOdp8AYOPuu++++eHh4W/knH8vhJBKzwM9lXLOv3d4ePgbH/3oR5vSw7D7HNDCVr344osfyzn/7RDCr4YQ3htCuKXwSFBSnXP+v1VVfbuqqn/ziU984o9LDwQAAAAAAAAAAAAAAAAAAAAAAAAAAAAAAAAAAAAAAAAAAAAAAAAAAAAAAAAAAAAAAAAAAAAAAAAAAAAAAAAAAAAAAAAAAAAAAAAAAAAAAAAAAAAAAAAAAAAAAAAAAAAAAAAAAAD8f4b7+8zLFh+kAAAAAElFTkSuQmCC;" vertex="1" parent="iRG5U3GbNzpCpeT_m5hG-1">
          <mxGeometry x="120" y="340" width="170" height="170" as="geometry" />
        </mxCell>
        <mxCell id="iRG5U3GbNzpCpeT_m5hG-5" style="edgeStyle=orthogonalEdgeStyle;rounded=0;orthogonalLoop=1;jettySize=auto;html=1;entryX=0.5;entryY=1;entryDx=0;entryDy=0;strokeWidth=2;" edge="1" parent="iRG5U3GbNzpCpeT_m5hG-1" source="iRG5U3GbNzpCpeT_m5hG-6" target="iRG5U3GbNzpCpeT_m5hG-11">
          <mxGeometry relative="1" as="geometry" />
        </mxCell>
        <mxCell id="iRG5U3GbNzpCpeT_m5hG-6" value="" style="shape=image;verticalLabelPosition=bottom;labelBackgroundColor=default;verticalAlign=top;aspect=fixed;imageAspect=0;image=data:image/png,iVBORw0KGgoAAAANSUhEUgAAAgAAAAIACAYAAAD0eNT6AAAABHNCSVQICAgIfAhkiAAAAAlwSFlzAAAOxAAADsQBlSsOGwAAABl0RVh0U29mdHdhcmUAd3d3Lmlua3NjYXBlLm9yZ5vuPBoAABgQSURBVHic7d1brGX3fdDx/9rnzIzt+pI4N0gcJ01rEpQ2wY4vaWRo3IfSEMVVHyZIvCCEhBU5lmURqCr1YSQeeIAXIiKgL4gHJAiISFSKUCTiNI1cI8sRKUKgRCUXmUaknhmfc2afvfZa6///8+BLPZ7L2Xufvfd/rb0+nyfPTfrpLJ/Z373nt/4rBAAAAAAAAAAAAAAAAAAAAAAAAAAAAAAAAAAAAAAAAAAAAAAAAAAAAAAAAAAAAAAAAAAAAAAAAAAAAAAAAAAAAAAAAAAAAAAAAAAAAAAAAAAAAAAAAAAAAAAAAAAAAAAAAAAAAK6vWuQ3ffazn317VVV/YzKZ/HrO+QMhhPeEEN696J8HKKVt2/0rV67cXnoO2JSqqtqqqo4nk8nFqqr+y6233vpPvv71r//4xD93s1/83Oc+95Gqqv5Rzvk3Qwhn1jYtwBbknMPh4WGIMZYeBbZqf3//pb29vb/7zW9+8xs3+j3XDYDz58/fWtf1Pw0h/L0Qwv6mBgTYpLquw/HxcekxoJizZ8/+cc75V7/1rW+98tZfuyYAHn/88ffmnL8WQnh4K9MBbEBKKRwcHIScc+lRoKi9vb3ZLbfc8tg3vvGN//bmn78qAD7zmc/cc+bMmT/KOd+z3fEA1uvKlSuhaZrSY0AvTCaTuL+//8izzz774hs/9/p/nD9//tb9/f3/5MUfGLq2bb34w5uklPa6rvv2pz/96Xe+/nNvBMBsNvvnIYSHikwGsEb+3R+ulVK6Lef87dd/vBdCCI8//vjHQgj/MritDxi42Wzm3T/cQM75XR/60If+949+9KP/OXntJ/5xeNOnAQBDlFIKdV2XHgN6K+cccs7/LIQQqte2/l8K3v0DA3d0dBTati09BvRaVVXh1ltvvX8SQvjN4MUfGLimabz4wwJyziGl9PcnOee/XnoYgNPIOYfZbFZ6DBiMrut+bRJC+PnSgwCcRl3XjvuFJeSc3z4JIfzF0oMArCrG6N0/LCmldG4SQnhH6UEAVuWef1jJZBLc/gcMlMU/WE3O2Ys/MEw5Z+/+4RQEADBIs9kspJRKjwGDJQCAwYkxhvl8XnoMGDQBAAzO8fFxyDmXHgMGTQAAg2LxD9ZDAACDYfEP1kcAAINh8Q/WRwAAg9B1nUf9whoJAGAQHPcL6yUAgN6bz+cW/2DNBADQaxb/YDMEANBr7vmHzRAAQG858Q82RwAAvZRzDtPptPQYsLMEANBLTdOErutKjwE7SwAAvZNSsvgHGyYAgN6ZzWYW/2DDBADQK13XhaZpSo8BO08AAL0ynU69+4ctEABAb9R1HWKMpceAURAAQC+klJz3D1skAIBecOIfbJcAAIqz+AfbJwCA4pz4B9snAICiLP5BGQIAKMbiH5QjAIBiLP5BOQIAKKJtW4t/UJAAALYu5+xhP1CYAAC2zuIflCcAgK2y+Af9IACArfLRP/SDAAC2xuIf9IcAALYi5+zEP+gRAQBsRV3XIaVUegzgNQIA2LgYo8U/6BkBAGycF3/oHwEAbFTTNBb/oIcEALAxOWfv/qGnBACwMbPZzIl/0FMCANiIlFKo67r0GMANCABgI9zzD/0mAIC1a5omtG1begzgJgQAsFYe9QvDIACAtZrNZk78gwEQAMDaxBjDfD4vPQawAAEArM10Og0559JjAAsQAMBazOfz0HVd6TGABQkA4NSc+AfDIwCAUzs+Prb4BwMjAIBTsfgHwyQAgJXlnJ34BwMlAICVWfyD4RIAwEos/sGwCQBgJcfHx+75hwETAMDSuq4LTdOUHgM4BQEALOX1h/149w/DJgCApVj8g90gAICFpZQs/sGOEADAwnz0D7tDAAALsfgHu0UAAAtx4h/sFgEAnKiu6xBjLD0GsEYCALipnHOo67r0GMCaCQDgpqbTqUf9wg4SAMANWfyD3SUAgOvyqF/YbQIAuC6Lf7DbBABwjZSSxT/YcQIAuMZ0OnXiH+w4AQBcpW3b0LZt6TGADRMAwFUs/sE4CADgDbPZzD3/MBICAAghWPyDsREAQAjB4h+MjQAAQtM0Fv9gZAQAjFzOORwfH5ceA9gyAQAjV9e1xT8YIQEAI5ZSCrPZrPQYQAECAEbMPf8wXgIARsriH4ybAIARsvgHCAAYISf+AQIARibGGObzeekxgMIEAIzM8fGxE/8AAQBjMp/PLf4BIQQBAKORc3bPP/AGAQAjYfEPeDMBACPQdZ1H/QJXEQAwAu75B95KAMCOm8/noeu60mMAPSMAYIc58Q+4EQEAO8w9/8CNCADYUU78A25GAMAOyjl71C9wUwIAdpDFP+AkAgB2TErJPf/AiQQA7Bgn/gGLEACwQ9q2tfgHLEQAwA5xzz+wKAEAO6Ku6xBjLD0GMBACAHZASsmjfoGlCADYAU78A5YlAGDguq4LTdOUHgMYGAEAA2fxD1iFAIABm81mTvwDViIAYKCc+AechgCAgbL4B5yGAIABatvW4h9wKgIABibnbPEPODUBAAMzn8+d+AecmgCAAUkpefcPrIUAgAGZTqelRwB2hACAgWjbNrRtW3oMYEcIABiAnLN3/8BaCQAYgLquQ0qp9BjADhEA0HMxRo/6BdZOAEDP2foHNkEAQI81TWPxD9gIAQA9lXP20T+wMQIAeqquayf+ARsjAKCHUkre/QMbJQCgh9zzD2yaAICesfgHbIMAgB7xqF9gWwQA9MhsNnPiH7AVAgB6IsYY5vN56TGAkRAA0BPT6TTknEuPAYyEAIAemM/noeu60mMAIyIAoDD3/AMlCAAozOIfUIIAgIIs/gGlCAAoJOfsxD+gGAEAhTRNY/EPKEYAQAFO/ANKEwBQwPHxsXv+gaIEAGxZ13WhaZrSYwAjJwBgy7z7B/pAAMAW1XVt8Q/oBQEAW+LEP6BPBABsiY/+gT4RALAFFv+AvhEAsAVO/AP6RgDAhtV1HWKMpccAuIoAgA3KOYe6rkuPAXANAQAbNJ1OPeoX6CUBABvStq3FP6C3BABsgIf9AH0nAGADLP4BfScAYM2c+AcMgQCANXPPPzAEAgDWqG3b0LZt6TEATiQAYI28+weGQgDAmsxmM/f8A4MhAGANYowW/4BBEQCwBu75B4ZGAMApWfwDhkgAwCnknC3+AYMkAOAU6rq2+AcMkgCAFTnxDxgyAQAr8tE/MGQCAFbQNI3FP2DQBAAsyaN+gV0gAGBJTvwDdoEAgCXEGMN8Pi89BsCpCQBYwvHxccg5lx4D4NQEACzI4h+wSwQALMDiH7BrBAAswOIfsGsEAJyg67pQ13XpMQDWSgDACXz0D+wiAQA3MZ/PQ9d1pccAWDsBADdg8Q/YZQIAbsA9/8AuEwBwHV3XhaZpSo8BsDECAN7i9Y/+vfsHdpkAgLdomsbiH7DzBAC8SUopzGaz0mMAbJwAgDdx4h8wFgIAXtN1nUf9AqMhAOA10+m09AgAWyMAIIRQ13WIMZYeA2BrBACjl3P2sB9gdAQAozedTi3+AaMjABi1tm2d+AeMkgBg1NzzD4yVAGC0ZrOZE/+A0RIAjFJKyeIfMGoCgFHysB9g7AQAo2PxD0AAMDKvP+oXYOwEAKPixD+AVwkARsOjfgH+nABgNDzsB+DPCQBGoW3b0LZt6TEAekMAsPNyzt79A7yFAGDnzWYzD/sBeAsBwE6LMTrxD+A6BAA7zT3/ANcnANhZTdNY/AO4AQHATnLiH8DNCQB2Ul3XFv8AbkIAsHMs/gGcTACwczzqF+BkAoCdYvEPYDECgJ1h8Q9gcQKAneHEP4DFCQB2QowxzOfz0mMADIYAYCdMp1OLfwBLEAAM3nw+D13XlR4DYFAEAIOWcw6z2az0GACDIwAYNIt/AKsRAAyWE/8AVicAGKScc5hOp6XHABgsAcAgNU1j8Q/gFAQAg5NScuIfwCkJAAZnNpu55x/glAQAg9J1XWiapvQYAIMnABgUj/oFWA8BwGDUdW3xD2BNBACDkFJy4h/AGgkABsHiH8B6CQB6r+s6j/oFWDMBQO858Q9g/QQAvVbXdYgxlh4DYOcIAHrLo34BNkcA0FvT6dTiH8CGCAB6qW1bJ/4BbJAAoHdyzh72A7BhAoDesfgHsHkCgF5x4h/AdggAesVH/wDbIQDoDYt/ANsjAOgNJ/4BbI8AoBdms1lIKZUeA2A0BADFxRgt/gFsmQCgOC/+ANsnACjK4h9AGQKAYpz4B1COAKCY2WzmxD+AQgQARaSUQl3XpccAGC0BQBHu+QcoSwCwdU3ThLZtS48BMGoCgK2y+AfQDwKArXLiH0A/CAC2JsYY5vN56TEACAKALZpOpyHnXHoMAIIAYEuapgld15UeA4DXCAA2zuIfQP8IADbO4h9A/wgANqrrOif+AfSQAGBjfPQP0F8CgI2x+AfQXwKAjfDuH6DfBAAbcXx87J5/gB4TAKxd13WhaZrSYwBwEwKAtXr9o3/v/gH6TQCwVhb/AIZBALA2KSWLfwADIQBYm9ls5qN/gIGovva1rz03n8/vaprmzrZt7+q67vYQQlV6MIZlb28vnD17tvQYACxo//3vf/+vlB6C4fvpT39q8x9gQPwTAKd2eHjoxR9gYAQApxJjDAcHB6XHAGBJAoBTuXz5skf9AgyQAGBldV2H6XRaegwAViAAWEnOOVy6dKn0GACsSACwkqOjo9C2bekxAFiRAGBpFv8Ahk8AsLRLly5Z/AMYOAHAUuq6dt4/wA4QACzM4h/A7hAALOzw8NDiH8COEAAspOu6cHh4WHoMANZEALAQJ/4B7BYBwIlms5nFP4AdIwC4KYt/ALtJAHBTBwcHoeu60mMAsGYCgBtq29biH8COEgDc0OXLl0POufQYAGyAAOC6jo+Pw2w2Kz0GABsiALhGzjlcvny59BgAbJAA4BoW/wB2nwDgKk3TWPwDGAEBwFUs/gGMgwDgDdPpNNR1XXoMALZAABBCsPgHMDYCgBBCCK+88kqIMZYeA4AtEQCEtm3D0dFR6TEA2CIBQLh48aLFP4CREQAjd+XKlTCfz0uPAcCWCYARSymFV155pfQYABQgAEbs8uXLFv8ARkoAjFTTNOHKlSulxwCgkEkIwVvAkck5h4sXL5YeA4CCJiGEPys9BNs1nU5D0zSlxwCgkKqqwiSE8KelB2F7UkpO/AMYuaqq8iSE8CelB2F7Ll++HFJKpccAoKCu6+pJVVVfLz0I29E0TZhOp6XHAKCw6XT6/KTrut8PIXSlh2HznPgHQAghTKfT365CCOGFF174d1VV/c3SA7E5R0dH4dKlS6XHAKCwlNL0/Pnzt09e+8HvhBCshe8oJ/4BEMKr2/8vv/zyEyG8dhDQI4888sMQwpeLTsXGWPwDIIQQ6rr+0y984Qv/NoQ3nQR4dHT0OyGEbxabio2Yz+dO/AMghBDay5cvf/j1H7wRAI899lgXY/x8COF/FRmLtXPiHwAhhDCZTPJLL730K08++eQb7wivehbAI488crGu60dyzr+//fFYt6Ojo9C2bekxACir+dnPfvbxp59++sU3/+Q1DwN69NFHj374wx/+Vs75d0MIPjseqBhjODg4KD0GAIVUVRXquv7Bj3/847c98cQT/+OaX7/ZH37++effc+bMmd/NOf+tEMLdG5uStXv55Zcd+gMwQpPJJMzn85cPDg5+64knnvjOjX7fTQPgdc8+++z+nXfe+ddyzr8eQrg3hHBPCOHdIYQz6xmXdZrNZrdfvHjxXaXnGIuc80LfR6xXVVVOtYIQQs45tm0777ruYDqd/uemaf7Bm/+t/0b8xQWn9MUvfvG/TqfTXys9x5jcdttt3/rKV77yWOk5YMiu2QEAlhNjvKf0DGOTUnpf6Rlg6AQAnFJK6Z2lZxibnLOvOZySAIBTSindUXqGsYkx3l56Bhg6AQCnM4kxWobdshjjmQsXLuyXngOGTADAKTz99NO/5BHL25dzDoeHh79ceg4YMgEAp1BV1YOlZxgxX3s4BQEApxBj9C60kKZpfO3hFAQAnM59pQcYsV8sPQAMmQCAU4gx3lt6hrFKKfnawykIADiFlNK7S88wVr72cDoCAE4hpXRX6RnGKqV0Z+kZYMgEAJxC13XnSs8wVl3XnS09AwyZAIAVPfnkkx/wJMBycs7VU0899Qul54ChEgCwonPnzj1ceoax29vbcw1gRQIAVtR13cdLzzB2Xdd9rPQMMFQCAFYUY/xw6RkIrgGsSADA6j5YeoCxSyl9oPQMMFQCAFYUY/wLpWcYu5yzawArEgCwopTS20vPMHYxxreVngGGSgDAilJKt5aeYexijLeUngGGSgDACp555pm7Y4y+fwpLKU2+9KUvORIYVuAvMFiN+8/746HSA8AQCQBYQYzx/tIz8Kr5fO5awAoEAKwg5/yXS8/AGz5SegAYIgEAK0gp/XzpGXiVawGrEQCwgpzze0vPwKtSSq4FrEAAwApijO8oPQOvSindXXoGGCIBACtIKf1c6Rl4VYzRtYAVCABY0lNPPXWu67r90nPwqhjj3oULF24rPQcMjQCAJe3t7T1QegaudnBw8InSM8DQCABYUs7Zi03PxBhFGSxJAMCScs4fLT0DV3NNYHkCAJaUUvrF0jNwtZzzL5SeAYZGAMCSUkr3lJ6Bq8UYXRNYkgCAJaWU3lV6Bq6WUnpn6RlgaAQALCnGeEfpGbhaSsk1gSUJAFjOJMZ4tvQQXK3rujPB32ewFN8wsISnnnrqIznn0mNwHU8//fQvlZ4BhkQAwBKqqnqo9AxcX1VVD5aeAYZEAMAScs6/XHoGri/G6NrAEgQALOcvlR6AG7qv9AAwJAIAlpBSurf0DFxfjNG1gSUIAFhCjPE9pWfg+lJK7y49AwyJAIAlpJTuKj0D1+fawHIEACwhxnhL6Rm4vhjjudIzwJAIAFjQM888876UUlV6Dq4vpVQ9+eSTHyg9BwyFAIAF5ZwfKT0DN3fu3LmHS88AQyEAYEE554+XnoGb67rONYIFCQBYUErpI6Vn4OZijB8uPQMMhQCABaWUPlh6Bk70wdIDwFDslx4AhuKWW26JZ86cKT0GN7G3txdLzwBDIQBgQXfccYdPzPrPNYIF+WaBxbnFrP9cI1iQAIAFfPnLXz4XQnAMcP+968KFC7eVHgKGQADAAg4ODu4NITgEqP+qvb2995ceAoZAAMACYow+Wh4I1woWIwBgAVVVeVEZCNcKFiMAYAE5Zy8qA+FawWIEACzGi8pwuFawAAEAi/GiMhyuFSxAAMBivKgMh2sFCxAAcIKvfvWreyGE95Weg4W978KFC045hRMIADjB97///feGEDwEYDj29vf3BRucQADACbqu85HywLhmcDIBACdwX/nwuGZwMgEAJ7u39AAszTWDEwgAOIGDZYbHNYOTCQA4mReT4XHN4AQCAE7mxWR4XDM4gQCAk/n35OHx+GY4gW8QivnOd75zx5133tnrA1u+973vveMnP/nJD0rPwfLuueeeD99///1/VnqOmzk8POweffTRo9JzME4CgK3JOVff/e53z6eU/k5VVX81hPBzpWeCHpjmnP9wMpn86wceeOA/VFWVSw/EOAgAtuL5559/z/7+/n8MITxaehbosT/suu78Jz/5yf9XehB2nwBg45577rm7z549+3wI4b7Ss8AA/KBpmk9+6lOfulR6EHabJUA27uzZs/8qePGHRd139uzZf1F6CHafTwDYqBdeeOH+qqpeDP5fg2XklNIDDz/88H8vPQi7yycAbFRVVZ8PXvxhWdVkMvl86SHYbQKAjco5/5XSM8AQVVXle4eNEgBsVFVVbys9AwxRzvnu0jOw2wQAG5Vz7vVBLNBXOeeflZ6B3SYA2KjJZPJ86RlgiKqqeq70DOw2AcBG5Zz/fQihLT0HDEybc/5q6SHYbQKAjXrwwQf/JITgnmZYQs75Kw899ND/KT0Hu00AsHF33XXXP6yq6g9KzwFDUFXVH9x2222/XXoOdp8AYOPuu++++eHh4W/knH8vhJBKzwM9lXLOv3d4ePgbH/3oR5vSw7D7HNDCVr344osfyzn/7RDCr4YQ3htCuKXwSFBSnXP+v1VVfbuqqn/ziU984o9LDwQAAAAAAAAAAAAAAAAAAAAAAAAAAAAAAAAAAAAAAAAAAAAAAAAAAAAAAAAAAAAAAAAAAAAAAAAAAAAAAAAAAAAAAAAAAAAAAAAAAAAAAAAAAAAAAAAAAAAAAAAAAAAAAAAAAAD8f4b7+8zLFh+kAAAAAElFTkSuQmCC;" vertex="1" parent="iRG5U3GbNzpCpeT_m5hG-1">
          <mxGeometry x="120" y="630" width="170" height="170" as="geometry" />
        </mxCell>
        <mxCell id="U29PJXjMH5lwDnSstcUd-1" style="edgeStyle=orthogonalEdgeStyle;rounded=0;orthogonalLoop=1;jettySize=auto;html=1;strokeWidth=2;" edge="1" parent="iRG5U3GbNzpCpeT_m5hG-1" source="iRG5U3GbNzpCpeT_m5hG-7">
          <mxGeometry relative="1" as="geometry">
            <mxPoint x="1600" y="340" as="targetPoint" />
          </mxGeometry>
        </mxCell>
        <mxCell id="U29PJXjMH5lwDnSstcUd-10" style="edgeStyle=orthogonalEdgeStyle;rounded=0;orthogonalLoop=1;jettySize=auto;html=1;entryX=0.5;entryY=0;entryDx=0;entryDy=0;strokeWidth=2;" edge="1" parent="iRG5U3GbNzpCpeT_m5hG-1" source="iRG5U3GbNzpCpeT_m5hG-7" target="U29PJXjMH5lwDnSstcUd-4">
          <mxGeometry relative="1" as="geometry" />
        </mxCell>
        <mxCell id="iRG5U3GbNzpCpeT_m5hG-7" value="" style="shape=image;verticalLabelPosition=bottom;labelBackgroundColor=default;verticalAlign=top;aspect=fixed;imageAspect=0;image=data:image/png,iVBORw0KGgoAAAANSUhEUgAAAgAAAAIACAYAAAD0eNT6AAAABHNCSVQICAgIfAhkiAAAAAlwSFlzAAALEwAACxMBAJqcGAAAABl0RVh0U29mdHdhcmUAd3d3Lmlua3NjYXBlLm9yZ5vuPBoAAAulSURBVHic7dlBi53lHYfh58w5ycwwYoIxWhVBCrWbLluK2IX72mW7KMW93Wh3DXRRt7VQaEEEG4uLfoDipmtX3UVEW2iCFgwKiUoXykzinHn7CUohIXmS3tf1BX7/xcx77nPe1cGFi8sAko4vvTPG8AiAop3ZBwAAd58AAIAgAQAAQQIAAIIEAAAECQAACBIAABAkAAAgSAAAQJAAAIAgAQAAQQIAAIIEAAAECQAACBIAABAkAAAgSAAAQJAAAIAgAQAAQQIAAIIEAAAECQAACBIAABAkAAAgSAAAQJAAAIAgAQAAQQIAAIIEAAAECQAACBIAABAkAAAgSAAAQJAAAIAgAQAAQQIAAIIEAAAECQAACBIAABAkAAAgSAAAQJAAAIAgAQAAQQIAAIIEAAAECQAACBIAABAkAAAgaDP7gNtx8vAyjl48mra//nBn7P55d9r+j5/6YPzue3+dtv/7f3x//Ob9H0zbhzvltV++OA7292afwT3uwh/eGp989sXsM27ZfR0AY2eMZX/e/LK7mjc+xtjd2Y6zp+cF0P7meNo23EkH+3vjAQHA/7Czc3//iH5/Xw8A3BIBAABBAgAAggQAAAQJAAAIEgAAECQAACBIAABAkAAAgCABAABBAgAAggQAAAQJAAAIEgAAECQAACBIAABAkAAAgCABAABBAgAAggQAAAQJAAAIEgAAECQAACBIAABAkAAAgCABAABBAgAAggQAAAStDi5cXGYfcctWYyx7E88/WY3VjXnzp3e242Bzc9r+0XYzDrenpu1z+44vvTPGuH8fAXfKwd7u2NlZzT6De9yXhzfGsty//z+b2QfclmWM1WH3n/TmyXrcvLk/+wz4v/PV0cSyh7vEKwAACBIAABAkAAAgSAAAQJAAAIAgAQAAQQIAAIIEAAAECQAACBIAABAkAAAgSAAAQJAAAIAgAQAAQQIAAIIEAAAECQAACBIAABAkAAAgSAAAQJAAAIAgAQAAQQIAAIIEAAAECQAACBIAABAkAAAgSAAAQJAAAIAgAQAAQQIAAIIEAAAECQAACBIAABAkAAAgSAAAQJAAAIAgAQAAQQIAAIIEAAAECQAACBIAABAkAAAgSAAAQJAAAIAgAQAAQQIAAII26/XO07PGl+ufPvz1tY//Mpbl3BiLGIG7bPuvv88+AXqWsR0744vVufM/Wp/5xvVZZ6xmDY8xxv7zLzxxcjyuzrwByo4vvzv7BMjarsaT48p70z4DfesGgCABAABBAgAAggQAAAQJAAAIEgAAECQAACBIAABAkAAAgCABAABBAgAAggQAAAQJAAAIEgAAECQAACBIAABAkAAAgCABAABBAgAAggQAAAQJAAAIEgAAECQAACBIAABAkAAAgCABAABBAgAAggQAAAQJAAAIEgAAECQAACBIAABAkAAAgCABAABBAgAAggQAAAQJAAAIEgAAECQAACBIAABAkAAAgCABAABBAgAAggQAAAQJAAAIEgAAECQAACBIAABAkAAAgCABAABBAgAAggQAAAQJAAAIEgAAECQAACBIAABAkAAAgCABAABBAgAAggQAAAQJAAAI2jz46z8+NGv85KPLZ5fPr8+aB9br2RdA15mzZ8YPf/rVrPnN9sbq81nj4/Gnx/rxp6fNQ91yvB1jLLPPgKTNGO+P7bx9rwAAIEgAAECQAACAIAEAAEECAACCBAAABAkAAAgSAAAQJAAAIEgAAECQAACAIAEAAEECAACCBAAABAkAAAgSAAAQJAAAIEgAAECQAACAIAEAAEECAACCBAAABAkAAAgSAAAQJAAAIEgAAECQAACAIAEAAEECAACCBAAABAkAAAgSAAAQJAAAIEgAAECQAACAIAEAAEECAACCBAAABAkAAAgSAAAQJAAAIEgAAECQAACAIAEAAEECAACCBAAABAkAAAgSAAAQtJl9wO04eWQZhy8fTdtfX1mPvTdPT9v/2TffG68/8/a0/Vc/eHa88u5z0/bhTnnrlV+MB/b3Zp/BPe6l374xrl77bPYZt8wvAAAQJAAAIEgAAECQAACAIAEAAEECAACCBAAABAkAAAgSAAAQJAAAIEgAAECQAACAIAEAAEECAACCBAAABAkAAAgSAAAQJAAAIEgAAECQAACAIAEAAEECAACCBAAABAkAAAgSAAAQJAAAIEgAAECQAACAIAEAAEGrgwsXl9lHAHMcX3pnjOERAEV+AQCAIAEAAEECAACCBAAABAkAAAgSAAAQJAAAIEgAAECQAACAIAEAAEECAACCBAAABAkAAAgSAAAQJAAAIEgAAECQAACAIAEAAEECAACCBAAABAkAAAgSAAAQJAAAIEgAAECQAACAIAEAAEECAACCBAAABAkAAAgSAAAQJAAAIEgAAECQAACAIAEAAEECAACCBAAABAkAAAgSAAAQJAAAIEgAAECQAACAIAEAAEECAACCBAAABAkAAAgSAAAQJAAAIEgAAEDQZr27nJs1fvLR5ceOP7/+/qx9qDv+8L3ZJ0DW9szZ74xHHvtk1v5q1vAYY+w//8ITJ8fj6swboOz48ruzT4Cs7Wo8Oa68N+0z0CsAAAgSAAAQJAAAIEgAAECQAACAIAEAAEECAACCBAAABAkAAAgSAAAQJAAAIEgAAECQAACAIAEAAEECAACCBAAABAkAAAgSAAAQJAAAIEgAAECQAACAIAEAAEECAACCBAAABAkAAAgSAAAQJAAAIEgAAECQAACAIAEAAEECAACCBAAABAkAAAgSAAAQJAAAIEgAAECQAACAIAEAAEECAACCBAAABAkAAAgSAAAQJAAAIEgAAECQAACAIAEAAEECAACCBAAABAkAAAgSAAAQJAAAIEgAAECQAACAIAEAAEECAACCBAAABAkAAAgSAAAQJAAAIEgAAECQAACAoM2Dv/rTt2aNL9c/ffjrax9fH8tyboxFjMBdtjq1O/sE6FnGduyML06dO//E+tvfPT3rjM12e/LPWePjoUfH+qFHp81D3XJ0NMZYZp8BNesxxvkxxt+W7fG0I3zrBoAgAQAAQQIAAIIEAAAECQAACBIAABAkAAAgSAAAQJAAAIAgAQAAQQIAAIIEAAAECQAACBIAABAkAAAgSAAAQJAAAIAgAQAAQQIAAIIEAAAECQAACBIAABAkAAAgSAAAQJAAAIAgAQAAQQIAAIIEAAAECQAACBIAABAkAAAgSAAAQJAAAIAgAQAAQQIAAIIEAAAECQAACBIAABAkAAAgSAAAQJAAAIAgAQAAQQIAAIIEAAAECQAACBIAABAkAAAgaDP7gNuyGmPZW+btn6zG6sa8+dM723GwuTlt/2i7GYfbU9P24U452NsdOzur2Wdwj/vy8MZYlomfQbfpvg6Ak/PLOHz5aNr++sp67L15etr+T576YLz+zNvT9l/94NnxyrvPTduHO+W1Cz8fD+zvzT6De9xLv31jXL322ewzbplXAAAQJAAAIEgAAECQAACAIAEAAEECAACCBAAABAkAAAgSAAAQJAAAIEgAAECQAACAIAEAAEECAACCBAAABAkAAAgSAAAQJAAAIEgAAECQAACAIAEAAEECAACCBAAABAkAAAgSAAAQJAAAIEgAAECQAACAoM3sA27LyRirw3nzqxvLvPExxo2T9fj3zb1p+4fH9/efD/w3Xx0ezT6B+8DJycnsE27L6uDCxbmfYsA0x5feGWN4BECRVwAAECQAACBIAABAkAAAgCABAABBAgAAggQAAAQJAAAIEgAAECQAACBIAABAkAAAgCABAABBAgAAggQAAAQJAAAIEgAAECQAACBIAABAkAAAgCABAABBAgAAggQAAAQJAAAIEgAAECQAACBIAABAkAAAgCABAABBAgAAggQAAAQJAAAIEgAAECQAACBIAABAkAAAgCABAABBAgAAggQAAAQJAAAIEgAAECQAACBIAABAkAAAgCABAABBAgAAggQAAAQJAAAI+g+1eOxkbVzMiwAAAABJRU5ErkJggg==;" vertex="1" parent="iRG5U3GbNzpCpeT_m5hG-1">
          <mxGeometry x="1080" y="140" width="140" height="140" as="geometry" />
        </mxCell>
        <mxCell id="U29PJXjMH5lwDnSstcUd-9" style="edgeStyle=orthogonalEdgeStyle;rounded=0;orthogonalLoop=1;jettySize=auto;html=1;strokeWidth=2;" edge="1" parent="iRG5U3GbNzpCpeT_m5hG-1" source="iRG5U3GbNzpCpeT_m5hG-8">
          <mxGeometry relative="1" as="geometry">
            <mxPoint x="2000" y="500.0000000000002" as="targetPoint" />
          </mxGeometry>
        </mxCell>
        <mxCell id="iRG5U3GbNzpCpeT_m5hG-8" value="" style="shape=image;verticalLabelPosition=bottom;labelBackgroundColor=default;verticalAlign=top;aspect=fixed;imageAspect=0;image=data:image/png,iVBORw0KGgoAAAANSUhEUgAAAgAAAAIACAYAAAD0eNT6AAAABHNCSVQICAgIfAhkiAAAAAlwSFlzAAALEwAACxMBAJqcGAAAABl0RVh0U29mdHdhcmUAd3d3Lmlua3NjYXBlLm9yZ5vuPBoAAAulSURBVHic7dlBi53lHYfh58w5ycwwYoIxWhVBCrWbLluK2IX72mW7KMW93Wh3DXRRt7VQaEEEG4uLfoDipmtX3UVEW2iCFgwKiUoXykzinHn7CUohIXmS3tf1BX7/xcx77nPe1cGFi8sAko4vvTPG8AiAop3ZBwAAd58AAIAgAQAAQQIAAIIEAAAECQAACBIAABAkAAAgSAAAQJAAAIAgAQAAQQIAAIIEAAAECQAACBIAABAkAAAgSAAAQJAAAIAgAQAAQQIAAIIEAAAECQAACBIAABAkAAAgSAAAQJAAAIAgAQAAQQIAAIIEAAAECQAACBIAABAkAAAgSAAAQJAAAIAgAQAAQQIAAIIEAAAECQAACBIAABAkAAAgSAAAQJAAAIAgAQAAQQIAAIIEAAAECQAACBIAABAkAAAgaDP7gNtx8vAyjl48mra//nBn7P55d9r+j5/6YPzue3+dtv/7f3x//Ob9H0zbhzvltV++OA7292afwT3uwh/eGp989sXsM27ZfR0AY2eMZX/e/LK7mjc+xtjd2Y6zp+cF0P7meNo23EkH+3vjAQHA/7Czc3//iH5/Xw8A3BIBAABBAgAAggQAAAQJAAAIEgAAECQAACBIAABAkAAAgCABAABBAgAAggQAAAQJAAAIEgAAECQAACBIAABAkAAAgCABAABBAgAAggQAAAQJAAAIEgAAECQAACBIAABAkAAAgCABAABBAgAAggQAAAStDi5cXGYfcctWYyx7E88/WY3VjXnzp3e242Bzc9r+0XYzDrenpu1z+44vvTPGuH8fAXfKwd7u2NlZzT6De9yXhzfGsty//z+b2QfclmWM1WH3n/TmyXrcvLk/+wz4v/PV0cSyh7vEKwAACBIAABAkAAAgSAAAQJAAAIAgAQAAQQIAAIIEAAAECQAACBIAABAkAAAgSAAAQJAAAIAgAQAAQQIAAIIEAAAECQAACBIAABAkAAAgSAAAQJAAAIAgAQAAQQIAAIIEAAAECQAACBIAABAkAAAgSAAAQJAAAIAgAQAAQQIAAIIEAAAECQAACBIAABAkAAAgSAAAQJAAAIAgAQAAQQIAAIIEAAAECQAACBIAABAkAAAgSAAAQJAAAIAgAQAAQQIAAII26/XO07PGl+ufPvz1tY//Mpbl3BiLGIG7bPuvv88+AXqWsR0744vVufM/Wp/5xvVZZ6xmDY8xxv7zLzxxcjyuzrwByo4vvzv7BMjarsaT48p70z4DfesGgCABAABBAgAAggQAAAQJAAAIEgAAECQAACBIAABAkAAAgCABAABBAgAAggQAAAQJAAAIEgAAECQAACBIAABAkAAAgCABAABBAgAAggQAAAQJAAAIEgAAECQAACBIAABAkAAAgCABAABBAgAAggQAAAQJAAAIEgAAECQAACBIAABAkAAAgCABAABBAgAAggQAAAQJAAAIEgAAECQAACBIAABAkAAAgCABAABBAgAAggQAAAQJAAAIEgAAECQAACBIAABAkAAAgCABAABBAgAAggQAAAQJAAAIEgAAECQAACBIAABAkAAAgCABAABBAgAAggQAAAQJAAAI2jz46z8+NGv85KPLZ5fPr8+aB9br2RdA15mzZ8YPf/rVrPnN9sbq81nj4/Gnx/rxp6fNQ91yvB1jLLPPgKTNGO+P7bx9rwAAIEgAAECQAACAIAEAAEECAACCBAAABAkAAAgSAAAQJAAAIEgAAECQAACAIAEAAEECAACCBAAABAkAAAgSAAAQJAAAIEgAAECQAACAIAEAAEECAACCBAAABAkAAAgSAAAQJAAAIEgAAECQAACAIAEAAEECAACCBAAABAkAAAgSAAAQJAAAIEgAAECQAACAIAEAAEECAACCBAAABAkAAAgSAAAQJAAAIEgAAECQAACAIAEAAEECAACCBAAABAkAAAgSAAAQtJl9wO04eWQZhy8fTdtfX1mPvTdPT9v/2TffG68/8/a0/Vc/eHa88u5z0/bhTnnrlV+MB/b3Zp/BPe6l374xrl77bPYZt8wvAAAQJAAAIEgAAECQAACAIAEAAEECAACCBAAABAkAAAgSAAAQJAAAIEgAAECQAACAIAEAAEECAACCBAAABAkAAAgSAAAQJAAAIEgAAECQAACAIAEAAEECAACCBAAABAkAAAgSAAAQJAAAIEgAAECQAACAIAEAAEGrgwsXl9lHAHMcX3pnjOERAEV+AQCAIAEAAEECAACCBAAABAkAAAgSAAAQJAAAIEgAAECQAACAIAEAAEECAACCBAAABAkAAAgSAAAQJAAAIEgAAECQAACAIAEAAEECAACCBAAABAkAAAgSAAAQJAAAIEgAAECQAACAIAEAAEECAACCBAAABAkAAAgSAAAQJAAAIEgAAECQAACAIAEAAEECAACCBAAABAkAAAgSAAAQJAAAIEgAAECQAACAIAEAAEECAACCBAAABAkAAAgSAAAQJAAAIEgAAEDQZr27nJs1fvLR5ceOP7/+/qx9qDv+8L3ZJ0DW9szZ74xHHvtk1v5q1vAYY+w//8ITJ8fj6swboOz48ruzT4Cs7Wo8Oa68N+0z0CsAAAgSAAAQJAAAIEgAAECQAACAIAEAAEECAACCBAAABAkAAAgSAAAQJAAAIEgAAECQAACAIAEAAEECAACCBAAABAkAAAgSAAAQJAAAIEgAAECQAACAIAEAAEECAACCBAAABAkAAAgSAAAQJAAAIEgAAECQAACAIAEAAEECAACCBAAABAkAAAgSAAAQJAAAIEgAAECQAACAIAEAAEECAACCBAAABAkAAAgSAAAQJAAAIEgAAECQAACAIAEAAEECAACCBAAABAkAAAgSAAAQJAAAIEgAAECQAACAIAEAAEECAACCBAAABAkAAAgSAAAQJAAAIEgAAECQAACAoM2Dv/rTt2aNL9c/ffjrax9fH8tyboxFjMBdtjq1O/sE6FnGduyML06dO//E+tvfPT3rjM12e/LPWePjoUfH+qFHp81D3XJ0NMZYZp8BNesxxvkxxt+W7fG0I3zrBoAgAQAAQQIAAIIEAAAECQAACBIAABAkAAAgSAAAQJAAAIAgAQAAQQIAAIIEAAAECQAACBIAABAkAAAgSAAAQJAAAIAgAQAAQQIAAIIEAAAECQAACBIAABAkAAAgSAAAQJAAAIAgAQAAQQIAAIIEAAAECQAACBIAABAkAAAgSAAAQJAAAIAgAQAAQQIAAIIEAAAECQAACBIAABAkAAAgSAAAQJAAAIAgAQAAQQIAAIIEAAAECQAACBIAABAkAAAgaDP7gNuyGmPZW+btn6zG6sa8+dM723GwuTlt/2i7GYfbU9P24U452NsdOzur2Wdwj/vy8MZYlomfQbfpvg6Ak/PLOHz5aNr++sp67L15etr+T576YLz+zNvT9l/94NnxyrvPTduHO+W1Cz8fD+zvzT6De9xLv31jXL322ewzbplXAAAQJAAAIEgAAECQAACAIAEAAEECAACCBAAABAkAAAgSAAAQJAAAIEgAAECQAACAIAEAAEECAACCBAAABAkAAAgSAAAQJAAAIEgAAECQAACAIAEAAEECAACCBAAABAkAAAgSAAAQJAAAIEgAAECQAACAoM3sA27LyRirw3nzqxvLvPExxo2T9fj3zb1p+4fH9/efD/w3Xx0ezT6B+8DJycnsE27L6uDCxbmfYsA0x5feGWN4BECRVwAAECQAACBIAABAkAAAgCABAABBAgAAggQAAAQJAAAIEgAAECQAACBIAABAkAAAgCABAABBAgAAggQAAAQJAAAIEgAAECQAACBIAABAkAAAgCABAABBAgAAggQAAAQJAAAIEgAAECQAACBIAABAkAAAgCABAABBAgAAggQAAAQJAAAIEgAAECQAACBIAABAkAAAgCABAABBAgAAggQAAAQJAAAIEgAAECQAACBIAABAkAAAgCABAABBAgAAggQAAAQJAAAI+g+1eOxkbVzMiwAAAABJRU5ErkJggg==;" vertex="1" parent="iRG5U3GbNzpCpeT_m5hG-1">
          <mxGeometry x="1080" y="550" width="140" height="140" as="geometry" />
        </mxCell>
        <mxCell id="iRG5U3GbNzpCpeT_m5hG-9" style="edgeStyle=orthogonalEdgeStyle;rounded=0;orthogonalLoop=1;jettySize=auto;html=1;entryX=0;entryY=0.5;entryDx=0;entryDy=0;strokeWidth=2;" edge="1" parent="iRG5U3GbNzpCpeT_m5hG-1" source="iRG5U3GbNzpCpeT_m5hG-11" target="iRG5U3GbNzpCpeT_m5hG-7">
          <mxGeometry relative="1" as="geometry" />
        </mxCell>
        <mxCell id="iRG5U3GbNzpCpeT_m5hG-10" style="edgeStyle=orthogonalEdgeStyle;rounded=0;orthogonalLoop=1;jettySize=auto;html=1;entryX=0;entryY=0.629;entryDx=0;entryDy=0;entryPerimeter=0;strokeWidth=2;" edge="1" parent="iRG5U3GbNzpCpeT_m5hG-1" source="iRG5U3GbNzpCpeT_m5hG-11" target="iRG5U3GbNzpCpeT_m5hG-8">
          <mxGeometry relative="1" as="geometry">
            <mxPoint x="920" y="640" as="targetPoint" />
          </mxGeometry>
        </mxCell>
        <mxCell id="iRG5U3GbNzpCpeT_m5hG-11" value="" style="shape=image;verticalLabelPosition=bottom;labelBackgroundColor=default;verticalAlign=top;aspect=fixed;imageAspect=0;image=data:image/png,iVBORw0KGgoAAAANSUhEUgAAAgAAAAIACAYAAAD0eNT6AAAABHNCSVQICAgIfAhkiAAAAAlwSFlzAAAOxAAADsQBlSsOGwAAABl0RVh0U29mdHdhcmUAd3d3Lmlua3NjYXBlLm9yZ5vuPBoAACAASURBVHic7d15lFxlnf/xz/dWdfWWnSQEWbJAFggCWQgBQiDIqMiiAyQwgCj6mx8KzHiYcQCFQUVWHefnOAszjo4gKEhEE5hREUZEFkNIIoshC5CELGQl3Uk63Z3urvv8/kjCCTFAp2t57r3P+3WOR4+H1POp4pvnfureW1USAAAAAAAAAAAAAAAAAAAAAAAAAAAAAAAAAAAAAAAAAAAAAAAAAAAAAAAAAAAAAAAAAAAAAAAAAAAAAAAAAAAAAAAAAAAAAAAAAAAAAAAAAAAAAAAAAAAAAAAAAAAAAADvz3wHCMUl973ap7Or6yyTnS65YyUNk9RPUo3fZAhZc9N23xEQMJNkZrHM2nKRVkVR9Hg+33Xbz66YuNZ3thBQACrswnsWjTK565yziyQ1+M4D7IkCgCTK53NLczW6+uHPjXvMd5YsowBUyPQHV9VHrS1fl/QFSXnfeYB9oQAgqUxSvpB7Pt+hD8+6Zlyz7zxZRAGogIt/8MrIotnPJB3tOwvwXigASLooF22vzedPnXXlMfN9Z8mayHeArLnonoXjimbPiIM/AJQsLsaN7Z0dz537bwun+86SNRSAMrr4B6+MdC56VNIg31kAICtcrFxnZ/v959+1cJzvLFlCASiTT/9geV0xspni4A8AZRfHLtfW2f709O8tHOA7S1ZQAMqkzdpvkdOxvnMAQFYVi66hbUfnLN85soKbAMvgwnsWjZLTQnG3P1KGmwCRRo0NNRN+dsWxC3znSDvOAJSByV0nDv4AUBU7OuN7fWfIAs4AlOiS+17t09XVtVZ8yQ9SiDMASKvGBn2AbwwsDWcAStTZ1XWWOPgDQFV1xTXX+c6QdhSAEu38bn8AQDXFxfjDvjOkHQWgZI47/wGgyoqxO9R3hrSjAJRuuO8AABAc57j0WiIKQOn6+A4AAKGJY8fxq0S8gKUr+A4AAMD+ogAAABAgCgAAAAGiAAAAECAKAAAAAaIAAAAQIAoAAAABogAAABAgCgAAAAGiAAAAECAKAAAAAaIAAAAQIAoAAAABogAAABAgCgAAAAGiAAAAECAKAAAAAaIAAAAQIAoAAAABogAAABAgCgAAAAGiAAAAECAKAAAAAaIAAAAQIAoAAAABogAAABAgCgAAAAGiAAAAECAKAAAAAaIAAAAQIAoAAAABogAAABCgvO8ACEN91KrxvedrbOPLGlq3QoNqNqox1yJJ2l7spY2dg7SifbgWbv+g/rBtgtries+Jy+vdnn/Oil5zudZ1XteHySmnHarVxs4hemHreD2wdro2d/T3HQwBMN8B0u7Cuxc53xmS7KDCmzp34M91Ut+nVBt1dOvP7IgLenbLKZq96Tyt6ziowgkrqyfPv5ooAElkWt05THe9caUWbD3Od5hEe/SaiRzDSsCLVyIKwL4VbIdmDH5AZw58RDnFPXqMosvpF2+dowc3XKROVyhzwsoqx/OvBgpAkpmWto/VDUtuVUuxwXeYRKIAlIZ7AFB2Qwprdevh1+nsgbNLOvjlrKhzBs7STcNuUr98UxkTVla5nj9C5zSq7o+699hLNLLxdd9hkEEUAJTVsLrlunn4l3Vo7cqyPebIhqW67fBrdVjdirI9ZqVU4vkjbHVq0bfHXK2pBzzjOwoyhgKAshlSWKsvD71ZffJbyv7YA/Jv6fqht6pfvrnsj10ulXz+CFvkunTd0Ft0RMMy31GQIRQAlEWNdeiaQ79Z0YPfgPxbuvawW1WwHRVbo6eq8fwRtkhd+ofRf6te+RbfUZARFACUxYWD79fQKpyiH1H/uj4+6OcVX2d/Vev5I2y11qKvHHGL7xjICAoASnZQ4U2dOfCRqq131gEPJ+pSQLWfP8J2dMMCHcFNgSgDCgBKdu7An1f1bve6qF3nD3qwauu9n2o/f4TO6YvDv+U7BDKAAoCS1EetOqnvU1Vfd2q/J1QftVV93b35ev4I29DCaxpQSM9HY5FMFACUZHzv+V6+4a422qHjei2o+rp78/X8ETqnGUMe8h0CKUcBQEnGNr7sbe2je/lbezefzx9hG9d3vu8ISDkKAEri8873w2r9rb0bd/7Dl0E1631HQMpRAFCSwYUN3tY+sOB/A/T5/BG2Ovm/BwbpRgFASeqj1iDXTlIGhMk8/5Q00o8CAABAgCgAKElb7O9nSn2unaQMCJNzOd8RkHIUAJRkQ8dgb2uv7zjQ29q7+Xz+CFu76n1HQMpRAFCSFe3Dva39xo5h3tbezefzR9g2JqAAI90oACjJwu0f9Lb2H7cf423t3Xw+f4Rt/tbjfUdAylEAUJIF2yZqR1xb9XV3xLV6Ydv4qq+7N1/PH4Ez08y15/lOgZSjAKAk7XGdnt0yperrPr1lqtrjuqqvuzdfzx9hW71juJo6+/mOgZSjAKBkszedp2IV70jucnnN3vTnVVvv/VT7+SN0pn9542rfIZABFACUbF3HQfrFW+dUbb3/2XSuNnQMqdp676fazx9hW9x+jF7cxr0nKB0FAGXx4IaL9GrrqIqvs7RttH666cKKr7O/qvX8EbY211s3LLnZdwxkBAUAZdHpCvrWquv1VucBFVujqXOAvr3yi+qMayq2Rk9V4/kjbLHyunbJN9Ra5MunUB4UAJRNc1c/3bnyBm3uKv9B8K3OA3T7yr+vyGOXSyWfP8IWW163r/h7vdZ6hO8oyBAKAMpqZfswXf/6P2hR61Fle8ylbaN1w7JvamX70LI9ZqVU4vkjbG3qrasX/bue3nyS7yjIGAoAym5rV1/d9sZX9NDGGSV9Rr7L5TVr0/n6+oqb1dyVno88lev5I3SmRW3H6dIX79Py1uSXX6SP+Q6Qdhfevcj5zpBk/fLNOn/Qg5ra7wnVRju69Wd2xLV6esupmr3pE4m6278nevL8q8m1rvMdAXsz06qOEfqXN67WS1uP9p0m0R69ZiLHsBLw4pWIAtA9dVG7xvWar7G9XtawuuUaXLNBDbntkqTWYqM2dA7W8rYRemX70fpDy4REfMlPOb3b889bl9dcFADfTE45tbs6bewcogVbJ+rBtefzJT/dRAEoDS9eiSgASLPmpu2+IwA9RgEoDfcAAAAQIAoAAAABogAAABAgCgAAAAGiAAAAECAKAAAAAaIAAAAQIAoAAAABogAAABAgCgAAAAGiAAAAECAKAAAAAaIAAAAQIAoAAAABogAAABAgCgAAAAGiAAAAECAKAAAAAaIAAAAQIAoAAAABogAAABAgCgAAAAGiAAAAECAKAAAAAaIAAAAQIAoAAAABogAAABAgCgAAAAGiAAAAECAKAAAAAaIAAAAQIApA6Tp8BwAAYH9RAEq31XcAAAhNFFnsO0PaUQBKt9x3AAAIjlmr7whpRwEokZle8J0BAEITWbTSd4a0owCUyMXuN74zAEBookiP+s6QdhSAEsWN7r8lbfedAwBCYSZZ/z53+s6RdhSAEs2cMbZFsgd85wCAUOTzuSUPXzxive8caUcBKIOci++U1Ok7BwBknklRTc3nfcfIAgpAGfz48qNelblv+84BAFlXU1Mz5+Erjn7Cd44soACUSX1cf5OkOb5zAEBW5XK2rVhs+IjvHFlBASiTuy8f3h67+M8lW+U7CwBkTRRZsZBvmPbLvx7Jl6+VCQWgjGZePnZdZDrbSat9ZwGArLDIioXa/EWzrjxyvu8sWUIBKLP7PzXmJRfnx0v6ne8sAJB2US5qKdRo/OzPHftT31myhgJQATM/M3Lj1q35D0u6WXxHAADsP5MKhfwcqffBD1854SXfcbLIfAfIuuk/WDgkMrtJssskNfrOA+ypuYl+imQxk/K5aLHl8p975MpjnvSdJ8soAFUy/cGFvXJtdpaLbZqk45xpuEn9JBV8Z0O4KADwyqTILI7MWmXRyihnv7Z+ve/gS36qgwLg2Qkf+bjznQHhatrIPgt/li6YwzHII+4BAAAgQBQAAAACRAEAACBAFAAAAAJEAQAAIEAUAAAAAkQBAAAgQBQAAAACRAEAACBAFAAAAAJEAQAAIEAUAAAAAkQBAAAgQBQAAAACRAEAACBAFAAAAAJEAQAAIEAUAAAAAkQBAAAgQBQAAAACRAEAACBAFAAAAAJEAQAAIEAUAAAAAkQBAAAgQBQAAAACRAEAACBAFAAAAAJEAQAAIEAUAAAAAkQBAAAgQOY7QCguue/VPsXOrrOd2TTJHStpmKR+kmr8JkPImpu2+46AgJkkM4tl1paLtMpMj9XUxLf/7IqJa31nCwEFoMKmf3/x6Fw+vtY5+wtJ9b7zAHuiACCJ8vnc0lyNrn74c+Me850lyygAFXLOf8xraKhtvFnSFyTlfecB9oUCgKQySfma3Nx8pz4y65pxzb7zZBEFoAIu/sErI4tmP5N0tO8swHuhACDpolzUUpuzU2ZdNe4F31myhpsAy+yiexaOK5o9Iw7+AFCyuBj3au+K533831+8wHeWrOEMQBnteuf/jKRBvrMA3cEZAKRFZCrW1tRPnHXVWM4ElAlnAMrk0z9YXleMbKY4+ANA2cVOuY5i+zPTv7dwgO8sWUEBKJM2a79FTsf6zgEAWVUsuob29o6f+86RFVwCKIML71k0Sk4Lxd3+SBkuASBtLDKXr7Vx//258S/6zpJ2nAEoA5O7Thz8AaDiXOxMXfYj3zmygDMAJbrkvlf7dHV1rZXU4DsLsL84A4A0MpMa6vUBvjGwNJwBKFFnV9dZ4uAPAFXjnNQV11znO0faUQBKZLLTfWcAgNDExfjDvjOkHQWgZI47/wGgyoqxO9R3hrSjAJRuuO8AABAc57j0WiIKQOn6+A4AAKGJY8fxq0S8gKUr+A4AAMD+ogAAABAgCgAAAAGiAAAAECAKAAAAAaIAAAAQIAoAAAABogAAABAgCgAAAAGiAAAAECAKAAAAAaIAAAAQIAoAAAABogAAABAgCgAAAAGiAAAAECAKAAAAAaIAAAAQIAoAAAABogAAABAgCgAAAAGiAAAAECAKAAAAAaIAAAAQIAoAAAABogAAABAgCgAAAAGiAAAAECAKAAAAAaIAAAAQIAoAAAABogAAABCgvO8ACEN91KrxfeZpbMMfNbRuhQbVbFRjrkU5K/qOFjTXus5zApNTTjtUq42dQ/SHrRP0k7UXaHNHf8+5yqsh16pJfZ7Tsb3/oBENr+vAwgY15lokSduLvbS+Y7BebztCL24bp7lbTlBbsd5zYoTAfAdIuwvvXuR8Z0iyD9Su0TkHzNLJ/Z5WwXb4joO9+C8A+2Ja3TlMd71xpRZsPc53mJIcXLdG0w+8X6f1/61qo+7N/464Vr9tmqaZ6y7Umh2HVDhhuj16zUSOYSXgxSsRBWDfaqMOTR90v84c+Ihyin3HwbtIZgHYzbSk/WjduOQWtRQbfIfZL4WoQ5cd9AN9YvDPe3yWq8vlNWvDebp37afVEdeUOWE2UABKwz0AKLshhbW6ZcS1OnvgbA7+KIHT6LqX9cNjL9WIhhW+w3TbwbWr9U9jrtL5B/60pEtceevSBQc+qDtH/q0G1GwuY0JgJwoAympY3XLdPPzLOrR2pe8oyIh6bdM/H/l5TRnwrO8o7+vwhtf0rdHXaFjdirI95pjGRfqnMVdpeP2ysj0mIFEAUEZDCmv15aE3q09+i+8oyJjIdelLw76uwxuW+47yrg6uXa1bj/iS+uaby/7YA2s26eYjblD/mqayPzbCRQFAWdRYh6459Jsc/FExkbr0rdF/o175Ft9R/kQh6tSXh99SkYP/bgNrNulrh9+oQtRRsTUQFgoAyuLCwfdraBlPewL7Umstumnkrb5j/InLDvovjWh4veLrjGxYqhlDHqj4OggDBQAlO6jwps4c+IjvGAjEBxvma3iCbgo8uG6NPjH451Vb77zBP+VSAMqCAoCSnTvw59ztj+pxTteN+IbvFG+bfuD9Vf1Cq/qoTRcfdG/V1kN2UQBQkvqoVSf1fcp3DARmaO1rGlDw/y64Ideq0/r/turrnjHgMdXn2qq+LrKFAoCSjO89X7XclIRqc04zhjzkO4Um9Xmu29/wV051Ubsm9Xmu6usiWygAKMnYxpd9R0CgxvWd7zuCju39B29rH9P7BW9rIxsoACgJd/7Dl0E1631HqMqd/++6Nl8MhBJRAFCSwYUNviMgUHXyfw18SMFfCRlSSPLvOCANKAAoSX3U6jsCAmUJ+CnpBo/z35jf7m1tZAMFAACAAFEAUJK2OF0/04rscC7nO4JaPc7/9q5Gb2sjGygAKMmGjsG+IyBQ7ar3HUHrOg70uPYQb2sjGygAKMmK9uG+IyBQGz0efHd7ve0Ib2svaxvhbW1kAwUAJVm4/YO+IyBQ87ce7zuCXtw2ztvaL2wd721tZAMFACVZsG2idsS1vmMgNGaaufY83yk0t/kEtcd1VV+3Pa7TvAQUIKQbBQAlaY/r9OyWKb5jIDCrOkaoqbOf7xhqi+v1ZNNpVV/3iabT1Rb7vwcC6UYBQMlmbzpPxQTckY1QmP7ljat9h3jbzHUXqsvlq7ZeV1yjmesuqtp6yC4KAEq2ruMg/eKtc3zHQCAWtR2rl7Ye7TvG29bsOESzNlTvcsRDG87X2h0HVW09ZBcFAGXx4IaL9GrrKN8xkHFtrrduXPo13zH+xL1rP63F24+s+DqLth+lH639ZMXXQRgoACiLTlfQt1Zdr7c6D/AdBRkVK69rl3xDrcXkfflUR1yjm5d9TRs7BlVsjbc6D9Cty/5ena5QsTUQFgoAyqa5q5/uXHmDNndRAlBesWp024qb9Fqrv8/dv5+mzv76yuu3aFPnwLI/9saOQbrxtdv1VgUeG+GiAKCsVrYP0/Wv/4MWtR7lOwoyos311tWL79Izm0/0HeV9LW8boasX3aWXW44p22Mu2n6UvrDkX7WijS/dQnlRAFB2W7v66rYVN+mhjTP4jgCUwLSo7Thd+tJ9Wt461HeYbtvS1U83vHq7frTukyV9R0BXXKOfrPsLXbf0m2rq7F/GhMBO5jtA2l149yLnO0OS9cs36/xBD2pqvydUG+3wHQd7ca0J/E15M63sOFz/+sZVibrbvyf61zTp4oPu1RkDHlNd1N6tP9Me1+k3mz+kn66/kLv938ej10zkGFYCXrwSUQC6py5q17he8zW218saVrdcg2s2qCG3XXnr8h0taP4LgMkpp3ZXpw2dB+kPWyfowbXnJ+JLfsqpPmrTpL7P6ZjeL2hE/esaUlivXrkWSVJLsZfWdRyo11uP0Estx+n5LZP4kp9uogCUhhevRBQApFlz03bfEYAeowCUhnsAAAAIEAUAAIAAUQAAAAgQBQAAgABRAAAACBAFAACAAFEAAAAIEAUAAIAAUQAAAAgQBQAAgABRAAAACBAFAACAAFEAAAAIEAUAAIAAUQAAAAgQBQAAgABRAAAACBAFAACAAFEAAAAIEAUAAIAAUQAAAAgQBQAAgABRAAAACBAFAACAAFEAAAAIEAUAAIAAUQAAAAgQBQAAgABRAAAACBAFAACAAFEAAAAIEAWgdB2+AwAAsL8oAKXb6jsAAIQmiiz2nSHtKAClW+47AAAEx6zVd4S0owCUyEwv+M4AAKGJLFrpO0PaUQBK5GL3G98ZACA0UaRHfWdIOwpAieJG99+StvvOAQChMJOsf587fedIOwpAiWbOGNsi2QO+cwBAKPK5aPHDF49Y7ztH2lEAyiDn4jsldfrOAQCZZ5Ll8p/zHSMLKABl8OPLj3pV5r7tOwcAZF2hJj/nkSuPedJ3jiygAJRJfVx/k6Q5vnMAQFblcratq9j4Ed85soICUCZ3Xz68PXbxn0u2yncWAMiaKLJiId8w7Zd/PZIvXysTCkAZzbx87LrIdLaTVvvOAgBZEUVWrMnnZsy68sj5vrNkCQWgzO7/1JiXXJwfL+l3vrMAQNrlcratpkbjH77quJ/5zpI1FIAKmPmZkRvrXd1HJN0sviMAAPafSTU1ud879Tnk4SsnvOQ7ThaZ7wBZN/0HC4dEZjdJdpmkRt95gD01N9FPkSxmUj6fW2RR7vPc7V9ZFIAqmf7gwl65NjvLxTZN0nHONNykfpIKvrMhXBQAeGVSZBZHZq2KbGUURb+2fr3v4Et+qoMCAK9O+MjHnc/1n3t0dqr/DpT6+jVtLG2fXbpgTqpfv1HjJ3udv7S/fkg37gEAACBAFAAAAAJEAQAAIEAUAAAAAkQBAAAgQBQAAAACRAEAACBAFAAAAAJEAQAAIEAUAAAAAkQBAAAgQBQAAAACRAEAACBAFAAAAAJEAQAAIEAUAAAAAkQBAAAgQBQAAAACRAEAACBAFAAAAAJEAQAAIEAUAAAAAkQBAAAgQBQAAAACRAEAACBAFAAAAAJEAQAAIEAUAAAAAkQBAAAgQBQAAAACRAEAACBAFAAAAAJEAQAAIEAUAAAAAkQBAAAgQBQAAAACRAEAACBAFAAAAAJEAQAAIEAUAAAAAkQBAAAgQBQAAAACRAEAACBAFAAAAAJEAQAAIEAUAAAAAkQBAAAgQBQAAAACRAEAACBAFAAAAAJEAQAAIEAUAAAAAkQBAAAgQHnfARCmiR89d3Qu1o2+cwA+jRo/+V6LcrcsmffMEt9ZEB4KAKpq0ofPGW6RXS9nn5ExfwjepS4uXjxq/OSHZHbT0vm/X+w7EMLBBoyqeMeB3zF3wB4iSdPl3PkUAVQTGzEqigM/0G0UAVQVGzIqggM/0GMUAVQFGzPKigM/UDYUAVQUGzTKggM/UDEUAVQEGzVKwoEfqBqKAMqKDRs9woEf8IYigLJg48Z+4cAPJAZFACVhA38Xbt6IvorrR0lutMyNkTRKTofK1ChZo+T6S2rc9Y9vl6xJctvltF2mVZKWytliyZYoaltqE5dt8fdsSpfRA3+r7wCV0quuqMMO6NJhA3do2KAOHTqwQwf27VJ9wamuxqlPfZfqCk75HevkZCrGkYrO1BWbtrXltWZzQUvXFvTiioLmvFqndU0530+pUtol1fkOUaLMFQH3WP++qolGKYpHx05jzHbtvzv33EZJe+2/atr139tlWuWclkamxYqjJeqMl9qfNaV6/60U8x0gKdzCsb3UGk+WdMau/4xTWX8rwZZJelymx1XIPW7HvNxUvseunHcc+LNXGFc/9+jsQ32HKMUJH/m4k6T62lhHH9KuSYe36vjDWzXqAzsUmXvfP+9a13Vrna44rzc21+mpVxp17+96a81bOwvB0gVzUr2HjBo/eY2kD/jOUWaxpFQVAffEoF5SPDmO4jNMdobkyrz/apmTHo+cPa5c8XE7ZUsq9t9KS/Vf3lK5PxzXT13tM+TsUplOklSttzlFSc/IuftUUzfTxr3QXKV1u+3t7+o3+wtV73WpLqc5z/169om+Y/SU+8Nx/e54qG/TR4/dpmOGtnfrgP8nj9HNAvBOpm0dBf3vy33051OKh9mk11f14EESYdS4yc/JNMl3jgopSro/qb814J7o109RNMPJXSpVf/81Z/fJxTNtWnPi9t9qCa4AOKdI8488U9JlcjpX/k//tcv0sJzu0cRFvzJT7DNMxt/xv5PTd5779ewv+I6xP8o9vz0rAHvJFVaaCt/TyatuM1Ox9AesnlHjJ/+zpKt956iwxJwRcE6Rnup/Zux0mSkZ+6+THo6kezS1yfv+W23BFADnFOn5MWfJ7KuSxvvO8y4WSvqGWg78sU37bVc1Fw7iHf9enLkZc3/18EzfObqjUvNblgKwm+V3WC5/jzpqv2DTVrSX74ErZ/T4yTOc9BPfOarE2xkB5xTpyf5nOdNXldT912mhmfuG4uYf2zRVdf/1JfMFwD1xWl69139aTtdLOtx3nm56TdIdajnwnkoXgaDe8b/T1q5CfND8Rx5J9I2AlZ7fshaA3SzqtFztfdrS8Hn72Gs7yr9A+XxgwoSGXq5mnaTevrNUUdXOCLgnlFduwKed3PVy6dl/TXaH4s33ZL0IZLoAuOdGT1QU3SVpou8sPWLuRTl3lR2/5JlyP3SI7/j3ZNK/z3l09ud953gv1ZjfihSA3aJ8m1nhGpuy5j8qt0jpRo2f/F1Jf+k7hwcVPSPgnug70UW5uySXzv3X6UWLdJVNbSr7/psUmSwA7tmxA5QvfkVmV6u8d5L64CTdp0LNF+3YlzaU+mABv+N/m5N2FIvxqPmPP7LSd5Z9qeb8VrQA7JYrLLO6+rNs4opE3pF+5LiThhYtXiKp1ncWT8p6RsA922dA3Jn/isllYv91pvuiXOcX7eSWkvffpMlcAXDzjvyEnL4vaYDvLGX2lmSfteNfmd2TPxz6O/53MN3x3K9mf8l3jH2p9vxWpQBIkkWx5etutZPW3FSdBffPqAmT75DTdb5zeFbyGQH3u36fcM4yuf+auc/a1OYe7b9JlZkC4J44La9e62+RdK0y9Lz24uTcP6sx93c2dmFHd/4A7/j3Zgta+tScuHDmzG69ftXia36rVgB2y9W9aL3jk+3Y9duru/B7mzBhQs02V/OMpON9Z0mA/T4j4J5QPo7632IZ33+d7J+jgZv/zsYqUftHT2XiX5R7bvRwRfYTyUL5yztXXe5CO3Hxinf7B3jHv09vxsX8Kc8//tAy30H25HN+q14AJMny2y3Kn2lT1j5V/cXf3RETTjo8cu4pyR3kO0tCdOuMgHuy73CnkPZfN9diXWjTmlf4TlKq1BeAXTdK/ULSIN9ZqmyzYne2nbD493v+nxz439WGWPHpzz/6yELfQfbke369FABJiqLYrO4zNmXNPX4C7NsRxx4/NsrlnlB4+8l7edcisPNGvzD3X3N2tp22+ffv/48mV6oLgJs/9nTF8SyF9RGePW2Xiy6wSQt/xan+9/SCc/F5c3/9yHLfQfaUhPn1VgAkycxZ1HijTVl1m78Qf+qIY044JMrZQxn+hsCeeselAfdk39OdoqD3X4vtApu2+Ve+g/RUaguAmzvmPJn9WOHeuStJck6dlOtO9QAAEzBJREFU//LowOd+9PSAE8U7/r21S+6b9Tu23vbb3/42UV9Mk5T59VoAJEkmy9d9x05+M1HfyHjIiSfWN3a4LzunL8r/t9UlTfGSUzY/c+N5GyebVPAdxrMOc/q0ndZ0v+8gPZHKAuCeH/MXkt2n9H/EpCxiZ/rKg0P02MuhFvE/UZRz9+dy0Vef/eWs132H2VuS5td/AdjJcnX/z6as/RvfOfa2876A+KuSuKS2y9njt+obl6xV5H16EyM20yU2tekB30H2V+oKgJt71Idk7n8U+Dv/vXUVTV+87wOa82rj+//D2RWb7CFzxZt+/+tHEvmZ86TNb1IKgGSymvov20lrbvedZF9GHzNpuMvnrpdc0JfYThy1Xf/xl2+qkA/qK/O7o9PMzrGpmx/1HWR/pKoAuLljj5fFv5HUy3eWJGrvNP3Vfx2il1fV+45SbYk/8EvJnN/kFADtuieg/vKk3Ri4p5CLwAcPa9c9V65SQy0H/3fRas7OSNONgakpADs/KhXNlTTQd5Yka96e1+V3Haq1zTW+o1RDUc7dX4x0y7xfPZy4nzvdU1LnN1EFQNr96YCTbcqaOb6jvJfRE08e7eLijQrk0sAhB3Rq5jVvqH9jqn7s0YeNFrtJafmIYCoKgJs3oUau9UlJqf3t9mp6ZU2trvjuYeospuJfb0+k5sAvJXt+E1cAJCnKt1ifaEjSvixoX0IoAvmc071Xr9K4YW2+o6SEe94GNk9Jw5cFpeQ2jtZvKoGbZ1IddfAOXfnhTb5jVEJRzt1XNDf2uV8//Mk0HPx3Yn73S9zVy7VEv/EdozuWzHtmydIFcz5pUW6spPu08zPzmXLtuRs5+O8XOz5+q18i72XZW+LfIrrnxpytyB5WCrImiXPS9fd/QE++kpjLzaVI1Tv+PSV9fhN5BmAXyzXcblPWfNl3jv2RtTMC08a26N8+u0aWyOlNNGfmzrOpzbN8B3kvif7X6hYcMUjFmsXK3g9LVMWW1pwu/PYwNbemdh9K7YFfSsf8JrkAyKLYCvVjbPLqV31H2V9ZKAIDenXpl19aob4NmTupUS1vWdw1xqZtS+zp2GRfAijm71SCN8+k69tQTOulgJSe6t8L81saF0eusyuVv76WhUsDf3vOJg7+pTkgtlyiLwUk9gyAe370yVL0lBKcMQ1iZ7riu6n5aGAqPs7XHWmZ30SfAdjFco1/aVNWf893jlKk7eOD44e36Ud/tZJT/6WLzdmUpH40MJH/et0Tp+XVe908OTvWd5YseH19rS7716EqJvfju6k+1b+3NM1vGgqArKbNWvr0t4+9tsN3lFKl4dJALnJ66G/e0JiDU/9yJ8XLFjeNt2nq8h1kb8m8BNC47vI0bJ5pcfiBO/SxcVt9x9iX2GQzIxcfnepT/XtjfsvLddarT+u/+o5RDmm4NHD+pK0c/Mvrg4oGXOY7xL4k7gyAe1A5jThykZxG+s6SJWs212jGt4cn5SxApt7x7ylt85uKMwCSZFGnHTCkl41dmPjPVu+PpJ0RyJnTL760QkMHZepl9s/0uhWbxiTtLEDyzgAMO+qitGyeaXLwgE596GjvZwGy+Y5/T8xvZbi4Rs3N3/Ado9zePiPQFY+U7LuS3wPEx8Zv4+BfCU6Hy/pP9x1jb4kqAM7JZO563zmy6vJpmxWZ87H07rv6j5rz6KwZab/B790wv5Xlih1XOOf/XXIlLHlp7vKlC35/hXXFo3wVATPp/56xudrLBsOZbnQuWcfcRIXR/CM/Julo3zGyavigDp0wsrWaS2bj43zdxfxWluuq07OHZrpgvV0EotzRqvI9AqceuV0jh3Dtv4KO0pP9P+I7xJ6SVQCcPuU7QtZ97LiqXAbI/qn+fWF+K87FnX/pO0M1+Lg08IlJWyq9RPBiKVE3AybmJkA3b0Rfudq1klLxgfW06ugynXXn4drWVpHul9mb+95PWuc3NTcB7sFy/YfalGUrfeeopkrfLNi7LtZTN7+muhovlwhD0m6xO8imNTf7DiIl6QyAq7tIKds806iQd5p21LZyP2yY7/j3xPxWj7V/1XeEaqv0GYGzxm/l4F8ddYqi832H2C1BBcBd4jtCKD56XNkKwO4D/9gs39zXLcxv1bi4+AnfGXyp1M2CZ0/w/gmhYDhzl/rOsFsiLgHsOn36lhLwOdgQFGPpw7ceoe07etz/gj3Vvy9pnt80XgKQTJZrPNimrHrTdxLfynFpoHddrDm3vaacn08IhajLau0Am7zZe+tKxhkAV3+qUrh5plUuko7r2e97c6p/X5jfKnOSuSBuBnw/5bg0cPwRrRz8qyuvDneK7xBSUgqA4mm+E4RmwvD9KgBBfI6/55jfanOueJbvDElSyscHTziiR28GUILYuUTsGQkpADrdd4DQTDx8e3f+sbA+x99zzG+1ueJY3xGSqCe/NTB5ZLf2ApSRyRKxZ3i/B2DX9dOmJGQJSexMZ3z9cLV27LMDZuZneSst7fObznsAdrL6vgfZpBXpfQJV8H4/Q9y7Ltbc217lZ3+rL7Zcrp9N2VT2j2TtD/9nAFz9aKV080yzyJwO+9Pv/OZU//5ifv0p7viQ7whJ936XBoYP7uDg70ck1znKfwjv4tG+E4Rq6MC3CwA39/UY8+tN0U70HSEt3u1mweGD+eEfb+LI+97xJ6eEPPD+IoRq6KBOJ+d+tPPjfLM56PcM8+uJM8fvLuynJS/NXS7pitETT/5HFxdvHD644xJxBsuL2Mz73pGAAuBGM39+XHBC8y8/+3dPf9J3jnRjfr2J4+G+I6TVknnPLJH0yYtuPWCQpET9QE0wnPNeABJwCcAO9p0gVH3q476+M6Qf8+tP3M93grTr1xD38Z0hVCYd4jtDAgqAGEBvXG/fCTKA+fXFqeA7Quo55tcj7/tvEgpAL98BAuZ9ADOA+fXGJeASZspFzK9H3vffJBQA7y9CwHjtS8dr6Iu5JOxf6eaYX4+8v/ZJ+AtEA/XH+wBmAPPrS0wBKAPm1x/v+y9/gQAACFASCkCL7wAB8/o1lBnB/PoSWew7QgYwv/5433+TUAC8vwgB47UvHa+hL44CUDJjfj3y/tonoQDQQP3xPoAZwPx6Y12+E6RezPx65H3/TUIB2Oo7QLjM+wBmAPPrS2R8kX2pjPn1yPv+m4AC4Nb4ThAut9p3gvRjfv2xZt8JUs8xv744yfv+m4ACYPwIjS/Ga186XkNvLFruO0LaOfYAfxLw2iegAMj7ixCumNe+dLyGnpjZy74zpF3kHPPrSRJe+wQUgMj7ixAs4+BVOubXo9/7DpB6UY759SXy/wbMfwEo7lgsyfmOEaBYbW6p7xCpx/z6ky/8xneE1Cs45tePWFbjff/1XgBs8mtbJXEqr/petClLvN+FmnbMrydRTatNWrHOd4y0s8mbmV8/XrQpm7zvv94LwC40+Woz97++I2QI81ttFi30HSErnIz5rTInJWL/TUgBiJ7wnSA4znjNy4b5rTZTzSO+M2RFpJj5rbJISsRrnowCYG1PSir6jhGQLhU7n/YdIjOY3yozSfq+7xSZ0WHMb3V1qdYSsf8mogDYxGVbJD3jO0c47Kld165RBsxvlUU1TTZl1Zu+Y2SF/VkT81tdT+2698K7RBSAndyPfCcIyH2+A2QP81stlsv9zHeGrDEZ81slJkvM/pucAmAdP5HU5jtGANqVL7CBlhvzWyUmRQ1f9Z0iczoc81sd7YrjxOy/iSkANnHZFpm4safyZtm4F/gO9TJjfqskKrxhk1/z/h3qWWN/1rTFifmtNOc0y6Y1J2b/TUwBkCQ53eM7QvbZD30nyCzmt+LMar7rO0NWRWJ+Ky2SErX/mu8Ae3JOpnlHviTpaN9ZMsn0iiYs+qCZYt9RsiiN8+taU/RdOpZvt1M29jLjjvVKcE7mftc/VfObMq/Y1KZE7b+JOgNgJidnd/jOkVlOX0/S8GUN81tZli/8Owf/yjGTM4n5rRCz5O2/iSoAkqQVrzwg06u+Y2TQa1q+aKbvEJnH/FZGlOtQYc21vmNk3vqmByRjfsvvNa1rStz+m7gCYDNUlNOdvnNkjnO32gzePVUa81sZlqu92yaq03eOrLMZKpqY33IzS+b+m7gCIElavuhuSS/4jpEhC7Ri8b2+QwSD+S2vqKZVq9f8le8YwVi/+W4xv+W0QOuaE7n/JrIA7GxK0RVSsq6XpFSs2F2dxPaZVcxveZkVvmAz1OE7RyhshopmzG+ZxOYssftvIguAJNnxC+dKutt3jtQzfd9OWPx73zFCw/yWSa72FZuy+nu+Y4TGpr4118nd7TtH2jnT9+20zYndfxNbACRJVrxO0lu+Y6TYJhXdl3yHCBbzWxqLYrOac33HCFUUM78l2hR1dCV6/010AbCJSzfJ9ClJzneWFHKS/R87YTF/gT1hfktjubrb7eRVr/vOESqbtm2TMb895czc/7EztiV6/010AZAkm7jofyR923eO1DH3LTv+ldm+Y4SO+e2hfP0cO3nNjb5jhM6mNv2Pc4753U9O+pZNbU78/pv4AiBJsobrJCX2OkoCzVV97gbfIbAL87t/onyL9Sqe4TsGdop6NTO/+8XNjQY2pWL/TUUBsInzO9XlLpa00XeWxHNugyyabmMXctd0QjC/+8Gi2Fzth+zY9dt9R8FONlGdFjO/3WMbLGfTbWw6PrWSigIgSXbi4hWK449J2uY7S4JtU2Rn2sSFK30HwTsxv91g5sxqL7Wpq+f6joJ3smnNK4z5fT/bzIpn2pSm1Oy/qSkAkmQnLJmnKPqEpB2+syRQh8xdYBMXLfAdBPvG/L4Xk+UavmSnvHm/7yTYN5u2ZZ4pZn73rcNkF9jULanaf1NVACTJJiz8jaRPiy+p2FMsp8ts4uJf+w6C98b87pvla//RTl7NV9AmnJ265TdmzO9eYpNdZqduTt3+m7oCIEl2/KIH5Nx0Se2+syRAh6RLbNKin/gOgu5hfvdksnzDP9nJa//WdxJ0j01tesDE/O7SYaZL7NTNqdx/zXeAUrj5Y09XHP9cUh/fWTxpUeQusAmLH/UdBPsvCfPrWtf5WnrnNf98/Q120prb/YVAT7kn+57uFAW9/5rZBTZ1c2r331QXAEly88dMUFG/kNlg31mqbL0id5ZNWDzfdxD0nO/59VYAzGLL111qJ3HNP83cU30nuDj3C8kFtv+69Ra5s+yULanef1N5CWBPOw+A+YmSnvWdpXrc84rjEzn4p1+Q82v57RbVnsbBP/3slC3zTQprfuWeN7kT037wlzJQACTJJv1xlVoOPFWyrynbN6c4OfcdNeSm2AlLlvsOg/IIaH6lXN2L1jc60Kasfcp3FJSHnbp5lcVNp7rsz69zsu/YwOYpduqWTOy/qb8EsDf3/Nhzpfi/JB3gO0uZbZJzn7FJix/xHQSVU+35rdolAItiy9XfbCev/lp1FoQP7sl+5zpZJvdfc/qMndaUqf03E2cA9mTHL3xYtfmRcu47ykYbdZLuVa7zKA7+2ZfB+ZVyhWVWX3sUB//ss1ObH7YoHulkWZlf50z3mnUelbWDv5TBMwB7cvPHTFCsuyQ73neWHnpBzl1lkxYHdH0Nu1Vjfit6BsDybZar/YKdvPo/K7cIkmrnDYKW6v3XZFfZqZszu/9m7gzAnmzC4vlavvhEyT4r06u+8+yHpXLuci1fNJGDf7hSO79RrsOi+v+0ho19OfiHy07ZMt/WN59oss9Klp75lVtq5i639U0Ts3zwlzJ+BmBPzinS82POktlXJY33nedd/FHSN9Vy4I9t2m+7fIdBclRqfst6BiDKt1uU/6G2NP61few1vi4Wb3NOkZ7sf5YzfVUJ3n9N7puKm39s0xTE/htMAdjNOZnmHfVRyX1K0rmS6j1HapM0W7IfauIrvzKT85wHCVbu+S29AJgUFd4wq/muTl51h1kmrvuiQpyT6cn+H41Nn7KE7L/OaXYk/VCnNgW3/wZXAPbk5o3oK1d7gaRLJU2RlK/S0l2SnpbsXln7QzZx2ZYqrYsMKcf89qwAmBTVNFku9zMp+oqdtHpNDx4EgXOP9e+rgl3gzF0qV+X91/S0ObtXHe4h+7OmYPffoAvAntyLxzSqo/NESWfs+s84lfUeCVsm6XGZHleu8JiNe6G5fI+N0PV0frtdAKJch6L86+Zyv5Jqv21TlqXmJ0+RfO7RAxtV6DoxjuIzTHaG5Mq8/2qZkx6PnD0uFz9m05rZf0UBeFfu6dG9VaPRytkoxTZGkUbL6RBJvSTrJbl+O/+3JKlFsmbJtez831olp6WK3GKZlqjNLbUpS/gdbVRNd+fXta4vSOZk1iVZUZF1yFmzLFphkb0kc3OUq/1fm7TC448GIDTu6YG91dk5WlE0KnY2RuZGm3bPr3pJ2mv/VfOu/25x0io5WxqZW6woXiKrWWpTNrH/AgAAAAAAAAAAAAAAAAAAAAAAAAAAAAAAAAAAAAAAAAAAAAAAAAAAAAAAAAAAAAAAAAAAAAAAAAAAAAAAAAAAAAAAAAAAAAAAAAAAAAAAAAAAAAAAAAAAAAAAAAAAAADQQ/8fvkJ7Hkw3kycAAAAASUVORK5CYII=;" vertex="1" parent="iRG5U3GbNzpCpeT_m5hG-1">
          <mxGeometry x="590" y="350" width="182" height="182" as="geometry" />
        </mxCell>
        <mxCell id="iRG5U3GbNzpCpeT_m5hG-12" style="edgeStyle=orthogonalEdgeStyle;rounded=0;orthogonalLoop=1;jettySize=auto;html=1;entryX=-0.033;entryY=0.418;entryDx=0;entryDy=0;entryPerimeter=0;strokeWidth=2;" edge="1" parent="iRG5U3GbNzpCpeT_m5hG-1" source="iRG5U3GbNzpCpeT_m5hG-4" target="iRG5U3GbNzpCpeT_m5hG-11">
          <mxGeometry relative="1" as="geometry" />
        </mxCell>
        <mxCell id="iRG5U3GbNzpCpeT_m5hG-13" value="&lt;font face=&quot;Tahoma&quot; style=&quot;font-size: 26px;&quot;&gt;&lt;b&gt;Client 1&lt;/b&gt;&lt;/font&gt;" style="text;html=1;strokeColor=none;fillColor=none;align=center;verticalAlign=middle;whiteSpace=wrap;rounded=0;" vertex="1" parent="iRG5U3GbNzpCpeT_m5hG-1">
          <mxGeometry x="130" y="230" width="130" height="30" as="geometry" />
        </mxCell>
        <mxCell id="iRG5U3GbNzpCpeT_m5hG-14" value="&lt;font face=&quot;Tahoma&quot; style=&quot;font-size: 26px;&quot;&gt;&lt;b&gt;Client 2&lt;/b&gt;&lt;/font&gt;" style="text;html=1;strokeColor=none;fillColor=none;align=center;verticalAlign=middle;whiteSpace=wrap;rounded=0;" vertex="1" parent="iRG5U3GbNzpCpeT_m5hG-1">
          <mxGeometry x="140" y="520" width="130" height="30" as="geometry" />
        </mxCell>
        <mxCell id="iRG5U3GbNzpCpeT_m5hG-15" value="&lt;font face=&quot;Tahoma&quot; style=&quot;font-size: 26px;&quot;&gt;&lt;b&gt;Client 3&lt;/b&gt;&lt;/font&gt;" style="text;html=1;strokeColor=none;fillColor=none;align=center;verticalAlign=middle;whiteSpace=wrap;rounded=0;" vertex="1" parent="iRG5U3GbNzpCpeT_m5hG-1">
          <mxGeometry x="140" y="820" width="130" height="30" as="geometry" />
        </mxCell>
        <mxCell id="iRG5U3GbNzpCpeT_m5hG-16" value="&lt;font face=&quot;Tahoma&quot; style=&quot;font-size: 26px;&quot;&gt;&lt;b&gt;Load&amp;nbsp; Balancer&lt;/b&gt;&lt;/font&gt;" style="text;html=1;strokeColor=none;fillColor=none;align=center;verticalAlign=middle;whiteSpace=wrap;rounded=0;" vertex="1" parent="iRG5U3GbNzpCpeT_m5hG-1">
          <mxGeometry x="550" y="560" width="310" height="30" as="geometry" />
        </mxCell>
        <mxCell id="iRG5U3GbNzpCpeT_m5hG-17" value="&lt;font face=&quot;Tahoma&quot; style=&quot;font-size: 26px;&quot;&gt;&lt;b&gt;Server 1&lt;/b&gt;&lt;/font&gt;" style="text;html=1;strokeColor=none;fillColor=none;align=center;verticalAlign=middle;whiteSpace=wrap;rounded=0;" vertex="1" parent="iRG5U3GbNzpCpeT_m5hG-1">
          <mxGeometry x="1085" y="310" width="130" height="30" as="geometry" />
        </mxCell>
        <mxCell id="iRG5U3GbNzpCpeT_m5hG-18" value="&lt;font face=&quot;Tahoma&quot; style=&quot;font-size: 26px;&quot;&gt;&lt;b&gt;Server 2&lt;/b&gt;&lt;/font&gt;" style="text;html=1;strokeColor=none;fillColor=none;align=center;verticalAlign=middle;whiteSpace=wrap;rounded=0;" vertex="1" parent="iRG5U3GbNzpCpeT_m5hG-1">
          <mxGeometry x="1085" y="720" width="130" height="30" as="geometry" />
        </mxCell>
        <mxCell id="iRG5U3GbNzpCpeT_m5hG-19" value="&lt;font face=&quot;Tahoma&quot; style=&quot;font-size: 26px;&quot;&gt;&lt;b&gt;Single Point of Failure&lt;/b&gt;&lt;/font&gt;" style="text;html=1;strokeColor=none;fillColor=none;align=center;verticalAlign=middle;whiteSpace=wrap;rounded=0;" vertex="1" parent="iRG5U3GbNzpCpeT_m5hG-1">
          <mxGeometry x="540" y="770" width="310" height="30" as="geometry" />
        </mxCell>
        <mxCell id="U29PJXjMH5lwDnSstcUd-7" style="edgeStyle=orthogonalEdgeStyle;rounded=0;orthogonalLoop=1;jettySize=auto;html=1;strokeWidth=2;" edge="1" parent="iRG5U3GbNzpCpeT_m5hG-1" source="U29PJXjMH5lwDnSstcUd-0">
          <mxGeometry relative="1" as="geometry">
            <mxPoint x="1920" y="441" as="targetPoint" />
          </mxGeometry>
        </mxCell>
        <mxCell id="U29PJXjMH5lwDnSstcUd-0" value="" style="shape=image;verticalLabelPosition=bottom;labelBackgroundColor=default;verticalAlign=top;aspect=fixed;imageAspect=0;image=data:image/png,iVBORw0KGgoAAAANSUhEUgAAAgAAAAIACAYAAAD0eNT6AAAACXBIWXMAAA7DAAAOwwHHb6hkAAAAGXRFWHRTb2Z0d2FyZQB3d3cuaW5rc2NhcGUub3Jnm+48GgAAIABJREFUeJzs3XmUZUd9J/hvLDfufVu+XGpfVFVaSmiXQOwgCkSJ1UggF4yN3O6xz9hj9x99xrTHGC+nzNq03bb7zHEv0223PX3abhtjCbDBxsIIgbGMWLQhCS2175VVubz1bhHzx8usepWVmZXLvS/ivfx9OBKHXO4LMl/G/UXE90YAhBBCCCGEEEIIIYQQQgghhBBCCCGEEEIIIYQQQgghhBBCCCGEEEIIIYQQQgghhBBCCCGEEEIIIYQQQgghhBBCCCGEEEIIIYQQQgi5Ama7AYSsxE/+5O/siHy21cRis2Zm03SjUQLYBm50oIEqYCoAFNN6RDMoZlDQMAUGIw0AaFMEADDDYYwCAAMjDAy/5IWM4cbM+dgCPCmwYf0IwJgGg5n9uNYaDNCM8RQAGHicaqONMeCctWAAbUzCDNpgvGlgEnA+wVITpYzVjUknuREtzXCWmXQiTcUpJcSJNouPf+G/f+RoJj9QQsiaQwUAsWbfvj/YhCC8PhVslzDmKs31Vs74esCsZzDDjKHCgDKMCQxnkjNIZsAZ16z7rWuMwbET4zDGLPJqvbFtyzpwvqR6ITPGMGOM0ZohgWaxMWgzhobWbNoYPRmn5kyjEZ5ghh8HT44w5h9GKl766oO/fKanDSWEOIUKAJKp9/3MH1aKevpVKfhtgN4FYAdj6UYGrAMzw5zxIpgOODMCLLu33+kzEwijOLPrrdT6sSoKBd92My6R6hTHT5y77OMMDEyImIG3GRMNJvg5bti44fwUM+wg4zhspPdEodl66ktf2t+00HRCSI6oACBL9r6f+cOK0BOvY4bdyTm/npl0FxPYyMFGwUyFMaM4Q2+HvzMmp+qYrtm/R1XKBYwMV2w34zInTp1DkqQr/G4GxoUWjLfAeI0JfoYZfhpgBxnHcxz8+9H55DuPPLK/nWmjCSG5ogKAXLBn/345cmDkdUDyRg52Exf6Ws6xxQCjgqMomBbG0bdMO4xw5uyk7WbA8yQ2bxy13YzLnJuYRqOR7/2Zc5lwLuqM8XOM8aPg8iVh+NOcsX/627/61cdzfXFCyLK52ZuTXD3wi39wbRKnd6Vp+mYBfQvj2MIYhhnXBdhfRl+RtZ4DuJJGs41z56etvf7scgOHrDEhjzLGnwZjTyvD/7l1W/SPj+zfn1hrHCFrFBUAA2rPnv3Bph2VNyYc93DBXykMdoDrzZzpEgb09045gIWlaYrjJy/PAbiBQQgZci7PciZe1oJ/n2vvGyOy/ZXPfW5/ZLt1hAyqgbwRrDUf/Nnfv0vr9D2M4bUMZjfnekxypuyPhXvLlRzAUKWI4WrZdjMus7ocgA0MQsgW5/IM4/JZxvi3wcTfPPz5X/2B7ZYRMgioAOgje/b9QXlEte5nwtzDOb9NcL2dc1Q4p98j4E4OQCmJTRvWZg6gFxgXWghvUjB50HDxA87FV+Px8EsUQiRkeejG4ah9+/artDD6PsHj93DBX8253iGYLq+1Uf1yUA5gcbZzAHlijIFzGXIhjzPmfZvB+0taQiBkcVQAOOK+n/3d1whj/gU3uEswfbUQppTlc/JrhTM5gHVVFALKAdjEwIyQappz+SPO2ddiU/zTRx785Wdst4sQV9AdxoI9e/YHI9ur7+YSH5Q8fR1n2Mx5ZztasjqUA1hc/+UAssW41FJ4JxiXjwvmPezH4R/TJkdkraICoAf27fvdAhtiPwGGn+AmvZ1xM8YZ/ezz0GqHODs+ZbsZlAPoE4wxI7g/waX3z4J5f00FAVlL6CaUgz179geVzeWfUcrskwK3cWFGOE3n9wTlABZXb7RwfqJmuxnOYowbIfyzQsjvMCb/Ir41+jPao4AMKrorZWTf//7bbzNM/rzH9ZsZM5sYM/SzteTUmfOIIvt9NuUABgE3nucfZ9x7hCn1Bw//+a88ZrtFhGSFblIrtOcnfmfdiIePSGnu5dxcJzmTtttEOigHsLi1ngNYDc5V25Pqh5zzz0di9P955HP/qm67TYSsFBUAy/Chn/q9G7SH/1ty/Q7O9CbQOr6TKAewuHPnp9FoUg5gtRgYhPRPc6H+Hpz/9tc+/2tP2W4TIctBN7AruP9f/s59zOBfc2Feo6QpunoYDrnIGIOjx8/abgYYY9i2ZR2YY/kPygHkgUFKNSWE+qZh4ne/9le/9nXbLSLkStzqmRxx/wO/fz/30l8SQt8pOOjxvD7kSg5gw/phBL5bb6EkSXDi1HnbzRhoQnihFP5jhvF/+7UHf+NvbbeHkPlQATDjvgc+e5/k4peFZ+6Ugm76/Y5yAIs7fnIcaaptN2NNkEI1hVDf9Jj3ma88+LFv2G4PIbPWdAGw72d/91qt2ScFS97jSbjXS5MVcyUH4CsPGzeM2G7GZSgHYIcUqsml/3c+5Ee//ODHXrDdHrK2rbkCYM99vzc8XNWf8Lj+kK+w3oHHxUkOtNY4dmLcdjMoB0DmxxikDI5Kqf57fC75DB1kRGxwq1fK0fse+Hfv9IX4hFT6lZzBrd1ZSC4oB7AwygG4g3GhlQi+w4X8la/+1a8/ars9ZO0Y6AJgz74/KI+Ww8943DwghR623R7SWxOTNdTqLdvNoBwAWRIGQIjgPFPqT/S59GM0K0DyNpAFwLt/8t/dHkj8J+XhNUIwGu2vUa1WiLPnKAewkPFzU2i2QtvNIPPgXKTSK37VL/Bf+PKf/vph2+0hg2mgCoD3/OTvvKPo83+vZHITHaVLKAewuFq9iYlJ2sjOZYwx48ni8+Dil+hxQpI1t3qkFdr7gU99JEnaHwWSdVs2ubfzGrHn5OnziGPKAcwnjhOcPE05gP7AIL3guMfVr331wV//E9utIYOhrwuAez7wmV+MksYn0yS8ML+6dfMYhBA2m0Uc4koOoDpUQnWoZLsZlzl2YhxaUw6gn0gRnGde8Vf+4a9+9b/Zbgvpb31ZAMx34581NjqEUjGw0SziIFdyAIHvYcN6ygGQ7EjhT3uqsP+rn/+137PdFtKf+qoAePv9n/qZNG79XpKEQwt9TakUYGxkwU+TNYZyAIujHED/k7JwRojizz384Ee/YLstpL+41Rst4O0f+uzrdNj4n3HUvhpYfOceKQW2bBrrUctIP3AlB7Bx/TB8ygGQHDAAUhUOCPj3//1Dv/aE7faQ/uB0AfC2fZ/cauLkoSRq3nmlG383ygGQbpQDWBzlAAYHY8x4XvHrKar3P/LQ/zVpuz3Ebc4+I//2D3z8E2mrcSiJGsu6+QNAO4xzahXpR66k78Mwst2EeQW+Z7sJJCPGGBZFjbeZ9MyZvT/+6Y/Zbg9xm3MzAG/d9/FXIUq+kMStrSu9BuUASDeXcgDbt66Da392lAMYXJ5XOKZ55V2PPPjLz9huC3GPQzMA+/nd9378z5Jm/burufkDQEgzAKQL5xyetL8kZIxx8r3p0wzAwIrj1jYdjT+19/2f+H3bbSHucWIocve9n75Rm9bXkqS9KatrUg6AdDs/UUO9QTmAhVAOYPB5XuGYVN5dX/3cbxy03RbiBuszAHvv/+Rvxen001ne/AGaBSCXcmWd29UcgO9L200gOYvj1raw1Xxh7/2f+le220LcYHEGYD+/+/38r+Ow9q7lRfyWplwqYHSkksOVST9KdYrjJ87ZbgblAIgDGJRf/srXHvzNd9tuCbHLSi/0jgd+b3NUO/+9JG5vzus1PCmwmfYDIF1OnjqHOEltNwObNoxAKTdmJGZFcYxTpydsN4P0kOcVDuvi0J2P/Nm/sZ+QJVb0fAng7vd/am976uyhPG/+ABAnKVJtv7Mn7nBlE562g8sAyvPAufUVQdJDcdzaweoTh+6+/1O32m4LsaOnf/H33P/JH0vi2ld0GvekJw7blAMgF7mSA3B1nwrKAaw9SRqVknb9e3d/4FNvtd0W0ns9KwD2fuDTP9UO6w9pnfYsmu9qR0vs8AM3CoAojLHcza16wZUNk0hvaZPIOKo//K77P32f7baQ3upJAbD3A5/++TCc/BOj057OOLiauCZ2CC6c2A9AG4Mosn82wVy0H8DaZXTCG+H059+x79++x3ZbSO/kfkPee99n7w6j6f9ojOl54JByAGQuygEsTHkeuGOnFZLeMTrl7dbkF+65/+Ovtd0W0hu5FgBvv/8zd0TJ5N/2euTfLQrdG2kReygHsDhXlkmIHVqnIgzDR+7Z94ldtttC8pfbjfldH94/lEb1b2mdWE0WuTjSIva4coNzNQfgO/Z4Iuk9raMgDqN/BvbTYyEDLrdfcNjA15M0KuZ1/aVydaRF7BBcQFIOYEEUBCQAkCTt9Xvv4w/ZbgfJVy4FwN4f//TH4qj5yjyuvVxxnNAe5+QSroTdXJydUkpSDoAAAMK4/mNvv/9TP2O7HSQ/mRcA73vf72+M2tMfd2l6k84FIN1cGeW6OTvFoBwpkIhdxhgkUf0/7tmzP7DdFpKPzAuABp/8y14+678ULo60iD2uBAFdzQG48vMh9qVp4sth8Ue220HykWkB8NZ9H39VHDXflOU1s+DmSIvYIoRDOYCYcgDEbVHS+NC9935yu+12kOxlWgCw2PyhcXBEQzkAMpcrOQAXl6coB0C6GZ3yBkv/q+12kOxlVgC8Y9/+0SRuOnuohIsdLbHHlVGum8tTlAMgl4rT9tv27N9Ph0UMmMwKgCSVnzVGOztscLOjJba4ss7t6oFVrvx8iBt0mnjek95HbLeDZCuzAiBNwnuzulYeKAdAurmVA3DvvenKDAlxR6ojeiRwwGRSAOzbt1/pJFqXxbXyQjkAMhflABZGOQAyV6rjnbbbQLKVSQEwqdn9Bu5O/88KI/c6WmKPK9veurk8xaAULfmSi3Qaq733fep22+0g2clmCcDwuzO5Ts5cHGkRewqBG9PcoaMHVrlyciJxh+HmvbbbQLKTSQGgjdmSxXXy5uZIi9jiTA5Aa0dzAG7MkBB3GLBttttAspPRDIAey+Q6OYsiygGQS7myDODi7JTve2CUAyBdjEk3224DyU5WTwGUM7pO7igHQLpREHAxDD7lAEgXDlO13QaSnUwKACZEmsV1esHNjpbY4so0t6uPqVIOgHQT3HczsEJWJJMCQHCvbwoAygGQblJKCJHLqdjLorVG7OS5AG4USMQNTEj39nonK5ZJzyeF3zcL65QDIHO5sumNi8Up5QBIN8496jwHSDYzANKRJNUSUQ6AdKMcwGIoB0BmcA4pA992M0h2sskAME96XiGLS/WEmx0tscWVaW7KARCX+d4QGIz99TKSmcx+mb4/lNWlckcFAOlGOYDFuTJDQuxSfsl2E0jGMuv1vD56c0RxAmMoy0IuohzAwnxFOYC1jgPwZP/M8pKlyawAYODw/UpWl8uVMYZyAOQSroxyXZydYoxBeZQDWMuC4ihANeDAyXTes1AYyfJyuWq33RtpEXtc2RHQ3RyAGz8fYocf0P4/gyjTAoALBaX6YynAxZEWscfz3MkBJIl7OYDAkYOTSO8FfhWM2T8zg2Qv8x6vWNqQ9SVzQTkAMhfNAiyMcgBrEwdQKPXFUS9kBTIvADgXKBbdf8NQDoDM5co0t4uzU5QDWJsKlU1gzP7MGMlHLr9ZPxiGlO7vF0E5ANKNngRYnCsFEukN6RXhq745542sQC4FAGMMlaGt+Vw8Qy6OtIg9nifBuf13bZpSDoBYxjmGKnTy76DLrbdjjKM0tDWvy2eCcgBkLtoVcGGUA1g7hoe2AfS7Hni5Dnc8r4By2d1QIOUAyFyuTHO7ODvFGIPnURp80A1Vt4ILmu1ZC3Kf71T+kNOhQBc7WmIP5QAW58rPh+SjWF4PSTv+rRk9WfAMCiMIHN0kKHS0oyV2UA5gca7MkJDsFYvrEfi04c9a0rOerlgcQ7G4rlcvt2RhlACgHAC5iHIAC6MZgMFUKq1HUKCb/1rT06FOUBhGqbyxly95RcYYWgYgl3BllOtiPoUxBqVoP4BBUqlsoq1+16iez3X6fgVDw9udekTQxZEWsceZAsDR9yXNAgyOoeHt8OhZ/zXLyn1YCh9DI7vAuSsdLeUAyEXK85zIASRJijRNbTfjMq4USGTlOFcYGd0FKdzfsI3kx1ovx7lAdfgqeJ79xCnlAMhcvu/GNLeLs1M0A9DffL+C4ZGr6IAfYncmfnbHwHJ5s9WmUA6AzOXKTc7FxwEpB9CfOIByebNzOSxij/15TgDKL2FkZAckD6y1wcWRFrHHlWluVwtTVwoksjSeLGBo9Goovz+Oaye94UQBAACMCwyNbEOxuN7K67uYuCb2UA5gca4cnUyuhKNc3ohKdSs4nepH5nDuHREUqhgZubrn2YAojEE5ANKNcgALc2WGhCxMeSWMjO6E8iu2m0Ic5VwBAACMc1SGtmJoaCvQo1GYNgZR5N7Oa8QeV6a5XcwBcM7heW4USORSHBxDQ1tRHtoMRqN+sgin3x3SK2BkeNfMDoL5N9XFjpbY48oo190cgBs/HzKLo1hch+GxXZAOPF1F3Od0AQB0EsdBYRgjYzsR5LxblYtTrcQe5XngDhyJ6moOwJUZEgIUgmGMju5CUBgGYP89S/qD8wXALAaOYmk9hod35pYPoBwAmUs5Msp1cRbAlRmStcxTFQyP7EKhtA5woFgl/aXvFvG4kKgMbYXWCZqNs4iiRmbXns0BKEo4kxmB76Hdtr801A5jFIv2HpOdz2wOII4pO9Nrnl9BqTgGzvuuCycO6dt3D+cS5crmTiHQHEcU1jO5bjuMqAAgF3SmubMrMlfK1e2qA9+jAqCHfFVCobSebvwkE33/LuJcolzeBFNMEYZTaDYnAegVX68dxhiip2bIDKUkOGPQxu7SUJykSHUKwd3avjXwFWr1lu1mDDiOoFBFEFTpxk8yNTDvJsYFgsIo/GAYcdRAvXkW0MsvBC7mAGg9jQAAg3JkGSBsxygW3SoAKAeQI85RKozBD4ZA/RHJw8AUALMY41B+BSN+GUncRqs5jiQJl/z92hhEcQLlUcdGOigHsDDKAWTPkwEKpXWQ0q3fNRk8A1cAzGJg8LwCvOp2GJ0iDGtoNs9jKcsD7XZEBQC5gHIAi/MV5QBWiwNQhRGa5ic9tSbeaZ3lgWH4QRVJ3ESzdR7pIrMCdC4A6UY5gMUFvod6g3IAK+HJAEFxDJ4XgKb5Sa+tiQJgFmMMniqhqkow2iCO62g2zkKbS2cFwjYVAKQb5QAW4wc0W7YcnEsUCiNQqgzmWDFH1pY1VQB0Y5xB+RUovwKdxgjbU2i1pwHomRxATMsA5ALKASxMcAFPCsSJe7sVuoKDIyiOQPllcE79CnHDmi0AunHhoVBah0JpHdI0RhzVEIaUAyAXOZMDcHR5yvcV4oSWAS7FEQQV+MEQOFdgtFMfcQwVAHMI4UEURhEEHspDClFUR9Sug7YIXtucyQHECeUAHMbBoQrVzk2febQ7L3EaFQALCMMEkpcggxEUghEYkyKJm2i3p6E1TXWuPe7kAKIwQaHgVgGwlnMAUiooNQRPlSCEBIX5SL+gAmABxhhEcQrlCTAAjAkoVYFSFRhoJHEbYVhb1h4DpL/5yo0CoB1GKBR82824xFrLAUhVQhAMwRMFMN43Z6oRcgkqABYRRgmUd/lIi4HD84rwvCIMgFQnSOMWwpBmBwZZ4HuYst0IuHts9SDnADjjUEEVvl+G4D4N8slAoAJgEWGUoFJafKTFAEguIf0KfL8CYzSSNEIcNRBFTVB2YHD4vgfGGIwDOQCtNbhjI89BywH4fhXKL0NKH4y59bMmJAtUACwiipa/uxljHJ4M4MkAxeJYJzuQREiSFuK4Aa2pIOhfDL6STozAwzB2bhmgv3MAHL5fhlIlCOnTbnxkTaB3+SK0NoiTFJ5ceeCKMdHZktgroFAYhTYp0iRGHDcRJQ2ACoK+4vvKiQLA1RyAlAJJH+QAOOfw1RCkKkEIBe7YUxWE9AIVAFcQRsmqCoC5OBPgnoDnBShiFAYaWidIkxBx1ERMoUKnUQ5gcb7vOVkASBFA+cXODZ8pME6L+IRQAXAFYZigXMxvpMXAIbiCUApKVQCYzixBGiON24jiJgULHUI5gMUFvkKj0bbaBs49+KoEqYoQ3AcTHIxSe4RchgqAKwhXkANYHQbOJLiU8GQBQWEEBgZad4qCJG0iidpUFFhDOYDFBH5vcwCce1BeEZ5fnJnKp+fwCVkqKgCuIIscwGoxMAguIbiE8grAzFbw2qSdf5IQcdxGGreWcNgxWS1XcgBh5F4BIER+OYAL0/iyAC68mXV7utkTslJUACxB1jmArHAmwJkALiwfABoaWmvoNIbWIZKkjSS2v3nNIHEnB+Dm73V1OQAO6SkorziTxu8E9OgxPEKyRwXAEuSdA8gSB++sC3MJoADMNLuzjJDA6BRpGiFJQ8RJm55CWAFXcgBR1L85AM45hFeCJ3xwqSC4AuecbvSE9BAVAEvQ+xxA9jrLCB7APUgZzNYFMDCA6RyBrHUMnUZIkghp2qY9CxbEoDzpxMl8YRSjELhVnM7mADjjkF4BUgbgUkFyD4xJgDMK5RHiACoAlsCFHEBeGBjABAQDBJeALMDvup8YGBijYXTaeVwxjZGmEdI0WtNBRN/33CgAQnsFAOcCQihIqcC5B84lGBdgjCFKx5CmlEghxGVUACxRFA1mAXAlDAyMCUB0OnvvspC36fxHa6Q6gTEpjE6RpBGMTpAkbq5Tr1YQKEzXmrabkUsOgHMGxj0I7kEICcY9cM7BuQewzuj9SiN435doNgfzd0/IoKACYInCKEGpqGw3w0EztwPOL9k+9fIxqYGBhtEG2ujOrIJJodMUGjF0qgGdIEkT9MP5Cb7qrxwAn7mZcy7AeCc8yrjsfB/rjNp559zLTNrlexJNUAFAiMuoAFgiFx776m8MDAKMA5fcqhZ8bNzAADBGAwbQMDAmBcxMZgEaMAYmTaCNhjZp5+M67Xwu5/wCYz3KAXAODg7BPRgAQngz0+ydgosxDqkqKBUCGMbBWadtDAxm5pZug/KpayHEdfRXukRaG8SphicopdwbnUlmxgTAZouG5b5dDQA28299cV5hZtRuur7qwkjeGIDNXzwYrS98LwCMrSuhVuuk3Q1jC+8nbxjAOrfizg60DDBs9kMXPtf57+XH47T2IMTls1M2Y3ae4BCCUw6AEIdRAbAMUZjAo2WAPsK6/t01GmaX/Nc8/2MBc2q/cslDO7SfC1nJqZW94CuJZouWAQhxFQ1nl2EQHgck2VFKXBzFWxQnKbTlLMJ8fEXjC0JcRgXAMlABQLpxxuB59m9yxnSeUnEN5QAIcRsVAMuQphoxrWmSLq6Mcl0sTmdzAIQQN9Ff5zJFoXsdLbGHCoDFufLzIYRcjgqAZXK1oyV2OJMDiBPKARBCloUKgGWiAoB044w5sUMk5QAIIctFBcAypalGQjkA0kU5Msp1sTilHAAh7qK/zBVwsaMl9viOjHJdfV8qz/4MCSHkclQArICrHS2xw5V1bmdzAI4USISQS1EBsAIhPQlAunDGnBjlupoDcKVAIoRcigqAFaAcAJnLlRxAFLtXnHpSgHMHHpUghFzCjV6rD4VRAlmgcwFIh+9L1Buh7WZ0ZqfKtltxOV9JtNp0ouZiuDQoXx2ifE0EVU0hKykYM0iaAvG0QOOIQu0FH0mTxm0kG1QArFAYJShRAUBmuDLNHc3kALgLmxN08X0qABYiixrr3tDA2O0NsHmOx/bHOss6wze1gHcC0y8GOP1IGeE5N95zpH/RO2iFKAdAus3mAKLY7hq8MUAcp84UJLNca48rhm9tYfPbpyH8JYY3GTC0u43KtW2cf7yEU49UYGg1kqwQzSWtEOUAyFyu5ABcfEqFcgBzMGDz22rY9p6ppd/8u7+dA2OvbWDHBycgfOqHyMpQAbAKLna0xB5XRrmuzk658vNxwaa31jD22saqr1PeFWLHByfBhHuPfxL3UQGwChEVAKSLK8+7R3ECF28HrsyQ2DZ8SxvrMrj5zypui7D5nlpm1yNrBxUAq0AzAKSbW+cCuPfepBkAQAQGm98+nfl1R29vorQjyvy6ZLBRAbAKSUI5AHIpV2YBXCxOlUc5gA1vqEME+fQZm95aA9b2j5csExUAq+TixivEHldGua7mANbyMgCXBiN3NHO7fmFzjOJmetSSLB0VAKvkakdL7HBlBsDVHIArBZINpZ0huMr3t1K5zv5mVKR/UAGwSi5OtRJ7nMoBODg7tZYLgPLV+a/Rl69p5/4aZHAMzF/j9i1juO2mHdiyaRQwwKmzk3jhwEm88PIJaJ1f1Z0kGqnWEJxqKdLh+xJxYv9QnjBM4Htu/YnP5gDy/Jt0larmnxdSVfvvO9I/3OodVqBcCvDh+9+EV9169byfr9Vb+N5TB/HdJ1/GiwdOweRwXGoYJSgGtC0w6fCVG+cCuPgkANDJAbTX4LbAspz/zVkEBtwz0DGlAcmV9XUBMFIt4Zf+z/di4/rqgl9TKRew5w03Ys8bbsTkVBPfe+oAHn/iZRw8chpZ1QJhSAUAuciVHEAYpTBwLxju96AAYMzgmvVn8eqdB7F742mMlBoYLrbQCH1MNgs4NjGKxw/txFPHtiNKerNkw3o0Sdir1yH9z42eagUYA376Q29Z9OY/13C1iLvffDPufvPNOD9Zx3efOIDvP30AB4+cWVUxQDkA0m02B2B7GcAYgyh2bxkgzxwAYwavvfoAPvzax7B1ePKyzw8FLWyuTuKGzSex98Yfohl5+OITd+CLT96OdjzPSTwZSuoc2JDrS0BHDGnoWslHXOVWz7AMr7h2K27cvW3F3z86XMY9e27FPXtuRb3RxjPPH8V3nzyAH/7oKNJlPttPOQAyF+UAFuZ5AoyxzJfjRkpNfGTv3+HGLSeW/D1FFeN/e8138I6bn8HvP7wXTx9beZ9yJdF0/jMNcc1+AJX0D7d6hmV4zR3XZnatcinA6151HV73quvQbIVYIuKHAAAgAElEQVR48oeH8YNnDuGHPzqGeIlJ6ihKUQioACAdlANYGAPgK4F2ho/QXr1uHL/67r/BWLm+ou8fKTbxm+/9Iv7bt+7C3z1zc2bt6tY4pDB6e377AABA/SAtRZKl69sCYPPG4VyuWyz4eP2du/H6O3cjihM88/xRPP3cETzz3FFM1Rb+4w2jBIUg3ylE0j8oB7A4pWRmBcCGSg2/8WNfRLXQWtV1BDf4+bu+gSQV+NpzN2TStm61l33ohIHL/J6AqL3g53ZtMnjc6KVWoFjI/42uPIlX3rILr7xlF4wBDh87i2eeP4qnnj2Cw8fOXjKFSRsCkW6cMUjJkSR2t4p2NgfgSyCD82sCL8bH3vPXq775d/s/7noUR86N4cUz2S7Y64hh6rkAI7dk19Zu4TmJxlEqAMjSudUrLMPEVAObNuQzCzAfxoCd29dj5/b1eO/eV6JWb+Hp54/imeeP4NkfHUOzFUEbA85cG2sRW3wlkST2D2jJKgegkGIIEco6QgyOGleoQ0GvYH5BeTKTHMC9t/8AV42eX9U15lIiwS/s+To+8rkPwphs/57PfKOC6g3tXGYBTn+9AkNHk5Bl6NsC4PmXTuCG67Zae/1KuYA33Lkbb7hzN9JU4+DRMzhy/CyOHj+LoyfOQ9MhQWue70s0mvYLgNXkAEbQxu3xadxoxrE5bYDN2WA4gsCLcgTP8jE8IzYgWeLmolnkAIaCFt53+5Mr/v7F7Fw3jjdd+yK++eLuTK8b1zjOfquMjXuyPb639qKP6Rdp9E+Wp28LgMe++yLe8/Y7oByY2hSC49qdm3Ddrk3gHIjjFIeOnsGBw2fw8qFTOD0+BSc3Zie5cmXb25XkAEqI8bb4EF6dnIRY5M2rkOKmZBw3YRx72WH8vbcDT4hNS3qN1eYA3nbDcyh4+RVY77716cwLAAA4+1gJwfoY1Zuy2bY3PCdx9K97NxtKBocbPdQKTEzV8eCXv4MP3fsG2025jOcJXHf1Zlx39WYAt6HRbOPgkTM4cOQsjhw7i7PnpqkgWAME587kAOI4hfKW9ojYdj2ND0c/RMUs7+Y6bNrYF/0It4oz+HN1E0Is/nqrzQG8ZtehlX/zEuzecBojpSYmGsVsL2yAY18ZBhOTGHrF6oqA9hkPhz83DN2mpUeyfH1bAADA1775DHwlce87XwMXlt4XWs4sFQPc/IqrcPMrrgIAtNohjh4/h0PHxnH02DiOn5pAmtp/Zpxkz5kcQJQsqQC4KR3HB+NnIVexNn99OoGfC3+AP/JvRQMLP5a2mhxAUcW4fuOpFbdxKRgzuGXrMTz6QvazACYGjjw0jA1vrGP9G+sr2r1v+rkAx75chY4c6PxIX+rrAgAAvvy1J/DSwdP48I+/GZt7GApciDG4YjFSCHzsvmYLdl+zBQCQpCmOn5zAkePjOHL8LI6dOI9m0/4z5GT1XMkBhFGCSmnxNeItuoZ98XOruvnP2qQb+HD0Q/yRum3BXMBqcgDryjUwlv802obKdH4XN8CZb5Ux9VwBG+6qoXp9e0nrNK2THk5/vYz6YVrzJ6vT9wUAALxw4CQ+8e8/j71vuQXvfNvtKFjcl38pBcBcUgjs2LYOO7atA/AKAMBUrYnjp87jxKkJnDw1geOnJtBqUVHQb5zJAVzhJhsgwb+InoGXYYx8RzqNd8QH8TfeNQt+zUpzAMPFxmqatmSjpXw37gGA8JzA0QeHcaqaYujaEOVrQqhqClnR4FwjrkvE0xyNowq1FwK0TrvxniL9b2DeSUma4iv/8AS++c/P4717X4W7Xv8KSNG/22JWK0VUK0XceN3FrUknpxs4fuo8Tp6awIlTkzhzbhK1Gp3/7TKXcgDRIjmAu+Ijy17zX4rXJcfxHbkZZ9n86+grLZB6teQ396mHPMVTAue+V8S572WcOSBkAQNTAMyqN9r4Xw/9I/7m4e9jzxtuxNvedDNKxd5NleVw2vAFw0MlDA+VcNPu7Rc+FoYxzk3WcXZ8GmfOTeHM+DTOjE9jcqpOQUNHuJ4DKCPCG5Njubwmh8Hd8WH8LzX/znpKrSwHMNEoZdG8Kzrf7M3rEGLDwBUAs2r1Fr701e/h4W8+jT2vvxFve/PNqFZ6U1mvZBlgpXzfw5aNI9iyceSSj7fDGGfGpzB+bhoTU40L/0xONVCv06xBLynldg7g5vQsZI7V4g36LHzsnvepAAZAeWLZJ2qON8owhuWeAxivlXO9PiE2DWwBMKvVivCVf3gCDz/6NF5/527cfdctToQF8xb4Hq7aug5XbV132eeSNMXkVBMTk/ULRcG5iTpOnD6P6el8tildywJHzgVYaEOgG9Jzub6uNAbXpefxjFg/7+d9Xy67AGiGCi+e2YDdG09n0cR5GcPw1PH8TgckxDY3eqYeiJMUjz72HB597Dlcs3Mj3vSa6/Gq265B4Gd/gE8vZwBWQgqBdaMVrButXPa5I8fH8eg/PYsXD+T7iNVaIjiHEHzZx0xnTev5cwBXpVO5v/ZVenrhAmCFOYDHD+7KtQB48cwGnKvTDAAZXJmcX2sA+/Oby/DyodP4k794FL/8W/8Df/znj+DFA6cyXbvPMweQt6u2rsMDP34X7nvXneCCjjfOiiunA0Zzjrf2kUIh/8JkaJGAYScHsPxrfv1Hr0A7zu8EzryOBe5rjNGjSAMkk16JGT3h9JB3AWGU4NuPv4BvP/4CNq6v4g2vvh6vveNajI6svup3fRbgSu645WpIKfGXX3rMdlMGgq8kmi7kAMIE5a5QbKlHtXsZC983OjmA5S8DnG+U8KUnb8O+O7+7ytZd7tC5dXjkheszv26/YwY0NThAMikADMeZHuzJkavTZ6fw4Je/gwe//B3s2LYOr7xlF26/ZdeayAss5JYbrsLLh07hB08fst2UvufMfgBzbrJX2q43K+0lbAu83AIAAB76wR14/TUHsG0kuxMBk1Tg//3GXZmfBDgIDGfHbbeBZCebXkmz51ZwIqizDh8bx+Fj43jwK49j88YR3HHzTtxxy66ZjXqWpt9nAGa99U0348lnj9DphqskhTs5gDhJ4cnODbkBhRRs0QN/slBjiz+Ku9ICqRUrfOpv3oPP3v85DBWyebrlv37rzXj+1OZMrjVodGqest0Gkp1Myv/dt73jMIP411lcyzX1RhsvHjyFbz72HL79+As4P1mHJyWGqyVwvvgdng/AEnrgezh45DQmp/LfEW3QxUmKOLZ/5oPniUtO0bxNn0HJxLm+5pNiI47yoQU/LwRHvbGyG3gj9PHDE9vwqh2HUVAr//+RaoY//vab8LdP37Liaww2ZqaPnXzg0KFHVn6EI3FKJgXAC099ZfL62973UTbgTxW02hEOHD6Db3/3BTz86FN46eApTNdb8JWHSrlw2Yh/EAoAADh7roajx8dtN6PvaWPQbud7o10KxhiKhYvbZQ+ZEDt1jnveA/iSfx1aWDiwx9DJJ6x0huR8o4RvvXQdrtt4Gusr9WV//2SziN/+u3fhmzkc/DMwjDn/d1/8N5+23QySncxu2BzmaQO8OqvruS6MEjzz/FE88/xRAEClXMArrtuKG67bihuv24rRkfLALAOUe7iT4iBzNQfwrFyPtyRHc3u9k7yMcyhc8euUWlkOYNb5Rgm//tD78bqrD+AnX/sYtg5PXvF7WrHCF5+4HV944vZcnygYBIazf7TdBpKtzHokbZLfZEx+Javr9ZtavYXHf/ASHv/BSwCAjeuruPmG7bj1hm3YtmUMw0P9u6Vos20/vT4IXM0BHGMVvCRGcG06kcvrPSKvWtLX+UqitsrXMobhn16+Bo8duBrXrD+LV+88iN0bT2Ok1MBwsYVG6GOiUcTxiRE8fngnnjq2HVHSv2eG9JIw/KO220Cylen49N4H/sskGKpZXrOfMQZs3lgFZwzlUoBtW8awbcsYtm8ZxdZNo/A8N0aEV/LnD30bz76Qz17xa835ySaaLfsF1XC1cMnMzhZTwy+2v595lvcor+A/+3dgKV2NNgYnT0/19T4ag4sd/sL/+LmdtltBspXtHYiz/wxjfiXTa/YxY4AoShH4EvVGG8+/eBzPv9h5ioZxhg3rqti+ZQzbZwqD+Xbmsy2OE7x48KTtZgwMX0knCoC5+wGcYBU87O3C3vhgZq/RYhKfUzdgqeMMzhg8Ty64ZTGxiOvfst0Ekr3MV6jve+C/TBqaBbigUg5QrQRL+tog8LB50yg2rqti0/ohbFg/jA1jVXgLHOHaC9/4p2fxD998xtrrD5o41Th9Jt/A3VJwzrBl49w/U4N98Y9we7L67XVTMPx//i14iY9c+Yu7TNXaqNFhVU5hYIcfotH/QMp8DjoVyS9wLf806+v2q+WEmtrtGAcPncbBQ10dMGMYqZawcUMVG9d1/tmwvoqxkTJ4zo8ZnDwzgUcfey7X11hrPJdyAKmGd8l2zwx/6V2PKahVhQKbTOLP1I04sMybP5BNDoBkyYAh/WnbrSD5yCWj/r4H/tM0Y9y9+WwLunMAWeKCY8PYEDas7xQF60YrGButYGS4BClWP2Nw+uwk/uQvHkVjhc9mk4W5kgMYqRZRKqp5P3dLehbvSl5GVS9v6/fnxSi+pK7DJJY26zUX5QDcYnR69Iv/8xeXluIkfSfzAuCt+z7+qrTV/O7I8A6ADciD8Ku0brTcuyNhGVCtFDE6WsHYcBljI2WMDJcxXC1ipFpC4M/f4c8Koxjf+f5L+Po/Pos0tb9pzSBqNCNMOLCxUrGgMDpcXPDzEhqvS47hlekZbNSNBb8uAcdLcgTfFNtwiK9+6+wz5+qUA3CAMSkmJ4/pEVHc+YUv/Hp+z4kSa7K/K4XJ54xOUWucRqVM22kCnWWAnhUABpiabmJquomDuHwt1/c9VIeKGK6WMDpcQrlUAAOQao1Tpyfx8uHTCEP7m9UMMuXIyYBXWp5KwPEteRW+Ja/CqGljh57EsIlQMhEScEwzhfO8gAN8GFGGZwr4ioKALqhNn4TRMW+I5C8AvN52e0j2Mp0BuOf9n/zpVjj9x5jZV7xYWo8goDygUhIbxuhccXLRyTPT1nMAALBxw9CcHIB97TDB+Pnl7+ZHstNqnUerOXPAEmMoqdE3/+2DH/2W3VaRrGX6l5/o6JPoOlSk2TiLOLI/1WlbHCfQtKhJuriyK2AUujfSVkoMxA6a/SpsT1+8+QOAMYhM+z/YaxHJS2YFwLvf/+ndcdzeNvfjtdoJpOnygkSDxhg4cQgMcYcrBcBqtt7NC2fswi6FpLfiqIlG48xlH0+i1h17fuJ3ln4cKukLmRUAIZLfxQJHitYmjyJN1/a6sosdLbGnX3IAtihHCqS1JIlbqNVOzPs5A81k1PxEj5tEcpZZAaCT6M0Lfg7A1OQRxEkrq5frO6GDU63Entn9AGxLU43YgSzCXL4jBdJaEUcNTE8fX/RrdJK8t0fNIT2SSQ/0rg/vH0p0tPBh3wAAg9rU8TWbCYjiZIH5EbJWKYs7PHZzMQfgyhLJWhCG06jVrrzdd5JGW3rQHNJDmRQAcUv89FJ37qjVTqDduvIxnYOmcy6Aex0tsceVUW4Yu/e+5Iw5UyANLAM0m+fQqF++5j/vl+uU773vs3fn3CrSQ1nNQb52OV/cbI6jVju15kbErq63EjtcGeW6ujxFOYD8GBjUpo+j3VreEdCGh3vyaRGxIZMCwOh043K/J47qmJo4BKPXTjre1Y6W2OFJAc7tP++WphoJ5QDWDK0TTJ4/tKJMljZsaw5NIpZkUwAAoyv5Pq0TTEwcRhSujeM/KAdA5nJmFsDB2SlXfjaDJAprmJw4BGNWNvDixix7sEfclc0SABP+lb9oIRr1+mnUayex0GOEg4JyAGQuV0a5LhYAlAPIjjEatenjqNdXd9SzZqyUUZOIAzIpACQXq57Hj6IGJs8dRBIP9qOCLna0xB5XRrmuLk9RDmD14qiBqfMHEGfQtwom186a7RqQSQHApMrkTaGhMT19HLXpEzDGvTXJLNAMAOlGOYDFuVIg9SOtE0xPHUOtdhJZ/Wa5yKavJ27IZgZAqEzn7uO4iYnzB9FuT2V5WSeEUTrgCx1kuVy5ybk4O+XKEkk/MTBotyYwOXEISdLO9NpKrmK1lzgnkwKAC09lfK4QAINm4ywmzh9EEg/O5kHGGEQOPndN7HHlJudiAUDnAixPkrQwde4gms1zmV+bcwkuPKoABkgmPQ+HEL5fQphDmt+YFNPTJyCkj1J5E6TwMn+NXgvDBL7nRqdP7HNmBsDRHIDvS8QJzTwvJkljNGonkaZRbq/hBxUAxv56FclMZsN2X1WyutS80iTE9ORhNGonoft87wDKAZBulANYnCsFkovSNMb09HFMTx7O9eYPAEqVc70+6b3M/rKkKoADmYVNFhJGDYTRQXiqjFJpHTjvv85hNgdgv8snrlBKot22f2JmFCeQQtluxiVcWSJxidYJGo0zPTtbhXfmebHULd9Jf8hw4Z7BKwxnd7kriKM6JicOoV4/DZ3214iacgBkLldGuS4uA1AO4CKtY9RqJzA5cainB6sVyut79lqkdzLtdYqFEYQ9PugnCmuIwho8L0CxtL5TpfYBygGQbs4UAI4uT631HECahmjUz2ae6l8KDkAp2v9nEGXa6zAmUCiMotU6n+VllySO25iaPArOJQrF9VB+EczhSXbKAZBuyuvkALS2O8WaJBqp1hA866d6VsdXEvVGaLsZPWYQR000GuPQ2t7yUKG0AYy59X4g2ch82FEojlgpAGZpnaBRP4lWnaNQHIMKymDMvelDygGQuVzJAYRRgmJAOQBbjEnRbk+h3ZyAsbxrCAeH7w9ZbQPJTw5/VQyVoc2oTZ/M/tLLoKHRaJ5Fo3kWnldEoTQG6dDygDEGcZzSXufkAt+VAiB0rwDgjEFKjiRx7ymFrCRpiFZ9fEWn9OWlXN1Ko5QBlktZ7Xkl+P4QwnA6j8svWxw3EU82wRhHsbQOSpWdmNIKo4QKAHIB5QAW5yuJJMn3Ubde0zpFFNbQbp+H1m4VN4XCKCTt/DfQcutxSuX1iOMmtHanMzFGo1E/gwbOQMoAfjACpYpgzE6JG0YJKiX6AyMdlANYnO9LNJqDUADMrO03z0Hn/Oz+SkmhUCiu6JR30kdyHHIwVKvbMTFxGPnvDrB8SdJGUj+JBgDfryAoDPf8CQIXH7kidlEOYGGuzJCsVJKEaLfPIwobtpuyOM5RqW613QrSA7n+RTEuUK1uw9TUkTxfZtXCsIYwrHUedwmq8IOhnhQDnf0AKAdALqIcwMIE5/2VAzBAqkOE7Wm02zW4OBCaiwMYGtrhZHCaZC/3klpIhaHKFkzXTuT9UqumgU76tj0FBgY/GIIfVCGEh7ySMJQDIN1cGeVGkZvP3DufAzCdMF8YTiFs19EPN/1uleHt4IL6o7WiJ72NVEUMDW3B9LT7RcAsA3OhGAAAzy8hUEOQsgiW4b7tlAMg3TxPgDEGY3nL1ThJKQewRMZopGmIsF2bORCtH7fL5Riqbu2bjdRINno23JBeEUPD2zE9ebRXL5mpOGwgnlm7k9JHEIxAegVwvrpqmXIApBsD4CuBtgPviyhKUQgcKwAcmSHROkEct9BuTeR+CE/+OKoj2yF4/5+0Spanp39NUvioVrdjauo4+m1qrFuShKjXT13430FQhfIrEEIt+/FCygGQuZSSThQAYZSgELh1U7CVAzBGI9UxorCOqDUF3cf91yU4x3D1qr48VI2sXs9/60L6GBnZgampo049Irga3UsFXCgEQRWeVwIXYknbEVMOgHTzfQnUbLfC3dmpXuQADACdxojjBsL2FNLUfjAza5IHqIxsAcvyTDjSV6yUfYwLDI/sQL12ClHk+CMxy6TTCM3GWQBnAXT+yFRQhlQlSO7NmyWMogSgHACZoTzpTA5AGwNuaZ+MhSiVfQ7AADA6QRK3ELanndqNLw+eqqBS2Wi7GcQyi/M+DOXKZrRbk2g2x+01I2eJbiNptoGZ/4/SK8BXFXheAMY9MMac3XmN2OFSDiAM3VsGCLI4F8BopDpBnLQQtWpI0t6fsmdLubIJSpVtN4M4wPrCT1AYhvLLmJ46NjBLAotJ4haS+OLognMJ5ZfRqgr4fgGccdDm24RyAAsTnEMIjjRd+jq80QapiZBEDYRhbSCn9K9ESoVKZSvYKoPLZHBYLwCAzk2wOrID7cY5tNqTtpvTU1onaLcmMT6eoFIuAgA8rwClCuDCB+fS6WONST4oB7A435doLrAMYIyGThPEaRtR1ICOGoMS2VuxQmEUheIIaHBBujlRAAAAA0OhtA5eUEF96ji0WVt/smEYozIzKxfHLcTdswSMQXpFSC+AEIqKgjWAcgCL81WnADBGQ+sESRIijuqIoib68zn8fHCuUBnaBCHc2tWRuMGZAmCWFD6GR3chbE+j0Thruzk90w4XnpLUxiCKGpcFJj2hIFUBQvrg3ANjgsqCAUE5gMtpk3b+SUIkSQOT546t+ZH9wjhKpTEof8jaYWfEfc4VAB0MflCF8kuoT58e+EQuAGitEccJPG/pv5I4jRC3Lp0G5VxCegE86YMLb+b5XkYzBn1oreYADFKkaQqdRkiSEEkSzpsP4lJAJ25uWWyT55VQqmycyRMRsjBHC4AOxiQq1a1I0xC16VPQerCDO+0wWlYBMB+tk85mJWH9ko9zziFlAbKrMGCMU2HgMFd2vYtyeUpFIzUGRsed5+2TCEncglnG0p/ve0ioALigM92/kbbzJUvmRg9zBUL4qA7vQBI3UGucBvRgTvx15wCyprWedxkBALjw4AkfwuuEDjvFAaMNQixTyo0cQBSvLAdgYGbW6GOkOkEaR0jTMLMEfuArNBpr5/G9hXDOUSpthKdKtptC+kxfFAAAwBjgqRJG1S6E7RoajXH083bC81ksB5AnncYI0xiI6pd9jjMGIQMIqSC4B8ZFV4HAQKni/DAAyhNO7BMRRgkK/sVlANPZOgfaGEAn0DpFmkZI0whJGsLo/IuWwLefS7CKc5RLG+iZfrJifVMAXDR7TG8FUVhHvX7adoMyo7VGkiSQ0p1fizYGes5TCd0YAC4VhPAguAfOPXDOwXhnG2RG+xqsiu/LHhcABqazLR60MTAmgdEJpqda0GUFncbQaeREzl4IASnFmlsG4OAoltfD88u0hEdWxZ07zbIxKL+CEVVGFNbQaowPxAEd7TBG2aEC4EoMgDSJkF5hb3aGzholF2ImgyDAmQQ4B2fiwoxCJ7FMndqs1ecAOmN1GA1jOlPyxqTQWsPotDM1ryPoNEKaJFhoVi0MJXw1usq2ZM9XaycHwDlHsbQRShVBfyMkC/1zp1kAY7MzAkNI4hbq9dN9vaNgGMYolwq2m5E5AyDVEVINYIHZhLk4Y+DCA+MSjHMIJgHGZtLNHIzPhBgZnykg0FkrAgZkecLA8zgADaPNzJq6mfnfeuZm3rmRa6OhdQpjZqfjYxiT3Y0xihJorcG5W7kQ3/fQaA52DoBzhXJ5PaQ3eP0CsavvC4Bu0itgeGQn0jRGqznelwcNtcN+P1s8O9oY6CQCkM3PpHPzYmBMgM/WBkyAMQ4DdAqLrgLCsM5067xmv3+BuXANDWYujL+BmdF351s66+YAZqbZNQADvUC4tVmfsJYP6RZGMQqBWwnzQc4BeH4FhcIopBjc/4/EroEqAGYJ4aFc2QxjUoTtKTSbk+iXwGCaupcDGBQXb7Ap+mnS2PeVGwVA6F4BIKVc9rkATuMcxWAMflCZyc8Qkp+BvsswJhAURhEURpGkIVr18b7YVKjfcgAkX4HvYcp2I+Du7FTgq75fBpBeEcXSGCQ9w096aM3cZaTwUaluhdEpwnAa7eaEs6HBQc0BkJXxfc+J/QDiOIUxxrmtZfs1B8A5R1AYg+/TaJ/YsWYKgFmMCwSFEQSFYSRpgqg9iXa7BpeWCFwdaRFbGHwlrS8DGGMQRjEC362DZfopB8ABqKAKFQzT2j6xbs0VABcxSOFBltajWFqPKG6i3ZxA4sASAeUAyFyu5ADa7ci5AqAfcgDKK8EvjsCTge2mEHIB3WFmKK8IVS0CMEjiNprtSSQWnyKgHADp5jsyyg0dKELm42IOwFMlFIJhCBk4t2xCCEAFwDwYpFfAkFeAMRpx0kbUnur5I4WUAyDdfOVGDiCKE8oBLNqOCvxgCELQTZ+4jwqARTDGOzMD3szMQJogiWpoNydzDxBSDoB0Y4xBeRJhRDmA+fjK3gxJEFRnbvqU4Cf9hQqAJZvJDMw8VpjqBElYR6s9Da2zv1mnqUaaphBCZH5t0p9837NeAABu5gA8r3c5ACkC+MEQlCqBcfr7JP2LCoAVElxCFIbhF4bRmR2IEIV1tMOpzI4rbocxSkXqYEhHEChM15q2m+FsDsBXHpqtMPsLc47Ar0L55c6JmPTIHhkQVABkgkEKH7Loo1gcgzEJoqiNOKohilpY6SOG7TBCqUipYdJBOYDF+X5WBQCHp0oIgjKkCGiUTwYWFQA5YEzC98vw/fLMCWwp0iREFDUQh9NLLgdcHWkROygHsLiVt4fDUwX4qgzpFcCYhGO1DSG5oAIgZ4wxMCbBlYSnSkB5A7ROkKQh4qiBuF1fMFCYJCnlAMglXMkBhKF7BYDnSXDOFzxUaRbnHJ5fgfJKEEKBc+oGydpE73wLOJdQXEJ5JaC0AcZoaB0jiduIwvol5xVQDoB0cycHEAEo2W7GZYJ5lgGk9KFUCVKVIJgC4zS8JwSgAsAJjHEI4UMIH35QBQBonUCnMTjXkJIjSeyP+oh9ruQAwsjNHEChUIA2AaQsQkgFISQunt1MCOlGBYCjOJedqUnOUS4PATDQJkWaJEjSNtKkRUXBGuRSDiCKYvgWlwEkVxAqgJQBhOik80tljdNna9baREg/oQLAcWmqkaQaUnBwJsE9Cc8LAAwD6HTE2sRIkxBJEigim3kAACAASURBVCFKmoC2Ozok+XIlB9AOe1cAeF7hwo2eCw+czb8s5kkBzhk0/Q0QckVUAPSBKE4gxfwdLWMMgikIpaAUUMQYAA2tDVIdQ6cxkqSNNG5DgzrFQeD7HuDAIDfzHABnULIIIRSkVJ3wLOdY7hS+ryRabfsFEiGuowKgD4RhgmKwnJEWB+cA5wKQAXy/cuEz2qSdf5IYOo2QxCGSHHYyJPkJfOVMDgAwWN4NmkF6HrgI4AkFJgQ4k2CMg2W0Vq+oACBkSagA6AOdjjYbnInO9KlSAErAzHlDBhpGGxiTQOsYaRIj1RHSOKKZA8cwxuB5AlGG74uVMMYgnG8ZgDN4IgATElL4YFxAcglkeJNfjK+oWyNkKegvpQ8kiUaqNQTPbwtSBo7ODqcCQvjwus5WMbP/0RowaadASNNOgZBE0DrNrV1kfoGvrBUAUipw7nVS9rKKUqUCwQQYn73B203dK49yAIQsBRUAfSKMlrsMkB028x9wDkBeViAAF4sEGAOtY2itOzsg6gg6SaDTCNrylPUgySMHwLmAEGpmcxwPQkgwLsGY6CwngV322J+BhOfgKXhKSbRpGYCQRVEB0CeWnwPorQtFAgO4EMAiexcZ6M6/jQF0Cm00jE6htYZGDJNqGJ0gSakDX8iVduHjF4q12Ru5AOed9DwTAhwMYKKzUyX4igftUZwsOwXQCz4VAIRcERUAfSLLHIBtDJ2lDMEACLlYrdBlZsNkY9ApHjofQ6o7nzG6c+4CUkCbTlFhOksWBqZTXDi+VMG5BGczo2wmOsE4LjqlFeMXp9gZBxjDuqiCJNbA7E18ZoWoF+vss4zpFAG+51ZXQjkAQq6M/kr6RC9yAG7jnfvbzL3twm6uq/hxdC9IMMzOTFz8HFtoyaIrgb/Yrdawubfii+vjWdyiiwWNus7h+NtlCkP3CgDKARByZW791ZJF2cwBDKK5N2HWVU2w+b6g+2uXcAfPexzu+xL1hv0CwPbTCAuhHAAhi1urw8m+FIZudrTEDlemucModfJBUVd+PoS4igqAPjJIOQCyepwxKM/+SZHGGESxe+9NKgAIWRwVAH1kNgdAyCzlyE3OxdkpzxPOnVZIiEuoAOgzUeR2kp30liujXBdzAAyAr+zPkBDiKioA+gwtA5Buvu9GAeBqDsCVGRJCXEQFQJ9xcaqV2MMZgyftj3KdzQE4UiAR4iIqAPpMnKS0pS65hCs3OReLU+VJygEQsgAqAPqQix0tsYdyAAujHAAhC6MCoA9RDoB0c2YGgHIAhPQVKgD6EM0AkG4u5QDi2L2nVFwpkAhxDRUAfYhyAGQuV25yLs5O9WsOgCsDUaR9P0h+3Og1yLKFYYJC4NluBnGEr9w4FyCMElRKvu1mXGI2B9B2eeaMAcWtMYZ2t1G5OoQ3koLLTpFvUoa4xtE4olB7wUftQADj3kQL6UNUAPSpMKICgFzkzAyAozdZpaSzBUBxW4RNb62juC2a9/NMGKjhFGq4hZFbW4inBc58u4yJJwsATRCQVXCj1yDL5mLimtjDGYOUHEli947Q2Q8gdeKMgm6uPCnRjQmDzffUMHp7c1nf5w2l2PrOKYzc3MKRzw8jadJKLlkZeuf0qSimHAC5lCs3OSdzAMqtHAAPDHb+xMSyb/7ditsiXPMvzyFY597Pm/QHKgD6mIsdLbHHmWUAB9+XDHBnVoID239sEqXt80/5L4dXTbHjgxOQFBYkK0AFQB9zdb2V2OHKDICry1OuFEib3lJD5drsApteNcX2D0x2qhxCloEKgD7makdL7BCcQ0r7f9Jad3IArnGhQFKjCda9ppH5dUvbI1RvbGd+XTLY7PcWZMUoB0DmcuEmB8DJg4E6OQC7bdj4lnpuve6mt9TABPUHZOmoAOhzLq63EntcmeZ2cXmqkwOw9/MRgcbQ7vxG6V41RWnH6nMFZO2gAqDPudjREntcmQFwtTC1WSBVrovAcu5xh663vxkU6R9UAPQ5ygGQbi7lAOKEcgDdStvzvzn34jXI4HBjuLBKUgi88bXX4/abdmLjuiEo5eH4qfN44eWT+N5TB3DqzKTtJuZm9lwAbntxkzjDVxJJYn8qOIwSJw4p6jabA7ARnfEq+T+q51XpcUCydH1fAOzcvh4/91Nvx7rRyiUfH6psxQ3XbcW977wTR0+cw/eefBnfeeIA/n/23js8rvO68/++723TMDPojQBBsPcmUiQlkqJIVcuSLVnuSnPibNZObKesk11vosRO8ks2jiQ7ycZOfi6y48ROYtmObVk2aZmkCqvYOwmQIHqbQZly67t/DEFCIIgpuDP3DvB+/PCRSdy57+Fw5r7nPed7zukfGHbI0vzAGKBpJjwuyf1ynEdRRMTiLnAAVAMBnzvmAiiSjqAniaQhoV8WoKqFj06IgfxvzlRkoB4GK8kPBJz0FPWu0dRQhd/7b++AokzdE7+hrhwNdeV41yMbcfV6Hw4fv4Ijx1sQGRotkKX5RdUM7gBwbsJ1AEDYl8DqhjasrG9HU8UAZPGWLaYaRUc/wZGrTTjQMh+Xe6sKYpNVCJ+DAeBZQU6GuONJkQOSKOAjH9yRdvOfSFNDJZoaKvGexzah5VoP3jrZimOnW9E/OJInS/OPWwVXHGcQKIUgUJims+HgMR1AIdMAPlnFrmXnsH3xBUjC5DuuICpoLOtGY9kgnlz3Fk62N+Abb27Glb7KvNpmjOZfm2EmCSyDn/45mVG0DsC6VfNQXRnK+fWEAPObqjG/qRpPP74JXT0RnDhzDSfPteFya7eNluYfXTe4DoDzNhRFRNwNaYAC6gCaK/vwG9v2wa+kEcJRBamiwJQQYNWc6/jr97TjXw5uwkvH1oKx/HyP9Gj+3wctWrSPdI4DFO2nZe2Kebber7a6FLXVpXj4/jXo7R/GsVOpyEBrWx+Yy5vtcB0AZyKK7BIHoEA6gLuaruJDdx+AIGQQ9SAUoDJg3XIUCGH48KY30VA2gC/u2QUrD07AyBUPyjfkPvwnozUuu0NzwSkOinbHKJ8g+rOTqoogHtqxGg/tWI3oUBynz7fh1Lk2nL3UAVXV87budOA6AM54ZpMOYH5Vb+ab/xjU+zYHYIztiy5iKO7D1964x0YLU4xek2GqFIKSv9TMyCVP3u7NmXm44ymRA4JQmFrncMiHe+9egnvvXgLDNHHxShdOnbuO0+fb0NM3VBAbMoHrADjjEQUX6QBMC1Kevq9hfxy/vnV/dps/ANA7b5SPrzmOy31VeO3SwmlaNwELGDjsQ9W9+REfx67JSPQU7SOd4wBF+2kZjIxgTm1ZQdcUBQHLFs3BskVz8L4nNqOnb+hGdOA6LrV0Odr4hOsAOBOxUwfgZQaarSjCLIkQU6ETiig86CU+tAkhTJUk01QDkk+2xY6JPLbyZPqc/2RM0AFM5Fe2vI7DrfOgGvY+IvsP+lG6Ng7Jb7NjxoDun+cvKsqZmRStA3DizDWsWjbXURuqK0OorlyJnVtXQtcNXOvox+WWbpy71IGLLV0FPX1xHQBnItPVARAwbDC6cY9xHUusAUhs8s9zlHhwTKzCT8Vm9FD/bT9XNQP+PDgANeFhbJjXmtuLJ9EBjKfMH8Ojq07ipbfWTcPC27E0gq6Xg2h8yt7xvX1vBpDozq4iisMp2t3iyIkWPPbgepSGbn/gOIEkiVjQVIMFTTV4+P41iCdUnL/UiXOXOnD+ckdB0gVcB8AZz3R0AIusQXxAPYu5VvrPbZglsUNvwzb9OvZJDfiutAQxcmszyld6amNTCwiZhkD3DjqAMXYuOWu7AwAAw5c86Nlbgur77Ck9Hm1R0LM/YMu9OLOLot0tEkkNL35nLz7+aw8XTA+QDT6vgnWr5mHdqlS1wmBkFOevdOJSSzdarnajKw/tiflcAM54ctUBbDfa8GH1NIQpA/u3I4Bhh96G5cYAvuC9C50ktSmZppUXHcDKOe3TuwGdWjFfFx7CnHAE7dHS6a0zCX1v+mEkKeoeHJrWgKChsx50/CgE8A7AnBwoWgcAAM5caMcX/vll/OYv7YLP6+7yl7LSALbctQhb7loEABiNJXH5ajcut3bjcmsPrrX3TTtloHEdAGcC2eoAntIu4B365WmtWcVi+F/x1/FXns1oE4IA7NcB+JUkqoPTbOtNPZhKBwAAS+s78+IAAEDkmBfGEEXdI8OQgtnphyyNoHdfAP2Hc4+AUkWBVBLIys2jkhT4nf3a+oyvZ2BElK4+t4UM5mAiJ8/YslM88cyXzwJsqR33yoWSgBdPP74Jm9bZrNotILpuoPV6H660dqO1rQ/XOvoQicayvk9lecA1JWAc54klNESimdWebzba8RvqCdvWHiBefNZ7D4aJAp9XRlnYZ9u968MRfPrRl6d/I7VzyjTAd45swL8d2jj9daaAigyl6+OouCue1hGwkgSRM170vRaAEc8tdEAEivItm1CyaGGqI1r+MQlhXwmVKx9/djlxvjkF5yYzYqcYGU3gK996Fa8dPI/3PLYJTQ35bemZDyRJxKLmWixqrr35Z0MjcVy73o9r7X241p7679Dw1A9zVTO4A8C5SaafhSorjl/RTtm6djlL4FfVk3jBs8F2HUDQl7TnRtQzpQNQ6stv4x4AsAyCgYN+DBzyw1utI9CsQg6bEP0WiAgYIwT6iIhYm4xYmwRmTm/TLt98N0oWL7LJ+owQGCO/EelXTQC/VciFOVMzo3aKi1e68JdfeAl3rVmAdz6wDjVVYadNmhahEh9WLWvEqmWNN/8sOhTHtfY+tHX0o7M7go7uQfQNDN9MH6iqAXA9EOcGmeoAntTP31HlPx1Wm71YavXjHCps1QHohk16AuoBcGeho6oX8BHJgES3lFc1v+DxILDQmUgpAfnIH7w6+qf/Z0eguHqtz2BmlAMApMrhDh+7jCPHL2Pl0rl45P41mN9U7bRZthEO+RAOzcXq5bdKIE3TQiQ6iq7eKDq6BqHqGvr6h9DbPwzDwd4EHHegyCLiiTtHXmutUWww8vdMfkK9hHPeClt1AMNJm9IJUzQEAoDBuH1pCzfgra8FcU40LWmCtAvAN50ygPN2ZpwDMAZjwMmz13Dy7DUsaq7FQztWY8WSxgKlvAqLIFBUlAdRUR7EyqWNEG7MHLEsC4PRGAYjo4gMxRAdjiEajd38/4kpNgXOzCGdA7DB7ALJUvGfDQutCEpZEqouww97HIBI3AfDohDpNKMWhKaqAe6QBugezn3gmBvx1tWmvyiPEAs7wR0A1zBjHYDxXGzpwsWWLsypLcP9W1diw+rmrMcIFxOMpbQ9lFJUlJWg4g5zE5KqjuhwDJFoDIOREXR0R3CppYuXE84w5DS9IdYYPXldn4BhtdGL/ap9p2ndEHCpuwZL6zqnf7M76AB0S8DJ642TvKB48dTXOWsAwU5nDeCMZ1Y4AGO0dw3ixe/sxbe//wY2rG7Glo2LsaCpxmmzbGfMAUiHR5FQUxlGTeUtrYSmGzhw9BL2vnGWpw9mCNIUOgAChnpmT0OaqZjDUjoVw7Qg2hSCPtExxz4HYBIdwOn2OYhrM+egIJaUQAw4LhBq+J29yYVf2O655LQhHMCWbyIDS9hxn0KhqjpeO3QBf/13P8Af//V38JOfH0+rri8mpjO9WJZEbNu0FL/+4fvh9/PJYjOFO1UDBJieF/HfREpvnLDtrAY43DoPETty9HdoCPS942umf28X4XT4fwyBUB4FcAm2OAAUZMCO+zhBd28U3/3xIfzhn38Lf/eVV3D4+BUkXTryt5DUVpXiw+/ZClEUnDaFYwN3cgB8KMxn3c9SGgQ7HQDdEPCT0yunfyMi3OYEHLnahFPtc6Z/bxfhrXNHtJNZjDsALsGWFACD1WvrZAsHME3rpmhQFAQsW1yPNSvmYc3yuQgU4Uk40zTAVNRVl2Lb5qX4+f7T9hjFcYw76QBGbRLlpWOEpDZYVbVXX/LmlWasrG/HivqO6d1onBAwGvfhy/u222CdiyCAp9YdEQAQ3P8sY/RZQngDY4exKQIgHLLjPm7BME2cPNuGF7+zF7//p9/A3/7jD/Hz184gMpR9Zz6nmE4aYDyb71oEmTcWKnrGdAATiREJuj2PgSmJ3jhhj+kAbIMRvPjGPegamqZa/0Y5oG4J+KuXH0H/qOO5cluRw2EIPq/TZoxRFt2vz6z8SpFiS3y3Zt2TFzyW+YdFHgSYFMaA/sERnD5/HXv2n8Lp89cxMpqEJAkIlvhAXFxXSG14rgsCRUfXIPoH8y8U4+QXXTehTyLsXG31oYzZ1FnvDuyVGtFGU5u0JAmQJftSS4ZFcaxtLhrLBlEeyNFJJwKGR1T85cuP4VyXS07KNuKfPw++BvekNBhhVw5+9XNvOG3HbMeWb+HV499PLln9zt8D4O6JPDYQHYrh/OUO7D94Hj/bdwoXLndiaDgOSRIRDrqraYgdDgAA9A0M49r1PntuxnEMy2KT6ltKmIZlZn/+1gXB15WV0EgqkkQpgddjr7peN0UcudYESTAxt2wQlGYXArvQXYc//6/70dpXZqtdbiG8ZjWksHt6GhAQ68DXPsf7ATiMjbFdsh9gj9p3P/ejqjrOXerAuUsdwI8Poaw0gKUL52DZonosWVCHkoCzITc7dAAAoMgzpxRqNiPLk/v7R4RaPIkLoHlqBnROKL+pAQDs1wGMYVkU3z+2Fq9dWohHVp7G6obrUMQ7ixwZI7jSX4lXTq/Aha4ajOoJAHeeC1C0EAJPreu6oW797R8z5YuPkhn4hhcPtjkAVMOnLAmPzsQ0QKYMRkbx+qHzeP3QeRAC1NeWY/H8WsxrrEJzYxUqyoMFtccuByAWz294mFMYJFGYtB9AL/XhdXEOthrXbV+TgeD78tsHz9jdD2AiA6MBfPPNTfi3gxuwsKYHTeUDCHkTKPEkkdQlRBNe9AyX4ExHPWLqLYGvIosYjc28/chTWQEqF0bsmQU+6jfuBrDPaUNmM7Y5AC99+6MXn/ilL10HQ4Nd9yxmGAPaOwfQ3nmrQrIk4E05A3Or0Dy3Gk0NlfDksSOhXULAju6IPTfiOI4sCUhMIsL7nrwIG8wueJi9p/NDQi0u09Lb/lzTDYhCfjclwxJwrrMO5zoz636npOmYWKx4XFL/PxFKrJ3gDoCj2PqJJ4z8Lwb2op33nEmMjCZulhoCqVxobXXpDaegGs1zq1BbFXaVsHBkNIlr7Tz/P1NQFBGJ5O1h8Qjx4P/Ka/EJ9YhtqYAuGsA3lBWT/kxVDfg87jqVUkIgicKkQslixvH2v3eAMbYTwJ84bcdsxvad5vFn/vEKAWm2+76zBUGgqK4IYW5DJWqrwqivLUNtVTjn9AGl00sDfO/Hh3Ds9NXcb8BxFbphoqfvzhUdDxiteL96btrDgaLEg//Puwm9xD/pz0WRoqaysCmxTIgOJ2ZUGoAKAhp+6YOggisbehmmIpd/cRMZdtqQ2YrtMS+TWu8VLXqk2BsDOYVpWujsiaCz5+1h94Dfgzl15aivKUV9TRnm1JWhtqo07VCj6egATp9rw7EzV3N7MceVSKIASgksa/IN/mfiPPTCh4+qx+FFbumAazSEv/OsxwC5swjWMCyYlgXBrlIVm8hJB0ApqCDA0t3XQVSprnLr5g8AoqCpWwH8yGlDJvLfX2UBowTql+8i7vtHtZG87NLv+MAXh0RRdp97P8MgBCgvC2JOTRmqK0OoqgyhqiKIqvIQSsO3Tl65fP+PnWrFD356FJadTVs4rmAgEps0DTCeWmsUT2vnscbMfFJgAiJ+LM/HT6V50DOoMC4r9bkuDWAxhs7u2wcDTQYRRZRtuAuBhc2gsgw9EkH0xGmMXrmCPE5XzorSDesRXm1Du+Q8wRh57oX75N912g4AAGPkU/u0DzDg0wBWARhhYN+Qksr/+JuHSPF0gcsC2x2AXU/++Qe15PC/hMsaQcjMFNUUA5IkoroiiKqKEObNrUB5aQnKwn6EQ36Egz5I0uT/Nm0d/dh/8BwuXu4qsMWcQjEaVxEdymx+1wIrgnv0dqwxexBit5+MGQiuCkG8JdRgn9iIEZL5hu73ySgNuat3BgB09w3DMKZ2fKkoovrhXfDU3N5fX+3vx8Abh6D29ubLxIype9djUCoqnDZjKk4+v11Z7bQRv7tXW2sR6wtg5N5JfvwWkeQHnttCBgtuWJ6x3QG47/HPRE1DDQmCjFC4IR9LcLIkFPSixP/2Hk0+n4Jw0Idg0AeBUui6gc7uCEZjvORvppNOBzAZBECVFUMYKsqsBJIQMUxl9BJ/Vpv+eNyqA4gMxRGLa3f8+VSb/00YMHrlCgYPHoaZcOY7RWUZc5/5gD21wPmDMV2vfWFXIPNQk4186g1WBl3/Ewb2MUzdGG9GOgG2fjJ2vfuzf62qw38w9ntFCcIfqLJzCU4OeDwSKkonF2NxZiedPUN31AEUktrqoOt0APGkhsHI5OPBM9r8x8F0HdFTZzB0/BSYVdjqAv/cRlQ9cH9B18wFBrz/he3Ktwu55rOvMnGI6r/GwP4CQHmGL5txToCt3zzTVD86/veqOox4fMa8V0VLvjqvcYqXO40HLjR2jge2izu9N9lu/gBAJAml69ag/qkn4C1wL363lv9NhJLCjgf+5N7E/VGqHWNgX0Lmmz8ArGO69rNPvcFmTL9o2xyAne/+7MOGod3WbDqZGISq8ioPJ2GMQdNnVm0zZ3q4ZcKjG51TgVKI4tsfjbls/uORQkHUPLQLNQ/ughgsscPMtHjq3dkAaCIM5MFCrPO7e+MNn9ynvgjQPQAmb1CRnhnlBNgXAWDWn91J+hob7UVSzUxZy8kPbjxpcZzDLREATXOnYzr+/Znu5j8eb+MczHnq3SjffDeolL8uoILfCznknuE/U8Iw9+N7E/PydfuPHmG+T+5VnzUhXATDMzbccsY4AbY5AIapTllrEh/tQzLBW8o6BXcAOOORpVQ/AKfRDROm5b5S07G2wFQUUf2QPZv/GESgCC5fijnveRKBhQvyopP21tXbf9M8IhLB/jQAY+QTv1Cf9sW0cwD+hACetK/JnBnhBNjy0Xvw6c/OS8aGWzKRFHm8Yfh8ri5LmZFQSlBXXSQnAk5B6I/EkEzTD6AQlJf6bR8PPF1My0JPJImah3ZBqc6vkDnZ3YPBNw9BHRhIf3EaqCDA29iA8JpVkMuLam86DYa/iAfk73/5LjK5AjMLfme/tp5a1gsAuccO46bgMCz5wed3kGie18kLtjgAu5787LNqcjjjns6S5EOgpNZVPe9nA1UVJZAl13YF4xSYkZiKoeHM+gHkk4BfQTjo7OjsiRBRhLV2I+SqAlUxMYaRCxcROXIMZjLLskECKFXVKFnYDH/zPDdO/suGURC8RBj7ZmibsvtZQrIKD/3+6yNVhi79OQj5Ndgscp+ConUC7HEA3vXZ76ja8NPZvIZSEaFQAwjlG1KhmKwfAGf2oukmevuz6weQDyRRQHVlYYRxmUBEEcLGzSCl2QjE7cFSVUTeOoaRcxfB0qRGBJ8XwaVLEJjfXDBhYYFpYcCXJVH76t/cUzJlV6WPHmGSP65+nDHyxwDCBbJvPEXpBNjkAPzpL1RtdHu2r6MAAsF6iJK7vP+ZitcjoZz3A+CMwy39AOpqQqAuiAg6ufmPRxuMYPDNg0h0dd/2MykURGjVCgQWzp8tBygNBP8Jk/z18zvk4xN/+Km9yQcZyPMAljpg23iKzgmw5Rt3/7v+9LiujebczlFWgggEKu0yh3MHuA6AMxGuAxiHIELYsAm03D0apURbO/rfPABjZBRyWRlCq5YjML/Z7d398gchuxnBZ17YKh/87T3J+aJE/pIxZBV9zjNF1SzIHgfgyc+e0pPDudZVAgAoKErC9RAEHqLOJ9WVJZDEWXFq4GQA1wGkcMvJfzKYYUAdjMBTVem0KW7iTQDrALhxwyiaSIAtIgmRSNMu5rVgYSh6HfF4P1wzSmsGwssBOeNxSz8ARxsCCSLoXZtcufkDKeeEb/63sRnu3PwBYAOotqcYSgRtcQAIFWwr5E0moogMtsIwnD+VzETc2HmN4xyyJLiiGkc3TFjMAcffhWF/zoygKPoE2OIASKK9jhhjFoaHOjAy3JVWCcvJDh4B4ExkrOmN0xTcOeWbPye/uN4JsMUBEERFoXmY6KXrMUQiLYjHBwDGHQE7sCwG3XBn+1WOM7ilN0RBnVO++XMKg6udAJt2bUIkJX91qMlEBNHBFqhJPk/ADngUgDMet0QAtAJ+LsU16/nmzykU6yxD+xcw5nyubQK2HdsVOWjXrSbFAhCL9SEy2Apdn3anyFkN1wFwxiNLoit0AJpeGB0ACYVBaopjUh5nZkAYHv7Ea/pGp+2YiG0OgCjKyEcaYCKMmRgZ7sRg5CpUNZb39WYiPALAGQ8BoMizJw1AAvk9rHA4k0EsLHfahonYuGMTeHwFLKOxDMRGuxCJtELXuCOQDZbFoJtcU8G5hTyLygFZkkcQOYWHMeu60zZMxNYju0cpvGfNLBMjI12IDl5BMhEB42LBjNB4GoAzjtmkA2CDA2Cx0byvw+GMo6WUKa86bcREbI7ZEwRK7JubnQ0WY4jHBxAZbEE83g/L4hvcVPA0AGc8s0oHwBjMc6fzuwaHMw7C8PvP7iCue+janrSX5QAodfY0kUxEEY1cxfBQOwwuGJwU7gBwxjPbdACspxtWb0/e1+FwCMie5+5TXnLajsnIi2qvJFSfj9tmjWEkMTzcichASyo9YPH69zFM0+I6AM7bmE06AACwzpwEeKMxTn4xAPYpp424E3lxAAQqwe9zT40tg5VKD0RaMTLSCUPnbYYBrgPgvJ3ZpAMAABaPwbzaUpC1OLMTxsgXn9uunHLajjuRt7o9xRuCKHnydfuc0bU4hoc7EBm4jHisD4apOW2SY/A0AGc8btEBFHIuALt0HkxVC7IWZ7ZBegmT/sxpK6Yij4X7BMGS+f1h8gAAIABJREFUesf1AHeCAUgmhzAcbUN0sAXJZHTWpQi4A8AZj1t0AIwBmlaY7yIzDFjnzxZkLc6s44/cPhI4v517CEEo1AgUoEHQdLCYhXisH5FIa8oZSAzCNHWnzco7XAfAmYhrdAAFdE6tjjawaKRg63FmPgQ4Gt4mfc1pO9KR952ZUIpwcG4hlrIFi1mIxwcxFL2GaKQVSXVoRpcUch0AZzzKLHQAwBjM0ydToQcOZ/owYpGPP0uI609XBdmVqSCgtMz9kYCJWJaJ+GgfopGrGBy4ckMzoCKVQJgZqDp3ADi3kGWX6AB0o2A6AABgQxFYHa5r1MYpRhi+/rc75ANOm5EJBXP3CRFRGmrC0FBbkZ6oGZLJISRvTCSUlRIoSglE0QNCisuxGQ8fDMQZD0FqPLDT+pAxHYCngJUJ1vkzIDV1IKI7oiCFRu3tQ6K7G1r/APToEIx4HMwwAIsBjIGNOWSERAEkCKVJUJKkkhyTwsG4p7ycKFVVAaWivE4oCVQ7+pdxjmFQ4386bUSmFPSTTihFKDQXQ0PXYVnFrb7X1BFo6ggAgFABihKErAQgCDIInD9BZYppWjBMC6JQvE4Mx14URXTcAQBSaYBCOgBMVWFdvgBhietmtuSFZHc3hi9dhNYzAH1oBMi0jTpjYQBhZpqACZi6ATMeR7KzG8AZAAChpE8MlFz2NzcagUWL50nBkjl5+4u4CvbZ57f5u5y2IlMK7uoSShAqbUB8tBfqjQ202GGWiWQigmQiJSSSRC8UTwiipNyognC3Q6BqBkSv7LQZHJcwK3UAN7Bar4A2zAXxBwq+diGIXb+OgaNHoPdHQPOYAWYWq9SHhyujx08jevw0iCC0+psar5euX7tADAbr8rawkzBcCFcqX3DajGxw5JtOQOAPVEMUPYjF+pwwIa/oRgL66K1mQ5LogeIJQhC9EKjkOn9A1Qz4uQPAuUFKB+C8Jm5MB0ALoEmwmAnTSELT4yBHXkVo+zvzvmahMNUEevfvR7ytA9RKvZf53Pwng5nmvNErrfNGr7QyQVFOBlcsGw2tWnEXEYQZ9OBhn3p2OSmq0Lajrr7iCUEQPRge6ZjRLTl1Iwl9NHnz97LshyQHIIkKCJUcF11xHQBnPCkdgPNpgPzpACyYlgnTUKHro9D1Cc/s9lZondcg1821ed3CYsTi6Nn3CyTbu0EJBXXHyYOYqroqcvQYIkeP9wfmN12o2LJ5HVFkr9OGTZMfPH+f52WnjcgWx2N9oqigrHQeRkd7oKmzY0SnpsWgabGbvxcEGbIcgCR7IVAZhBa2GQvXAXAm4hYdgKZPVwfAYDELpqnDMJLQtVFYGRw2Ro/uQ2n1B0EE5xsjZYsRi6Hrp69AH4iCgIK6VqTMKkavtFbEWq4O+uc3H67YumUDEYRidARUYrHfc9qIXHDcAUhBEAjUQJfjiI10YubGAibHNDUkEoNIjBtRIFIPZI8fojTmFOT3S8x1AJzxuEYHoBpAFul4xhgspqdO90YShpbIqWjXHI4gcfEkfEvX5vBq5+g/eADDJ8+CEApSJL1XGGNlo5evbIu1tPSU3rX+YmjVitVO25QNjODzz+/wXHbajlxwx7f8BpLsQ7h8PmIzSCCYK4aVhBFPjvsTAknxQxZ9N8SFkq3lh1wHwBmPW3QA2h10AAwMYBZMy4BlatD1JAw9t83+TsRPHYSnaTGo12fjXfNDrP06enbvATFQtGXJzGLVg4eOVA+dOXu45h2P1MnBEneMlZ2aDt2U/9JpI3LFlvjWktXv/BiASjvuBRDIcgCy4oeuxcEyLU2ZBaQedDGoyWEkExEkEoPQ9TgYM8DAbmgJSE6aAstiKPEr9hvNKUoIgKRqwHRBq2iPLIIIgGmo0PRRJONDSCQiUNURaFoMup7MT28RywTTVChzmu2/t410/+LniB48BsJckeOfNkzX60fOnJMAcsxbW+NqJ4AAv/XF+8SjTtuRK66KAIxHEBSESudCTQ4hHut32hzXYhhJGEbybX9GCIEoKJBkHwRBARVkUCpMeTLgOgDORBRZLNho3hQMlmXCsgwYRhKmoUHTRmHqXoSC/gLacYtky1l4Fi6HVF7jyPpTYSQSaH/pu2Bx3TYhcWkogLlzKlBdFUJNZQhVFWH4vDIUWYTXq0AQKCzLQjyuIqkZiMdV9PQPoacviu7eIVzv6EdkKJZ+ofR4o28d2xi/evX12nc+tpZKguvCMAR447lt8r86bcd0cK0DAKTKBT2eMBRPEInYwM0ufJypYYylKg8mOAYAgSR7IYoeCIICQZBAiQBQCgICTTcgzqSqHM60UGQRdifiGFJ9MxgzYBgGLFOFbiRg6slUWH8SVFUD4IwDAMYQO7If4QefdlX57siVy+h9dd+0y/k8ioSVy+Zi6YI6LF5Qh8ryYEav83lvRQsXza9928+6e6O4cKUT5y914tS5NmjTaDeuDUbuuf7Nb12pedc7JKW0rDHnG9mPSUA+DkKKui+8LR/pJ5758lmALbXjXlNhWQZioz3Q9UT6izlZQQhFOBRGVWUFKJVAqQhC6Q0xkYuefJyCYTGGrp6hLHUAN7Zxy4LFDFimDtPUoelxWIYKK4eUHiEEDfUVcHIHLtnyIDzzlji2/niip05i8OCRnEV+hBDMb6rG5vULsXHtAiiKZLOFt9B1AyfOtuHA0Us4fb4NlpXbfkkIiVY9/ECHr77OFW0aGdg/vrDd81tO2zFdXB0BmAilIkqC9TBMDfHR3ttC35zcYczC6OgQSgKTfyQoFVJRA1GGQCVQQQAhAgghRaM25mQHJQSS9PY0QEp8x8AsCxYzYZkGTEuFaWowdBWWZf8YbcYYVFWHojgXnYqdPOAKB6DvwJsYPXU+J6GfIFBsXLsAj+5ci+rKUB6sux1JEnHX6mbctboZ/QPD2PPaaex94xwM08zqPoyxcM/LP5Wrdmw/7p8/b02ezM0UC7rxrMM22EJROQBjiIKMYGgOTFNHLNYHQ487bdKMQDdMmJYJYZI+BKncbBz6Hd5rAoCKEiiVIQjijY6HNKU9oGNRBMKjCS4ldS6zAMZgWRYYM1OndWsUsdEoDFODaeg3ryw0SYcdAKWuybG1x+j++R4kWtqALPP9gkCxffMyPLRjNUpDDqVSAFSUB/G+J7Zg17aV+PHuY3jt0IVbA4Yyw9f76t7l5bH4oeCq5RvzZWcGUCpJOwF8y0EbbKEoHYAxBEFCMFgH09QRj/Xy1IANqEkdPl/2xSEMgGnoMKEj3RmQEgJBVECoAOFGOSMhAgglN6IK9MYzbqx3GXcassdK5dvHTuuwAMsCgwnLNGFZJhjTYRj6lJU2lqVBdUGDLid1AEQQ4F223pG1x+h9fT8SLdeR7XdhwbwafPDJezGntiw/huVAeWkJnnl6G7ZvWYZvffc1tFzrzebl0sChw+uhSG8FFy9aly8b08GAT4Oxf+UaABROA5AOZplQ1SHE41Fg1rUTsoeA34uy0hKnzZgUSoVUdIKKIISCklR0IdXpjKaU0JSmyqHorWgDAW6cmsZ+ucOlGP/kILDAQABmgZHUD8c2ZobUJp5Kxls3wu9WahOHCWaZqVO7Zdh+PmeMob2zP9uTmu04qQPwLlyJwMYdBV93jMiJE4gePpbVaxRFwvuf2IwtG5ZkGzAoKIwxvPr6Wfznjw5Cz04smKh5aFert2HOsnzZlg5G2Ttf2Or5oVPr20FRRwAmQqgAj7cMHk8pktowkqMDqZMPJ2NSJy13kkpDmADyZyMl9LYQa0rnQG7kXe+wERKAWSy1WU/YLMeU78UIIeTGXAD7c/vZwBiDphmQ5fwJ1iaFAJ4lzqWcY1euIHoku82/troUv/lLu1BXXZonq+yDEIL7712OZYvq8Y8v7kZn92CmL/V2/XT3nPrHH2tVKivm5dPGO0Es8hkARe0AzEz1FiHwKCGEy5sRDDdAkoqxvbQzjOkAZitjJ+vxv0zTgGHq0A0VuqFN/kvXYJg6TNO47fXFuvmPkU+VeDYkHXBO5domiEFnNlI9EkHvL17LSnZxz8Yl+MynniyKzX88NVVh/NFvP4ENa+Zn/BrCEOz8rx/JppoczqNpU3H3J/bq2xxa2xZmpgMwDlFQUBKsR2npPPh8FaB57qk/E1CTzp72OO7C43FHb4ikWvjPpXexQ6d/y0LXD3+SVS/mh+9fg19+7zZIYvENMAJSjuavf2gnHr4/i/fcYvWdL/3wkkPaVADWp51a2Q5mzW6YSg+EES5tRijUAFlyTg3rdpx40HLciyI7P7IaADS1sFUI1BeAXNtQsPXG0/2T3TBVNaNrCQHe+/hmPPmok8J4eyAEePLRjXjfE1sy/swZo6Pr+9888HqeTZsUAjz8e3sSRTs3etY4AOMRRAWBYC3KyuejpKQWVHTHCcctOJ3v5bgLQggkyflTpXVDB1AoPPOXZV1yZwcjZ88j0dmZ0bWEAM88vR27tq3Ms1WFZefWFXjv45szvn7k7PkNie6ei3k06U5QU6S/6sC6tjArHYBbEEiyH+FQI8Kl8+ALVIFSd+Q7nUTXjVmtA+DcjsfBGvzxFEwHQABPc+EF5swwMHDgcMbXv/uRjbh34+I8WuQcO7euwCM7Mx7HLPe+8jPm0PS4X32WsaLcS4vS6HxAqQCPEkS4dC5KS+cjEKiFOIsjA5payCEwHLfjHiFgYaJTUlkNhEBmffHtpOdnP89YNLpz68rs8uVFyLse3pCxg2PpxuLBw0feyLNJk9EY3W9kHq5wEdwBmARCCWTFj2CoEeHSJgQCVaB0djkDTiiuOe7FLRGAQukA5MbM1eh2kezrQ6Ijs9D/ovm1ePqdm/JskfMQAnzoqa1onluV0fVDp86uNuPxgTybdTuMPV3wNW2AOwBpoFSErAQRLm1EaVkzgsF6KEoQM/2t40JAzngIIZBl59uGFEIHQD0+KI0L8rrGZPT97NWMrgv4Pfj1D+4Epc4LMwuBIFB89MO73jaB8I4wVtLzyp7z+bfqtoWf/u19qmNNiXLF+W90EUEIhSh5IUpe+P1VMC0VuhZHMhHJacqZm9F1A5Zl8bJJzk08ilxQEd6dSKqarQ2BiChBqqiBVNsIuboBYllVwRsOxq+2wYinn2lCCPCRD96PcMhXAKvcQ1lpAB9+z1Z8+Ru7016rDgxs0qJDHXI4VF8A08aoExjOfHKv1ksI2wtGdlPDfOXzO73XCmhD1nAHIFcIUtPxvAo83lIwZsG0dGjJYWjJoRnRf1BVdXgz8bo5swJFkYARp61IRaeC0+hWTQiFUFYBubohtelX1QMOO7oDBw5ldN2m9YuwfPGcPFvjTu5a3YyDb83FiTNp91Shf+9rrXVPvKOQDsANWBVjeBpgT5sixSf3qi0A280Y2U1lec9zW0jGrQ4LAXcAbIIQClFQIPor4fNXwrQMmHoCqjpctEOKkqrGHQDOTdynA8jwmE4IxLLKmxu+VFkLIrjn0Zfs7IYxmn7gktcjz4ha/+nwgXffg/OXOqCmiUSpfX0bjNHRHjEQqC6QaXeiGSAfJQQfZbpmfmqvehzAblhsdwjKa8/uII7OtHfPt2CGIVARglICWUkdVSzLgKGr0PXYjelq7o8RcB0AZzxjOgCn0wAWY9B0A7J05zSAGC6HVD0Hck0jxOo6UMm9jmz/mwcyuu5dj2xAKDi7Qv8TKQsH8OjOtXjp5bSlksrA/jcvVD/ygNMOwHgEBqwHsB6UfDoKLfHJvdprDGwPo2R32b3SsWcJKejGwB2AApESE4qQFT/8gSowy4RuJqFrMajaKGC5zyHgOgDORNyiA1BV/W0OAPX6IFXWQ6ptgFzXBMEXcNC6zDGTSeiRaNrrSkMBbNvk+MBVV7Bz20rs3n8aI6NTR1bjHZ0rmWXpxL3NXbwAe4AADxCLIbpPG/nkPu0gY2w3o2T3F7bKR/NtAHcAHIJQATL1Q5b88PurwCwGk6kwtAS0ZAyG5Whk6CZcB8AZj1t0AAYRoTQuhFRVB6miFmJ5ZmVibiN69HhG1z2ycw0EgTviACBLInZtXZFBFICVxi5dORxYvHBDQQybPiVgbBcBdhGL4RN71W5KsB+M7DYs48df3OFrt3tB7gC4BEIJRHggej3weFOTvCzLgGXqMIwEktooLKPwtfmqxh0Azi2UQo/jHQcRBFSu3Yjylevgq6xxpE2v3cRar6a9JljixT0bFuXfmCLivnuW46d7TyIWn3peQuT4KTOweGGBrLIXAtSMCQoFKrBP7lVPgbGvhyuVv3t2ObFlM+AOgIuhVASlIkTJC4+3DEDKKTBvOAW6loBh5FdgyBsCccZDKYUkidD1wqcBmh9/P8KLZk4YXB0YhJlMH+nbvnkZJIk/qsfj9cjYfNci7N53asrrjJHhtaaaHBIUT6hApuULAmAVCPn8UJ+2A4w9DkKm3RGLx5SKDEpFSJIXXm8ZgqF6lJUvQGnZPITCjfCX1EBRSkCpfQ8LTUvpADicMTwFbAtMqQRFCaFm+d0zavMHgJFTZ9JeQwiwaX1xnmDzTYbvixK71HI237YUEkbw2Cf2qe+0417crZwBECJAEAQIggxFviV+SukKDFiGBsNMQtNjOaURVE2H18PTAJwUHkVOK8DKlpRj64MoKhAkDygRQKh4s9DPP6doJ67ekURPT9pr5jfVoLK88DMJioHG+grU15aho2vq0vpYyzU9uKLomvRNCQHZCuAH070PdwBmMCldgQQIEmT44UM5AIAxE8wyU70KTBWmnoRqqIA1eVhXVbkDwLlFroOBKBUhiF5IkpJqokVFECqAkPSBSCq5oweBbTDAHI2lvezudYVvSVxM3L12Ab7bNXUTJbW/v7FA5hQQZotXyB2AWQghAogggAoyJMkHeAD/jZ8xZoFZBixmwjR0GIYGw9KRSkHlfwgLx/1MpQOQRC9EUQERZQhUAqUCKBVAiOCApe4lfr0djKX/Pi1fNDu7/mXK0kVzgB9P7QAwy2wyRke7xECgtkBmFQ3cAeC8DUIoiCCDAhBFL8bO/cFQCIQQACaYZcFiJizThMV0mIYOxgwYBm8cNJMRRQmUiBBEBeXlPsQTOii5cYoHLXj//GIm1tqa9pqycAAVPPw/JY315Qj4PRiNTS2mjLdebQ2uXMEdgAlwB4CTEapmwKtIAAQQKoBCAsYOdW/LDjBYYGAWA5gJy7LAmJ6alWBosJgJw4FyRs7kUEpAIYGIIgRBBKEiBCIClIISesPpoyATdvcSpkPT04ewOZOjDUbSXrN0kQOt7IsMQggWNdfirVNTO1SJnl49uLJARhUR3AHgZISqjjkA6SCgIDfqSwQIAgB4Uj+6TUbAwBjDzf8xC8wywZh1oweCBcZS6QhmmbAs08a/0cyDUgo6llenAgQiglIKQsRUZIcQgFAQkvpXms6RXVH4o2M6GLH0zlNzY3E2Nyo085uq0zoAeiQ6w0Qk9sC/xZyMyE/7VwJCxp0tU4fNDLFS0xQYA8BgsdSfAQAzzZvXMMsCA2AxE2DWzbwrYxbAUtcxsBuljixvJY+U3sqBC2P/nxAQMvYVpCCU3Gi7TEAJBUBT11B6Y/YNTTlXYxv4jTdu4um8EFBCIIkCdIM7ZblgZTBno7oqXABLip/qyvQl/kY8Vl4AU4oO7gBwMkI3TFiMgbqm+xpN+Qo3zKHkbT/iFABFEbkDkAOWrgEsvaNZU8kdgEyozuB9YrrZAMasjEpOZhH8zeBkBGOApvGHPecWiszPD7mQSf7f65URLPEWwJrip6KsJJM5CV6maemnLs0yuAPAyZh0M7g5swuuA8gNM56+/W+4ZHaP/c0GQaAI+D1przNULb9904sQ7gBwMoY7AJzxUEIgivwRki2Wmt4ByLXZ0mwlk/bUTE1yB2AC/NvLyRhdN2Bl0LyEM3vgaYDsMTMYsOXk1MVixOtJL/K3NM0dM9ZdBHcAOBnDdQCcifA0QPZYWgYOAI8AZEUmDpOpaVPPDp6FcAeAkxU8DcAZD48A5EAGlTSZtAnm3MLMpHyXCLwf9QS4A8DJCu4AcMYjUMp1AFlCPekFa8kM0gScWyQz6KsgeGQ+0WwC/JvLyQquA+BMhEcBskNU0uerk0k+VyMbMnEAqKyk97xmGdwB4GQF1wFwJsJ1ANmRSQQgkcGGxrlFMpk+YiJICq+tnAB3ADhZo00yBpYze+ERgOwQvf6010SiozDN/LSlnmkkVR2xDHorEEVM/8bPMrgDwMkaVeUOAOcWXAeQHXJZ+t71pmmhf3CkANYUP929UaTPSpJ+KsuBQthTTPBvLSdrNK4D4EyARwGygNKMBOm9/UMFMKb46elL/z5RReosgClFB3cAOFnDGKDrXAfAuYXMHYCsEDLQAXR0DRbAkuKnsyf9bAUxWMK9qUngDgAnJ3g5IGc8Hi4EzAqxJH00+mJLVwEsKX4uXkl/uFdKy7mgYhK4A8DJCa4D4IxHoDSTiWycGyiVFWmvudTazYWAaVBVHVev96W9zttQy/P/k8C/sZyc0HQDXAXAGQ8vB8yc4LJFQJqGgJlubrOZiy1dmThJmrehcUkh7Ck2uAPAyYlUPwAeBeDcggsBM0csCcFTkd6FPnH2WgGsKV5Onm1Lew31yOeoKPASwEngDgAnZ7gOgDOefDoAZiKWt3s7hXdOMO01B49egmXxWNtkmKaFIyda0l7nq6tPrxIsMhjIdTvuwx0ATs5wHQBnPKKQPx1AvLUNLJOBL0WEp7Yh7TWRoRguZCBym42cOHMtowZA/gXzSgtgTiExqYCX7LgRdwA4OcN1AJyJ5EsHoA0NYeCNAzPKCZBr1kDwpP8GvX7oQgGsKT5eP5zB+0JJj6+hYUX+rSkYBiHk48/dq5yx42bcAeDkDGO8LTDn7eQzDTBy/iLav/2fiBw5ikRnNyyzuHtRUCqjZGH61PTRky28K+AEunoiOH0+fRTcW1d3DoQU+xhgFYT8AsBnBMNa8Nw2+R/tujFX7XCmhaoaUCT+MeKkyLcQ0IjFED1+Cjh+CkQU4amqhFJTDU9NNbw11QAtrjONf/4yRE8dmfIa07Twyqsn8KGn7i2QVe7nh7uPgWXQjbRs/dq6ApiTD1oAtpsxstvyyK98cRMZzsciM+rJTSlBKOgDJRSRoVEunikAvBKAM54xHUAh6teZYSDR2YVEZ6phDpEkeCor4K2vg7e+DnJFed5tmC5yxQrIpYehRaauCXz90AU8umstSkNczN7TN4SjJ66kvY6K0nm5sqJYyv9ubviGIf/873eRgUIsOiMcgOrKEN7xwDqsXNIIv08BkJoQdbm1G0dPtuDYqVbEE+nHRXKyR9VMMKQtaebMIhRFRDxe+O8b0/VbDsHhoyivq4C/vh6kshKkvBJEUQpuUyaEVtSgb3/PlNcYponv/ugQPvLBHQWyyr38+38dyOhwF1q5pA+ASx0A0gvC9jBG9hDL3PP8Du9VJ6woegfg3o2L8aGntt6mPvYoElYsacCKJQ348FNbcebCdRw+3oITZ64iyWdt2wZjDJrO0wCcWyiSiDicd7gT0WF4mQG0p2rpic8HUlEFWlEJUlEFSJLDFqbwLbgPwpF/hZmYOn1x8K1LuPfuxVg8v1ij2tPnxJlrOJlJbwRCO0Nr1t6df4syJg5C3mCM7WaU7C67Vzr2LCGOK1qL+qm9ce0CPPP0dpA0x09BoFi1bC5WLZsL3TBx6lwbjpy4gpNn2riIzQa4DoAzHtklHQEnlqmyeBys7SqstqsAISDBEEhFJWhFFUhZuWP6ASp4Ubq6Ev0H0kd9v/Xd1/HHv/vUrGy7rOkG/u17b2R0bcmypZeJQJ30lEwCHAewGxbbbSSU/V98lKgO2jMp7vim5kDA78EHn7w37eY/EUkUsG7lPKxbOQ+qZuD0+TYcO3UVp863IcHTBDnBdQCc8UgF1AFMhWlaMEwL4mSbJWNgQ1GwoSisK5cAQQQpK7/hEFSClIQKmtcKLL4PkWP/AVOdetGungi+/8oRPPnoxgJZ5h6+8/03MRBJXw1BKOkr37BuQwFMGg8DcIoxsodQa49mKnv/YQcZLbANWVO0DsCm9Qvh88rTuocii1i/qhnrVzXDshha2npw9EQLjp5sQXQobpOlMx+uA+BMRJFFV+huNN2AKGTwnDANsL4esL4eWADEzVtTUYECQaQShNdXYeCN9L3/X3n1OObPrcbq5XMLYJk7OHK8BfsOnMvo2pIVy88SUdieZ5Mmcvj57YqbUg4ZUbRxpGWL5th6P0oJFjTV4H1PbMFffeZD+B8fexwPbF+FivL07TpnO2M6AA5nDLfMBci1W6XV3WGzJekpWfwg5PL04jbGgK9/Zy8Go64/YNpCT98QvvEf+zK6lkjiufIN6wtfL8nYtwu+pg0UrQNQFs5fOQwhBAvm1eDpd27CX/zR+/HsHzyNpx67G4vm183K3Fsm8LbAnPG4RgeQY3qKdXWmdtoCQgQJlfeuzyiUNhpL4gv//BPE4q5LK9vKaCyJv//qK0gkM4omWdUP7DQdaPzDBJP9Z4HXtAV3fEtzQNML1wWsrroUddWleOi+1VA1AxevdOL4mWs4de4aTxXcoJD/Hhz34xYdgGFYMC0LQpYCP5ZMgkUGQMoq8mTZ5MiVqxBcdBrDF9JveJ3dg/ji//8yPvWbj7km4mInmm7g777yE3T3RjO6XqmqfM1bV7stz2ZNAtv/+Z3eohzbWLSfmt7+ITQ1VBZ8XUUWsXJpI1YubQRj9+Jaez9OnWvDmQvtuNbe5/gDzylU1eA6gBkKBcNcawhN1hBCTEWAqdCJgFEoGKAeXBDKEYHntte5RQegagZ8nuz1QlbbNQgFdgAAoGzjo0h0vAR9NP23qeVaL/7pm3vw3355F0Sh2Dve3kLTDfz9V15By7XezF5AaVvNQ7vW5NeqO8DoPzuyrg3Y8rx+4pkvnwXYUjvulSlrVjThv//Kg4VcMi2qZqDlWg+8qV4sAAAexElEQVTOXerAuYvtaOvoL3QU0VGqKkogSzPnITTb8UPHffo1rDV7UvX0U9BFA3hNnIPjQvXNP4vFNURcECHz+2SUhnzZv1AQIO18CJCmJzbOBbX/FLp+cBQsw/PEovl1+NivPghvDo6O24jFVfz9V1/B5dbuTF+i1j72SIunprqge9ANhuJ+ue7LdxHnP+g5YMvTesnqd34MQEGP430Dw1ixZA7CLmqNKQoUleVBLF1Yj22bluK+LcvQ1FAFn0/BaCyZaR6raBFFYUaGImcfDPcY7fiQdgbzrCFISL8LlTANy81+LGMDaKdBjBAZhBLEYs7nqBljCPhz6ALIGIjiBSkt/DRZ0VcNKrUj0Z7ZvjIQGcGpc21Ys7wJHo87GhzlQnQojue//CNcvZ6+GmKM0IoVr5csWXRXHs26Iwzk7/9hi/gjJ9a2g6J1ABhjuNTajXUr58GjuPMDr8gS6mpKsXrZXOzathIb1y5AY30FAn4PdN3EaCz9LOtighAy7dJMjrOIsPCkfhHbjHaIOQx7LmEa1hk9iFIP+oQSxBJaRkNb8ollMfj9Mmi2TUMAIDYC2tSMrBuO2IBSuQB69DT0aGbv38hoAkdOXsG8hiqUlQbybJ39XLjSiRf+6cfoG8h87o0UCr5Z/dBOp6YkqdQwP3DgxT8v2lGNResAACmF6NGTLWieW43SPFYF2EXA70FjfQXWLG/CjnuW474tyzC/qQalQT8YYxgZTTj+sJwOpskQDNyeC+YUBwQMz+hnsMLon9Z9KBiWmQPopT60GwoMw3ldjCwLkMQcHne6DloSAikpsd+odBACf+MiqL1nYWS4xSSTOg68dQmMMSxqrgVxwHHJFsZSvQ2+9u1fIJnMvE079cgn5rz3qRWEUkfCjoSwrz63w/stJ9a2i6LVAIyHEILtm5fi3Y9shLeIT6CabuBqWy9a2/pwraMPV6/3oz8Lb9gNcB1A8fKofgX3GO223c8AwQvmUpwccT5Cl7MOAAAJlUK8Z7tjCldLi6D7h9+DOpidAUsW1OGDT96LmqpwniybPu1dg/iX/9yPK1enHoY0ESqKl+Z84D3VguJxqlGLaYEt/cJ2zyWH1reFGeEAjOHzKnh4x2rs2r5yxihiE0kNHd2DuHa9H20d/bh2vQ9dvRHXigtDQS9Kcsm3chyliQ3hN5LHbb9vrynhD0eWwnS4PkQSBVRX5n6KF+/aBFJdY6NF2aEO9qDrez8By3LEuSBQ3LdlGd718AYoLkqVqpqBn/7iBH6851jWlVOE0usN73taFvze6vRX543vPL9deZ+D69vCjHIAxqiqCOKR+9di0/qFM7Jxz2gsibaOfnR0D6KzO4qunkF09UZdMcvA45FQUer+dAzn7XxUPYa5Vn6iTf88WIn9js5lSVFbHcy6H8AYpCQIcesOR7QAYyS7e9D98itgOZQal4b8ePC+1di6aQlkBwd3JVUdv3j9DH627xRGRhNZv54ItKX+qXd7pGCJsx8oQtY/v01+y1EbbGBGOgBjlIb92LVtJbbdvdRV3m++GIyOors3io7uQXT1RNHZPYju3mhBa7EpJairDhVsPc70abKG8Buq/af/MboiCfwh2ZS3+2dKeakf3hwV8iQYhnjvdkcdAADQBqPo+sEPYRm5dTgsCXixa+sKbNm4GKGS3FIiuRAZiuG1g+exZ/9pxBO5VYZQWT4z5+l31wpeb5nN5mULoxbZ8rc75AMO2zFtZrQDMIbXI2PLhkV4eMcahIKF+9C7Bd0wMTQUQ9/gCPoHhm/9d2AYPX1DSKqZC28ygesAiot36Fewxcbc/0RYbBT/U1uNTuKsMj3gVxAOerN/IQHETYUdDjQV5mgM7S99H5aau2MvCBTLFs3BpvULsXr53LxEBZKqjmOnWnHg6CWcv9w5LYGzGPAdnvOep5YTUXDLA/xQeJu8+VlCnFe4ToNZ4QCMIUki7l63APduXIzmuU6mj9zF0EgcvX3DaOvox+HjV9ByLTtBzkTCIS8CPq4DKBY+lTyECpZ9ODZTmK7j29FSvCzNz9samZCrDoDWN0BYsz4PFuWOZRjoeWU3kl0ZN8u5I6IgoLmpCksW1GPJgjo01JXnFDFNJDVc7+jH+cudOH+5E61tvXZ0RmWe2pr9tY88uBmUuiyMSz7y/Hb5K05bMR1mlQMwnpqqMO7duASb1i9EsCSHU8EM5vzlTnzj3/dlVY87Hq9HQjnXARQFBAx/ltgPmkPNfza82i/ia+LyvK6RCXU1oez6AQgipPt2AR53lrdGjh5D9NgJ2+9bGvKjujKEqooQfD4FXo8MRZYgiRS6YSKpGkiqGmKxJHr6h9HTF8XQsO3N8AYqdmxrLZnf7EiTn/SQXljS4ud3kMyGFbgQWxyAx5/50gECFN0sZCAVClu5pBH3bFyMFUsaZqRoMBdi8SRe+KeXs+rINQbXARQPJVDxh4n8pzJPDhF8nq3K+zrpyFYHQJcshzB/YR4tmj5qTx+6X/kpLM3eVJ6TiD7P0Zp3P9Egeb1VTtsyJYT87fPb5N9z2oxcsSVRu3T14+8G4O5vyR1gjKG7L4rDx6/gtYPnERkahSyJKA0HiqKJRr6QJRGrls/FoWOXoWapEWAM8HqlnBXXnMIRgI4tRkfe1xlmEvaZhR/eNRFBoJl3DvX5Ia5Z77jwLx1iwI/wylUwE3FoA4NOmzM9KOkpvWvdieoHdt4tSFIxhBE3bPzl//3Swa9/LsOpRe7Cpk6Aj+0EsNaOezmJqulobevFG0cu4tXXz6KrJwJRoCgvC4DOws3Mo0gI+Dw4fuZq1q+VJMHRciNOZpiguM9oy/s6bUIYB1Tno0KMIeO5AMKau0ACDnQAzAUC+BobULJoIdSubpiJ/Gk68oThqa15rf7d72z01tcvcNqYLKCUkMUHvvbZF502JBdscQAWrn3ETxh9yo57uQVdN9DeOYBDxy7j56+fQUdXyrMuLyuZVWmC+toy7DtwDqqWXdkRnwtQHJiguCfHvv/ZcEUqx/Gk3/EGVpbFEAgoaaN7tLIKwqKikjUBAKgso2TpYnhra6D29cNKun7eiC6XlR6oefQhhFetXE0EsRjVw82bfu1/nzjw1c+dd9qQbLEltvX009+RVU8kSWbBOHhJErF0YT2WLarH0oX1qK0u/KSwQvOVf30VB45m1/GS6wCKh2e0U1hi5jd0/E15BfYPe7Lq9Z4v0uoAKIW49X6QQPEN1JmI2t2N/jcOQhuMOG3KRBJKVfWBqp1bF4v+gPNdoqZPS9iSlz+7g7je4xqPLTHaf//392qPP/OlfjgwEKjQ6LqBk2ev4eTZawCAYIkXi5prsXRhPZYvaUBZuPgfGhOpqsh+I7csBt0wcxvAwiko52lFXh0AnVBcFsJQZMMVDoCqGVM6AHTe/Bmx+QOAUlOD+iefgDEyisjRtxC/1g5Ld65jKJHEc4GFC/tK165aIXi9OxwzxH6aI1T7fQCfc9qQbLAtSUsI/T6Y9et23a9YGB5J4MiJFhw50QIAqK0uvRkdWNhcC6+n+MPguW7iqmZwB6AIOCNW4hHjChRm5uX+p4RK6BCguOSroE2VzvJ4QBcsLpwxBUIsCaDyvm0AgER7B6InTkLrH4Cl59ZRMAt0qijnvHPqIqVr1zRL4dBSAMWXW8kAAvzR7+6Nf/1vt/uuO21LptjmAMiJkU9rnsBHADbj0wBT0dUTQVdPBHv2n4YgUDTUlaN5bjXmNVaheW4VKsudGl6VO5GhWE6vU1WDNwQqAuIQsV9owC7jqu33NkCxR2oCAMiSAEoJrCwH2tiNppuwGJu0H4CwZDmIOLPFq9459fDOqQcAGPEERs9dQPx6O/ThoWmXEhJK+ogsdSoVFdHAwgUB39y5S6goOF//WRh8FoT/A+D9ThuSKbZu1o8/86XjBFht5z1nGl6vjKY5lVgwrwZNDZWY31QNn9fdm+Sffv4/boogs4HrAIoHGSY+rh5BuWVvCvPn4tybDgAA9EdirkgDlJf54Z1QDkhKyyFu3joLlExTY4yMINHRDbWvF2YyCaYbsAxzkDF2BqZBIYiW4FEsQZYZlWUilPhFpbIirJSVNVBFKb4Tjs0QQu97bpu012k7MsHWj/o7fvkf1osWPTLrv0FZQAhBbXUp5jVWYUFTFRrnVKKuutQ1lQZtHf343HPfzfn11VVBSC75u3CmppLF8ZvqMXiZPWHhi0IpXpRXgo17HozEVAwNO1+idttcAEIgbtkGEp75ol5OnmE4E2bymmd3kLznV6aL7Tv1u5750i8YsN3u+84mBIGiqiKE+tpS1NeUpX7VlqGirKSgzYkYA/7m//4Al1py7zdeGvLB73NJ8peTlmYWwYeSZ+DB9PQArUIIL8oroU2oNNZ0E739I9O6tx3IkoCqils1/rShCcKqNQ5axJlJEEY+9tx98j84bUc6bN9NHnzmxSovEp2wqccA5xaCQFFdEcLchkrUVoVRX1uG2qowKvKkK/iPHx7AT39xclr38HlllIXdMsCLkwmVLI4Pa6dRYeV2Uj8o1uKH0kJYd3i8dPYMOa4DAMbNBZCk/9fenYdXWd15AP/+znu3LCSQBAhLBRd2ylRHfXQUElptbTug2Ab1QVA7EKiOA3Fp7cw4k/bp1B2CFgSXaiE+tqCjgHWZigG0PtVBnCKbuIBoWCRgVu72vuc3f4TlmgWScO89773393ke/4C7nG/i5X3PPed3zoGn5DKQ391TcSJ1EPCV0r7hD02kOtNZTiYhXyenzFh6p2bcn4j3Fu3l5gRQ3K936+EdhXnoW5iPfn3z0K8ov+vbnsYIR2z8cdXbeOud09/XwrIUBvTL+GnBlOOFg4vtWkywP+/ylECtysWr3rPwqTr5MLrb6gCs0eOgzjzLdByRZhi8eGFJ4BbTOU4mYePJV85Y8g6YLkzU+4uuye+Vjb6FeSgsyEVBn14oKuiFwj65KOzTC4UFufBYJwZq6g414r0PduGNN7fiq4bmuGWQOoDUlQUbo5w6jHYOYaiu/1pnwAGhngL40CrENqsQu1Q+unJJcVUdwKB+8F46EcjArb5FwjlK0d/PH++L/3GNcZKw9S55nP3tRg7uByE9dtRIUQ1NR9DQdAQf727/GBGQ1ysbXq8HwWAELUcSs4lVJGzDK3UAKSkIDzZZxdhkFQMAPHCQiyhsKDTDi558h/D73LHMLhKx4Rn1Tbn5i0SxtNaLwDweRObnvDqQsE/+8uUzWjwe3wUEMrftlDgpZqCh8QjqDjUm7OYPoNvnCAj3smGhHgE0w4eeDiB6vZYrTtr0Dh4M6uvu02ZFqqNLKt6MXGM6RWcS2vV9/umbdmjiK0DQiWxHuJt0AEQsAuD3ma0RJo8HBRdeYDSDyAzMeOCO19iVRxsnfOxr9bLZNdA8E3DnEIhIPMfRsB3pA4oTfIanAXqPGwtPL5mdFEkx2AlE7jIdoiNJmfxaVT3nKWZMB2QkIFOFwzIKIE7w+811AJTPh/xxY421LzKPBu6oeJsLTOdoK2nVL6ury59xLJ4EnOYOIyIlhRN/6IhIIT6vx1gdQNaggWm/379wFwICsCPfNZ2jraSWv7709JyXwWoiwOFktivMkxEAEctoHYBU/QsDWFP3N2VJsKT/S1hVPevNbNsawkBtstsW5kgdgGjLVB1AaP8+sHwWRXJFFdnrTIdoy0hX+NlnZx1Yvbz8DGK8YqJ9YYasBhCxTNUBOC1BHH73XSNti8xE4F/ML8n+3HSOtgyOhZF+sXr2D0D4N0hdQEaQDoCIZbIOoHHrDhx+d6ORtkWGIdy/oCTwkOkYHTE+GbZq2ezfWD7rbIA+M51FJJbUAYhYpvcDaNi8RToBIrEI91dN8P/cdIzOmN+OK8bkGY89SYybAHZVLhE/xf3y4JFzAcRRjc0hNDYlbhfKrsgfNxYFF55vNINIP8R4YEGp/2emc5yMq67Eq5eV/5PD+lwGf2o6i0gMmQYQsUzuB3BMw+YtaNz0vukYIo2kws0fAMzux9mBnZtfOvDh5pceHvmtSWEAJXBhRtFzShGyAq5bDSMMsSyF5hbzq4JD+w8gNzcAVVhkOko7wb370bh1G3z5+VB+OVQLwHYC/xdABQAGmQ7TDuOeqlK/K3f+a8vVQ+2TypcWURAvEHCp6SwiPixLYUC/PNMxhIscPNTsipGhvoW5yBo7FtawkaajtAqFEN66BXvf39L6ZyLkDB2C3uefC19+vtlsBjDwPkBVew94n1k5lRww09wN0ekA30dAsel8Rz1YVeK/03SIrnJ1B+CYSdcvPU8RVQM8ynQWcfqkDkDEckMdAADk9QogLzcAa/goqGEjzAVxHOhPPoLz6UeA42DvgQZoHXOUytGOQN7okQgMcMt9L6Feg9b3Vk3MWtfRgz//M+eHfNG7CXwrAGNDJATct6AkNb75H5MSHYBjJt/4RBk5zqMACk1nET1X0Ccb2QEZyhStwhEbBw81m44Bv8+DvoWtBwSp4aNgGegE8L5a2Nu3AMHg8b+r+6oFoVC0w+d7+/RG/pgxzbnDzlZkqexk5UyCz8GoBmF5VYl/e1deMPet0Ag4NJ+AHyQ6XDsur/bvTEp1AI6ZPH3JHDBVEqG/6Syi+3KyfeiTn07XKnE6GMDe/fVgw+eFEgEDi3sfvygmsxPALc1wtm4GH/yy3WNNLWE0NAY7eBHqAHX7qupZyyprONBA4ctZURkYUwCk4lGHQSK8BM3L89n/SuVE6tG8UEVN6DImqgJhTLwDdohoftUE3+1JaSvOUrIDcMxV05eWa8avpCOQWjweheK+UgcgTnBTHYA/Zotia8RoqHOGJ67BSATOzu3Qe3ajsx5QJOrgy7qm439mxgFFdOeLy8uXd/T8m2s416ciiwDMSETkhCA86wn6Zj34PWqJx9uVb2RvTkv4Xxh0N4BEFkyk1Jx/WyndAThm8rTHZpGFSjAPNJ1FdM2A/nmw5FAWcZTb6gBiJaQmgBl67xdwtm0BIqdeBXG0DmCXZrpzTXX586d6/twNoe8R06txyZoExDx5QWlgTbzf95bXudDnjf4Hg29BnFeUMdOChaW+2+L5nsmWFh2AY6Zct7hEe62HwDgPafazpRupAxCx3FgHECueIwF8uA7O1g/AjQ2nfK5mcDAU3RZyIuV/WPyTt7vaRvlGzs5uiRwG4D+drEli+yO+ovsup1P/QnrotvWRczX0QoDGx+P90uHmD6TpTfJHP1l8VjSqFhPoMsg+Aq4kdQAillvrAGKdbieAQyHoHdug9+5p/YFPwnF0NBSJvgwnMOfpxVP396S9eetD6wGa0JPXJhMDf11Y4r84GW1VrAtNYqKHAQzt+btQVVWJryJemUwyvw1XAjz/u5s/BXBFZWWlZ9MnA25TwK0MDDadS5zghvle4R6E1sOBTH8umIFI1Ibf2/7S6Hy4DQzA6m4nQGvoPbuhP9wGtk/+84Uj0S/DUf3I8kXTfwPQaZ1ZzExrieD6DgABa5PV1oLSwJryjbw2qyVyKwH/jm4XS6bPzR9I0xGAjky6ful5FvBrJlyONO34pBqpAxCx3FwHEMsaORbq7HO69F68fx+c7R+Ajxzp9Dm2o51wxHmPiW7+/cPT3ut24E7M2xC9BKzfitf7JY7+TlVJ1hvJbvX2tcEhjqUeBOHHXXsFLaya4K0AkeFxqvjJmA7AMeXlS737g6gAeDYBZ2Xgr8A1CvvkyLbA4rhQ2EbdYfN1AAG/B0UFJ/9ieKrpgNZlfR+ADx7o8HHNjEjE/iIa5af2bBv8q3XrJsZ96KOyhj31KnIYQK94v3e8MBBSXl/Bgn+gDtY5Jse8mmAplFoIYFznz0q/mz+Q4Xe/q6c9Ptgm524i+jGAAtN5Mk1ujh+987JMxxAu4Z46AMLA4vxTXhzVyDGwzhr29atoNArnox3Qn+0CdPsR/GjUaYxEnDVg/x09ndvvjrnrw38ysjFOFxFo7YIS32Wmc1TWsKeewj8lol8y0OdrDxLNrxrvvSPdbv5AhncAYl19wxOXOKx/AUYpwDmm82QCr8dC/76u/XIiDPjyUDMiLqgP6VuU22EdQFtUWAQ1+AzA4wE31EPv+azdsr6o7TRFo7omqvmX1Yumb0pU5o7MWxe6DUQPJbPNbiH8a9UE/z2mYxxzew0XaYqUg/BDEGpZ81NVpYFXTOdKFOkAdGDSjY9fRDb/jMDfAUF2rEkgqQMQsRqaQmhqdn8dwKlEbScYjegNsPR/PrVwxjtxjNYt82oi34Ji1551zEwXLiz1/a/pHJlKOgCncHRvgdvAGI+2Q0PitEkdgIiVSnUAbUVtfTgasdc7trp32ZJp7yYoWvcw07wN4QMA9TUdpQP1tQd8RSunkmM6SKaSDkA3/OOM3w+yEL6VWZcR05kg+f2dLqkDELE0M/YdaEiJOgBHg23b3h+NOq95YFU+uWjaZ0kL2A0VG8IrmFFmOkc7jBerSv1TTMfIZLIcrhteWnZDLYC7ANxVVjY/KxLImcPEU0nj70Akd7EeCIfNz/cK91BE8Ho9xusAmLnD/QCiUX3Etp2/aXaeHVqUtbSyclrEUMQu00xrCey+DgA46Uv/xNfJN9g4Kbv+yREhsmcr0BUAD4fsQNhlA4vzoUg+iqKVm+oAcnP92o44eyPafjU3x//Aonuu3Wk6V3dV1ITOYUUfmc7RlkMY88gE/zbTOTKZXHUTgtWV05ZezYquI6KLWPMAkumCTkkdgIhltA6AWAP0BWn+i9fveWblkzP/ZCZIfM1bH96F09r+Nt7oQNUE74B0XFqXSmQKICFIr3oGzwF4DgDKylZYEd/hKa0dAlwERjEAKX0/KhyxpQMgjvP5LBB1ejpuXFHrav0vFPNfmFC9atmclxPfavIxoYYYN5nOcQK/Ljd/86QDkAQrV051gBMdAgCYct2Six0PpgF0KYGHAZSxJ+NIHYCIldA6AEKYmWsV09uOUs+tWTZzzenuuZ8KiLEWcE8HgJiStv+/6JwMS7vEtTc+OjQYpRlQuAzAaDAVZNIqA6kDELHiUwfAGqA6AFsJeFUxlv939ex98ciXaua+3tyfvN59cMs1X+szqyZm7TYdI9O548MgOjT52ifOVV77aoDGa8ZIgPoRcVr+PyssyEGWX6YBRKtgOIpDh1u68QpiMDcxYReY32Flvbxm2czVgAwzH1OxPryVgdGmcwD4uKrEP8x0CCFTAK62+g8z3wdwfBevsrIVVtjf8G0i/X0QXwimYQAKkQYrDsJhWzoA4ji/z9N5HQDDJsJBDexUwDsE5+UXlt+8vv0TZyU8Z2qhNwB2QQeAZfjfJaQDkEKO1hL8+eh/x5XNfPzMSFhfReBLmWgsMQYyIyeVphBMr/sW7qKI4LUsDttOkwJqNfMHpLDeh6xVK5ffUGs6Xypi4rVg/LPxHDL/7xopc4MQ3ffDax4f5fXydxl8ERTGgDGYgHx26QoEqQPITAzWtq2DjuPsh4MPNfFGP+v/WfLbG96WIfz4mVfDvaEidTA7YsgO+fo/MoEOGswgjpKrbQa66sZHh0J7LnVYn2cxRjLRUAADAM6Dwc6B1AGkL81g7TghR3M9M/ZqW3/iQG+MUmjNs7+dvcN0vkwxb334XQAXGIzwf1Ul/nMNti9iyBRABnrx6Z/uBrAbQHXbx66Z8djwMOnxZNM4x8IwYpxBQD8G8gD4E5lL6gBSmwZHtKObtMZBzfw5a+y0iP/my/asfzQFd9BLRwysJYMdAIYM/7uJdADE1/xxWflOAJ1erK+ctvSbbNEFBIyC1mcT1GAm7gtGHyJkM9jb04ElqQNwL81sO6yD0KjXDh/U4L2a8LGXsc0fwF8fuXfaVqL0X0+f6pTmtazoLlPtE2vpALiITAGIuPv+tCWjvYrGKNAIDf4GMQaBqBjgAhDymCmHwD50MN0gdQDJw8za0RxloEU7ullr/gpE+5n1Xgb2ALyjlzew+eEHy7aT7NqWFiprOFCvwnvMHA/MdUdy/EMeO5+OJL9t0RG50gpjyspWWCqr/uxmxpkWeAiBB/XulX2G8lJ/AhUoUG+AepGFLAL5ScGriJQiUpDPLgCAQcysNTMcrdlm6DA7CBKoUUPXa4cPM9GXFql9DLvWYe/u7Czr44nn4+OpU6fKOewZaO66yCwifizZ7TJo5sIS35PJbld0Ti6iIiWtWLHVt27T1jNCjcFvOBYXW0xFDnnywbrAUpQFoICBbEXIYqI8AvuYKduyoKApAGIFkGJmv1IEABYBHqUIurVKWsX+8zj6HDBrUq2bmBMAUOvJsQzV+g1Z69gvygwQacXsMLcOowNwNDMICAPQYNKaKMhaswK1aK0jpNAE5iMMCgI47LBuAax6kPOV0lynLd7n16i97uohn02cOFHmTUS3VawLT2Hi2wGMIFDCVgUw2CHQTjAeXFDqfyFR7QghhBBCCCGEEEIIIYQQQgghhBBCCCGEEEIIIYQQQgghhBBCCCGEEEIIIYQQQgghhBBCCCGEEEIIIYQQQgghhBBCCCGEEEIIIYQQQiTI/wPU5AirbLl8pAAAAABJRU5ErkJggg==;" vertex="1" parent="iRG5U3GbNzpCpeT_m5hG-1">
          <mxGeometry x="1520" y="345" width="192" height="192" as="geometry" />
        </mxCell>
        <mxCell id="U29PJXjMH5lwDnSstcUd-2" style="edgeStyle=orthogonalEdgeStyle;rounded=0;orthogonalLoop=1;jettySize=auto;html=1;entryX=0.418;entryY=1.015;entryDx=0;entryDy=0;entryPerimeter=0;strokeWidth=2;" edge="1" parent="iRG5U3GbNzpCpeT_m5hG-1" source="iRG5U3GbNzpCpeT_m5hG-8" target="U29PJXjMH5lwDnSstcUd-0">
          <mxGeometry relative="1" as="geometry" />
        </mxCell>
        <mxCell id="U29PJXjMH5lwDnSstcUd-3" value="&lt;font face=&quot;Tahoma&quot; style=&quot;font-size: 26px;&quot;&gt;&lt;b&gt;Database&lt;/b&gt;&lt;/font&gt;" style="text;html=1;strokeColor=none;fillColor=none;align=center;verticalAlign=middle;whiteSpace=wrap;rounded=0;" vertex="1" parent="iRG5U3GbNzpCpeT_m5hG-1">
          <mxGeometry x="1630" y="550" width="130" height="30" as="geometry" />
        </mxCell>
        <mxCell id="U29PJXjMH5lwDnSstcUd-4" value="" style="shape=image;verticalLabelPosition=bottom;labelBackgroundColor=default;verticalAlign=top;aspect=fixed;imageAspect=0;image=https://miro.medium.com/v2/resize:fit:1100/1*aSWvbI0F5K5pQmhWCP0Frw.png;clipPath=inset(19.57% 26% 21.98% 25.33%);" vertex="1" parent="iRG5U3GbNzpCpeT_m5hG-1">
          <mxGeometry x="1920" y="356.63" width="165" height="136.75" as="geometry" />
        </mxCell>
        <mxCell id="U29PJXjMH5lwDnSstcUd-8" style="edgeStyle=orthogonalEdgeStyle;rounded=0;orthogonalLoop=1;jettySize=auto;html=1;entryX=1.014;entryY=0.409;entryDx=0;entryDy=0;entryPerimeter=0;strokeWidth=2;" edge="1" parent="iRG5U3GbNzpCpeT_m5hG-1" source="U29PJXjMH5lwDnSstcUd-4" target="U29PJXjMH5lwDnSstcUd-0">
          <mxGeometry relative="1" as="geometry" />
        </mxCell>
        <mxCell id="U29PJXjMH5lwDnSstcUd-11" value="&lt;font face=&quot;Tahoma&quot; style=&quot;font-size: 26px;&quot;&gt;&lt;b&gt;Cache&lt;/b&gt;&lt;/font&gt;" style="text;html=1;strokeColor=none;fillColor=none;align=center;verticalAlign=middle;whiteSpace=wrap;rounded=0;" vertex="1" parent="iRG5U3GbNzpCpeT_m5hG-1">
          <mxGeometry x="2085" y="420" width="130" height="30" as="geometry" />
        </mxCell>
      </root>
    </mxGraphModel>
  </diagram>
</mxfile>
